M48
METRIC,LZ,000.000
;FILE_FORMAT=3:3
;TYPE=PLATED
;Layer: PTH_Through
;EasyEDA v6.5.51, 2025-12-26 17:02:00
;33036f597f014d529b982e6e107a74c3,91ba8e619f114f4d89d8c9e58aa62e6b,10
;Gerber Generator version 0.2
;Holesize 1 = 0.301 mm
T01C0.301
;Holesize 2 = 0.400 mm
T02C0.400
;Holesize 3 = 0.800 mm
T03C0.800
;Holesize 4 = 0.915 mm
T04C0.915
;Holesize 5 = 1.000 mm
T05C1.000
;Holesize 6 = 1.001 mm
T06C1.001
;Holesize 7 = 1.200 mm
T07C1.200
;Holesize 8 = 1.400 mm
T08C1.400
%
G05
G90
T01
X030547Y056709
X025648Y052015
X010517Y050840
X028591Y055533
X018939Y065774
X023316Y064776
X028718Y049166
X023465Y059429
X034346Y056909
X033361Y055206
X037222Y051254
X036785Y056413
X047829Y071730
X022530Y053999
X032976Y065467
X037296Y057606
T02
X019914Y070393
T03
X047343Y038989
X051443Y038989
X027813Y075946
X025273Y075946
T04
X042672Y043561
X042672Y040640
X046268Y079883
X051268Y079883
X042672Y072390
X042672Y075311
X039624Y046863
X039624Y049403
X039624Y051943
X039624Y054483
X039624Y057023
X039624Y059563
X039624Y062103
X039624Y064643
X039624Y067183
X039624Y069723
X039624Y072263
X039624Y074803
X039624Y077343
X039624Y079883
X039624Y082423
X011430Y082423
X011430Y079883
X011430Y077343
X011430Y074803
X011430Y072263
X011430Y069723
X011430Y067183
X011430Y064643
X011430Y062103
X011430Y059563
X011430Y057023
X011430Y054483
X011430Y051943
X011430Y049403
X011430Y046863
X016764Y046863
X016764Y049403
X016764Y051943
X016764Y054483
X016764Y057023
X016764Y059563
X016764Y062103
X016764Y064643
X016764Y067183
X016764Y069723
X016764Y072263
X016764Y074803
X016764Y077343
X016764Y079883
X016764Y082423
T05
X027305Y038481
X024765Y038481
X022225Y038481
X029845Y038481
X032385Y038481
T06
X050419Y050038
X047879Y050038
X050419Y052578
X047879Y052578
X050419Y055118
X047879Y055118
X050419Y057658
X047879Y057658
X050419Y060198
X047879Y060198
X050419Y062738
X047879Y062738
X050419Y065278
X047879Y065278
X050419Y067818
X047879Y067818
T07
X031877Y089184G85X031877Y089124
X029337Y089184G85X029337Y089124
X026797Y089184G85X026797Y089124
X024257Y089184G85X024257Y089124
X021717Y089184G85X021717Y089124
X019177Y089184G85X019177Y089124
T08
X051372Y090551
X046372Y090551
M30
