G04 Layer: TopLayer*
G04 EasyEDA v6.5.51, 2025-12-26 17:02:00*
G04 33036f597f014d529b982e6e107a74c3,91ba8e619f114f4d89d8c9e58aa62e6b,10*
G04 Gerber Generator version 0.2*
G04 Scale: 100 percent, Rotated: No, Reflected: No *
G04 Dimensions in millimeters *
G04 leading zeros omitted , absolute positions ,4 integer and 5 decimal *
%FSLAX45Y45*%
%MOMM*%

%AMMACRO1*21,1,$1,$2,0,0,$3*%
%ADD10C,1.0000*%
%ADD11C,0.6000*%
%ADD12C,0.8000*%
%ADD13R,2.0000X0.6500*%
%ADD14R,0.6350X1.2700*%
%ADD15R,0.0195X1.2700*%
%ADD16C,1.8800*%
%ADD17C,1.5240*%
%ADD18C,1.6000*%
%ADD19R,1.6000X1.6000*%
%ADD20C,1.7780*%
%ADD21R,1.5240X1.5240*%
%ADD22C,2.2000*%
%ADD23MACRO1,2.628X1.508X-90.0000*%
%ADD24O,1.507998X2.627986*%

%LPD*%
G36*
X1100582Y3302508D02*
G01*
X1074115Y3303422D01*
X1048715Y3306064D01*
X1023569Y3310432D01*
X998728Y3316478D01*
X974394Y3324250D01*
X950671Y3333648D01*
X927608Y3344621D01*
X905357Y3357168D01*
X884021Y3371189D01*
X863650Y3386632D01*
X844448Y3403447D01*
X826363Y3421532D01*
X809599Y3440785D01*
X794207Y3461156D01*
X780186Y3482543D01*
X767689Y3504793D01*
X756767Y3527907D01*
X747420Y3551631D01*
X739698Y3576015D01*
X733704Y3600805D01*
X729386Y3626002D01*
X726795Y3651402D01*
X725932Y3677208D01*
X725932Y9299397D01*
X726846Y9325864D01*
X729488Y9351264D01*
X733806Y9376410D01*
X739902Y9401251D01*
X747623Y9425584D01*
X757021Y9449308D01*
X768045Y9472371D01*
X780592Y9494621D01*
X794613Y9515957D01*
X810056Y9536328D01*
X826871Y9555530D01*
X844956Y9573615D01*
X864209Y9590379D01*
X884580Y9605772D01*
X905916Y9619792D01*
X928217Y9632289D01*
X951280Y9643211D01*
X975055Y9652558D01*
X999388Y9660280D01*
X1024229Y9666274D01*
X1049426Y9670592D01*
X1074826Y9673183D01*
X1100582Y9674047D01*
X5174691Y9674047D01*
X5201158Y9673132D01*
X5226558Y9670491D01*
X5251754Y9666173D01*
X5276545Y9660077D01*
X5300878Y9652355D01*
X5324652Y9642957D01*
X5347716Y9631934D01*
X5369966Y9619386D01*
X5391302Y9605365D01*
X5411622Y9589922D01*
X5430875Y9573107D01*
X5448909Y9555022D01*
X5465673Y9535769D01*
X5481066Y9515398D01*
X5495086Y9494062D01*
X5507583Y9471761D01*
X5518505Y9448698D01*
X5527852Y9424924D01*
X5535574Y9400590D01*
X5541619Y9375749D01*
X5545937Y9350552D01*
X5548528Y9325152D01*
X5549392Y9299397D01*
X5549392Y3677208D01*
X5548477Y3650742D01*
X5545836Y3625291D01*
X5541467Y3600145D01*
X5535371Y3575354D01*
X5527649Y3551021D01*
X5518251Y3527247D01*
X5507278Y3504184D01*
X5494731Y3481933D01*
X5480710Y3460597D01*
X5465216Y3440277D01*
X5448452Y3421024D01*
X5430367Y3402990D01*
X5411114Y3386226D01*
X5390743Y3370783D01*
X5369356Y3356813D01*
X5347055Y3344316D01*
X5323992Y3333343D01*
X5300218Y3323996D01*
X5275884Y3316325D01*
X5251043Y3310280D01*
X5225897Y3305962D01*
X5200446Y3303371D01*
X5174691Y3302508D01*
G37*

%LPC*%
G36*
X4106621Y3443681D02*
G01*
X4124706Y3445052D01*
X4142486Y3448304D01*
X4159910Y3453384D01*
X4176674Y3460191D01*
X4192625Y3468725D01*
X4207662Y3478834D01*
X4221581Y3490417D01*
X4234230Y3503371D01*
X4245457Y3517595D01*
X4255160Y3532886D01*
X4263288Y3549040D01*
X4269638Y3566007D01*
X4274261Y3583533D01*
X4277055Y3601415D01*
X4277969Y3619500D01*
X4277055Y3637584D01*
X4274261Y3655466D01*
X4269638Y3672992D01*
X4263288Y3689959D01*
X4255160Y3706114D01*
X4245457Y3721404D01*
X4234230Y3735628D01*
X4221581Y3748582D01*
X4207662Y3760165D01*
X4192625Y3770274D01*
X4176674Y3778808D01*
X4159910Y3785615D01*
X4142486Y3790696D01*
X4124706Y3793947D01*
X4106621Y3795318D01*
X4088536Y3794861D01*
X4070553Y3792524D01*
X4052925Y3788410D01*
X4035856Y3782415D01*
X4019448Y3774744D01*
X4003903Y3765448D01*
X3989425Y3754577D01*
X3976115Y3742283D01*
X3964178Y3728669D01*
X3953662Y3713886D01*
X3944772Y3698138D01*
X3937508Y3681526D01*
X3932021Y3664305D01*
X3928313Y3646576D01*
X3926433Y3628542D01*
X3926433Y3610457D01*
X3928313Y3592423D01*
X3932021Y3574694D01*
X3937508Y3557473D01*
X3944772Y3540861D01*
X3953662Y3525113D01*
X3964178Y3510330D01*
X3976115Y3496716D01*
X3989425Y3484422D01*
X4003903Y3473551D01*
X4019448Y3464255D01*
X4035856Y3456584D01*
X4052925Y3450590D01*
X4070553Y3446475D01*
X4088536Y3444138D01*
G37*
G36*
X1109421Y3481781D02*
G01*
X1127506Y3483152D01*
X1145286Y3486404D01*
X1162710Y3491484D01*
X1179474Y3498291D01*
X1195425Y3506825D01*
X1210462Y3516934D01*
X1224381Y3528517D01*
X1237030Y3541471D01*
X1248257Y3555695D01*
X1257960Y3570986D01*
X1266088Y3587140D01*
X1272438Y3604107D01*
X1277061Y3621633D01*
X1279855Y3639515D01*
X1280769Y3657600D01*
X1279855Y3675684D01*
X1277061Y3693566D01*
X1272438Y3711092D01*
X1266088Y3728059D01*
X1257960Y3744214D01*
X1248257Y3759504D01*
X1237030Y3773728D01*
X1224381Y3786682D01*
X1210462Y3798265D01*
X1195425Y3808374D01*
X1179474Y3816908D01*
X1162710Y3823715D01*
X1145286Y3828796D01*
X1127506Y3832047D01*
X1109421Y3833418D01*
X1091336Y3832961D01*
X1073353Y3830624D01*
X1055725Y3826510D01*
X1038656Y3820515D01*
X1022248Y3812844D01*
X1006703Y3803548D01*
X992225Y3792677D01*
X978916Y3780383D01*
X966978Y3766769D01*
X956462Y3751986D01*
X947572Y3736238D01*
X940308Y3719626D01*
X934821Y3702405D01*
X931113Y3684676D01*
X929233Y3666642D01*
X929233Y3648557D01*
X931113Y3630523D01*
X934821Y3612794D01*
X940308Y3595573D01*
X947572Y3578961D01*
X956462Y3563213D01*
X966978Y3548430D01*
X978916Y3534816D01*
X992225Y3522522D01*
X1006703Y3511651D01*
X1022248Y3502355D01*
X1038656Y3494684D01*
X1055725Y3488690D01*
X1073353Y3484575D01*
X1091336Y3482238D01*
G37*
G36*
X2963062Y3559860D02*
G01*
X3358184Y3559860D01*
X3363264Y3560064D01*
X3368141Y3560724D01*
X3372865Y3561791D01*
X3377539Y3563213D01*
X3382060Y3565093D01*
X3386378Y3567379D01*
X3390493Y3569970D01*
X3394354Y3572967D01*
X3398113Y3576370D01*
X3671417Y3849674D01*
X3674821Y3853434D01*
X3677818Y3857294D01*
X3680409Y3861409D01*
X3682695Y3865727D01*
X3684574Y3870248D01*
X3685997Y3874922D01*
X3687064Y3879646D01*
X3687724Y3884523D01*
X3687927Y3889603D01*
X3687927Y5053431D01*
X3688638Y5057140D01*
X3690620Y5060289D01*
X3693566Y5062575D01*
X3697173Y5063591D01*
X3700932Y5063185D01*
X3706926Y5061153D01*
X3708958Y5059578D01*
X3741216Y5027269D01*
X3744976Y5023866D01*
X3748836Y5020868D01*
X3752951Y5018278D01*
X3757320Y5015992D01*
X3761790Y5014112D01*
X3766464Y5012690D01*
X3771188Y5011623D01*
X3776065Y5010962D01*
X3781145Y5010759D01*
X3867912Y5010759D01*
X3872179Y5009794D01*
X3875684Y5007152D01*
X3877716Y5003292D01*
X3877919Y4998923D01*
X3876294Y4994859D01*
X3874566Y4992319D01*
X3868420Y4980178D01*
X3863949Y4967274D01*
X3861206Y4953914D01*
X3860292Y4940300D01*
X3861206Y4926685D01*
X3863949Y4913325D01*
X3868420Y4900422D01*
X3874566Y4888280D01*
X3882288Y4877054D01*
X3891432Y4866894D01*
X3901846Y4858105D01*
X3913327Y4850790D01*
X3925722Y4845050D01*
X3938727Y4840986D01*
X3952189Y4838750D01*
X3965803Y4838293D01*
X3979367Y4839614D01*
X3992626Y4842814D01*
X4005376Y4847691D01*
X4017314Y4854244D01*
X4028287Y4862322D01*
X4038092Y4871821D01*
X4046575Y4882540D01*
X4053535Y4894275D01*
X4058818Y4906822D01*
X4062425Y4919980D01*
X4064254Y4933492D01*
X4064254Y4947107D01*
X4062425Y4960620D01*
X4058818Y4973777D01*
X4053535Y4986324D01*
X4048150Y4995418D01*
X4046778Y4999431D01*
X4047185Y5003647D01*
X4049318Y5007356D01*
X4052722Y5009845D01*
X4056887Y5010759D01*
X4375607Y5010759D01*
X4379518Y5009997D01*
X4382820Y5007762D01*
X4573574Y4817008D01*
X4577334Y4813554D01*
X4581194Y4810607D01*
X4585309Y4807966D01*
X4589678Y4805730D01*
X4594148Y4803851D01*
X4598822Y4802378D01*
X4603546Y4801311D01*
X4608423Y4800701D01*
X4613503Y4800447D01*
X4894275Y4800447D01*
X4899355Y4800701D01*
X4904181Y4801311D01*
X4908956Y4802378D01*
X4913579Y4803851D01*
X4918100Y4805730D01*
X4922418Y4807966D01*
X4926533Y4810607D01*
X4930394Y4813554D01*
X4934153Y4817008D01*
X5006594Y4889449D01*
X5009438Y4891430D01*
X5012842Y4892344D01*
X5016296Y4892090D01*
X5020411Y4891024D01*
X5034686Y4889246D01*
X5049113Y4889246D01*
X5063388Y4891024D01*
X5077358Y4894630D01*
X5090769Y4899914D01*
X5103418Y4906873D01*
X5115052Y4915357D01*
X5125567Y4925212D01*
X5134762Y4936337D01*
X5142484Y4948478D01*
X5148630Y4961534D01*
X5153101Y4975250D01*
X5155793Y4989423D01*
X5156708Y5003800D01*
X5155793Y5018176D01*
X5153101Y5032349D01*
X5148630Y5046065D01*
X5142484Y5059121D01*
X5134762Y5071262D01*
X5125567Y5082387D01*
X5115052Y5092242D01*
X5103418Y5100726D01*
X5090769Y5107686D01*
X5077358Y5112969D01*
X5063388Y5116576D01*
X5049113Y5118354D01*
X5034686Y5118354D01*
X5020411Y5116576D01*
X5006441Y5112969D01*
X4993030Y5107686D01*
X4980381Y5100726D01*
X4968748Y5092242D01*
X4958232Y5082387D01*
X4949037Y5071262D01*
X4941316Y5059121D01*
X4935169Y5046065D01*
X4930698Y5032349D01*
X4928006Y5018176D01*
X4927092Y5003800D01*
X4928006Y4989423D01*
X4930292Y4977536D01*
X4930394Y4974234D01*
X4929428Y4971135D01*
X4927498Y4968443D01*
X4912055Y4953000D01*
X4908245Y4950612D01*
X4903825Y4950104D01*
X4899558Y4951526D01*
X4896358Y4954676D01*
X4894783Y4958892D01*
X4895189Y4963363D01*
X4899101Y4975250D01*
X4901793Y4989423D01*
X4902708Y5003800D01*
X4901793Y5018176D01*
X4899101Y5032349D01*
X4894630Y5046065D01*
X4888484Y5059121D01*
X4880762Y5071262D01*
X4871567Y5082387D01*
X4861052Y5092242D01*
X4849418Y5100726D01*
X4836769Y5107686D01*
X4823358Y5112969D01*
X4809388Y5116576D01*
X4795113Y5118354D01*
X4780686Y5118354D01*
X4766411Y5116576D01*
X4752441Y5112969D01*
X4739030Y5107686D01*
X4726381Y5100726D01*
X4714748Y5092242D01*
X4704232Y5082387D01*
X4695037Y5071262D01*
X4687316Y5059121D01*
X4681169Y5046065D01*
X4676698Y5032349D01*
X4674006Y5018176D01*
X4673092Y5003800D01*
X4674006Y4989423D01*
X4676698Y4975250D01*
X4681169Y4961534D01*
X4687316Y4948478D01*
X4695037Y4936337D01*
X4701184Y4928920D01*
X4703013Y4925568D01*
X4703470Y4921808D01*
X4702505Y4918100D01*
X4700270Y4915052D01*
X4697069Y4913020D01*
X4693361Y4912258D01*
X4640630Y4912258D01*
X4636770Y4913071D01*
X4633468Y4915255D01*
X4442663Y5106060D01*
X4438904Y5109464D01*
X4435043Y5112461D01*
X4430928Y5115052D01*
X4426610Y5117338D01*
X4422089Y5119166D01*
X4417466Y5120640D01*
X4412691Y5121706D01*
X4407865Y5122367D01*
X4402785Y5122570D01*
X4056126Y5122570D01*
X4051960Y5123434D01*
X4048556Y5125974D01*
X4046423Y5129631D01*
X4046016Y5133898D01*
X4047388Y5137912D01*
X4053535Y5148275D01*
X4058818Y5160822D01*
X4062425Y5173980D01*
X4064254Y5187492D01*
X4064254Y5201107D01*
X4062425Y5214620D01*
X4058818Y5227777D01*
X4053535Y5240324D01*
X4046575Y5252059D01*
X4038092Y5262778D01*
X4028287Y5272278D01*
X4017314Y5280355D01*
X4005376Y5286908D01*
X3992626Y5291785D01*
X3979367Y5294985D01*
X3965803Y5296306D01*
X3952189Y5295849D01*
X3938727Y5293614D01*
X3925722Y5289550D01*
X3913327Y5283809D01*
X3901846Y5276494D01*
X3891432Y5267706D01*
X3882288Y5257546D01*
X3874566Y5246319D01*
X3868420Y5234178D01*
X3863949Y5221274D01*
X3861206Y5207914D01*
X3860292Y5194300D01*
X3861206Y5180685D01*
X3863949Y5167325D01*
X3868420Y5154422D01*
X3874566Y5142280D01*
X3877157Y5138470D01*
X3878834Y5134406D01*
X3878579Y5130038D01*
X3876548Y5126177D01*
X3873093Y5123535D01*
X3868775Y5122570D01*
X3808272Y5122570D01*
X3804412Y5123332D01*
X3801110Y5125567D01*
X3788054Y5138572D01*
X3786378Y5140807D01*
X3784650Y5146294D01*
X3780485Y5156047D01*
X3774846Y5164988D01*
X3767785Y5172913D01*
X3759606Y5179618D01*
X3750411Y5184902D01*
X3740505Y5188661D01*
X3730091Y5190794D01*
X3719525Y5191252D01*
X3709009Y5189931D01*
X3700932Y5187594D01*
X3697173Y5187238D01*
X3693566Y5188254D01*
X3690620Y5190540D01*
X3688638Y5193690D01*
X3687927Y5197398D01*
X3687927Y5567476D01*
X3688638Y5571185D01*
X3690569Y5574334D01*
X3696055Y5577789D01*
X3706723Y5581802D01*
X3715918Y5587136D01*
X3724148Y5593842D01*
X3731158Y5601766D01*
X3736848Y5610707D01*
X3741013Y5620461D01*
X3742588Y5626912D01*
X3744417Y5630722D01*
X3747719Y5633466D01*
X3751834Y5634583D01*
X3756050Y5633974D01*
X3759606Y5631637D01*
X3855974Y5535269D01*
X3859733Y5531866D01*
X3863594Y5528868D01*
X3867708Y5526278D01*
X3872077Y5523992D01*
X3875074Y5522772D01*
X3878732Y5520182D01*
X3880916Y5516270D01*
X3881221Y5511800D01*
X3879545Y5507634D01*
X3874566Y5500319D01*
X3868420Y5488178D01*
X3863949Y5475274D01*
X3861206Y5461914D01*
X3860292Y5448300D01*
X3861206Y5434685D01*
X3863949Y5421325D01*
X3868420Y5408422D01*
X3874566Y5396280D01*
X3882288Y5385054D01*
X3891432Y5374894D01*
X3901846Y5366105D01*
X3913327Y5358790D01*
X3925722Y5353050D01*
X3938727Y5348986D01*
X3952189Y5346750D01*
X3965803Y5346293D01*
X3979367Y5347614D01*
X3992626Y5350814D01*
X4005376Y5355691D01*
X4017314Y5362244D01*
X4028287Y5370322D01*
X4038092Y5379821D01*
X4046575Y5390540D01*
X4053535Y5402275D01*
X4058818Y5414822D01*
X4062425Y5427980D01*
X4064254Y5441492D01*
X4064254Y5455107D01*
X4062425Y5468620D01*
X4058818Y5481777D01*
X4053535Y5494324D01*
X4048150Y5503418D01*
X4046778Y5507431D01*
X4047185Y5511647D01*
X4049318Y5515356D01*
X4052722Y5517845D01*
X4056887Y5518759D01*
X4443679Y5518759D01*
X4447540Y5517997D01*
X4450842Y5515762D01*
X4673498Y5293156D01*
X4675378Y5290464D01*
X4676343Y5287365D01*
X4676292Y5284063D01*
X4674006Y5272176D01*
X4673092Y5257800D01*
X4674006Y5243423D01*
X4676698Y5229250D01*
X4681169Y5215534D01*
X4687316Y5202478D01*
X4695037Y5190337D01*
X4704232Y5179212D01*
X4714748Y5169357D01*
X4726381Y5160873D01*
X4739030Y5153914D01*
X4752441Y5148630D01*
X4766411Y5145024D01*
X4780686Y5143246D01*
X4795113Y5143246D01*
X4809388Y5145024D01*
X4823358Y5148630D01*
X4836769Y5153914D01*
X4849418Y5160873D01*
X4861052Y5169357D01*
X4871567Y5179212D01*
X4880762Y5190337D01*
X4888484Y5202478D01*
X4894630Y5215534D01*
X4899101Y5229250D01*
X4901793Y5243423D01*
X4902708Y5257800D01*
X4901793Y5272176D01*
X4899101Y5286349D01*
X4894630Y5300065D01*
X4888484Y5313121D01*
X4880762Y5325262D01*
X4871567Y5336387D01*
X4861052Y5346242D01*
X4849418Y5354726D01*
X4836769Y5361686D01*
X4823358Y5366969D01*
X4809388Y5370576D01*
X4795113Y5372354D01*
X4780686Y5372354D01*
X4766411Y5370576D01*
X4762296Y5369509D01*
X4758842Y5369255D01*
X4755438Y5370169D01*
X4752594Y5372150D01*
X4736947Y5387797D01*
X4734763Y5391048D01*
X4734001Y5394909D01*
X4734763Y5398820D01*
X4736896Y5402122D01*
X4740148Y5404307D01*
X4744008Y5405120D01*
X4747920Y5404408D01*
X4752441Y5402630D01*
X4766411Y5399024D01*
X4780686Y5397246D01*
X4795113Y5397246D01*
X4809388Y5399024D01*
X4823358Y5402630D01*
X4836769Y5407914D01*
X4849418Y5414873D01*
X4861052Y5423357D01*
X4871567Y5433212D01*
X4880762Y5444337D01*
X4888484Y5456478D01*
X4894630Y5469534D01*
X4899101Y5483250D01*
X4901793Y5497423D01*
X4902708Y5511800D01*
X4901793Y5526176D01*
X4899101Y5540349D01*
X4894630Y5554065D01*
X4888484Y5567121D01*
X4880762Y5579262D01*
X4871567Y5590387D01*
X4861052Y5600242D01*
X4849418Y5608726D01*
X4836769Y5615686D01*
X4823358Y5620969D01*
X4809388Y5624576D01*
X4795113Y5626354D01*
X4780686Y5626354D01*
X4766411Y5624576D01*
X4752441Y5620969D01*
X4739030Y5615686D01*
X4726381Y5608726D01*
X4714748Y5600242D01*
X4704232Y5590387D01*
X4695037Y5579262D01*
X4687316Y5567121D01*
X4681169Y5554065D01*
X4676698Y5540349D01*
X4674006Y5526176D01*
X4673092Y5511800D01*
X4674006Y5497423D01*
X4676698Y5483250D01*
X4680610Y5471363D01*
X4681016Y5466892D01*
X4679442Y5462676D01*
X4676241Y5459526D01*
X4671974Y5458104D01*
X4667554Y5458612D01*
X4663744Y5461050D01*
X4510735Y5614060D01*
X4506976Y5617464D01*
X4503115Y5620461D01*
X4499000Y5623052D01*
X4494682Y5625338D01*
X4490161Y5627166D01*
X4485487Y5628640D01*
X4480763Y5629706D01*
X4475886Y5630367D01*
X4470806Y5630570D01*
X4056126Y5630570D01*
X4051960Y5631434D01*
X4048556Y5633974D01*
X4046423Y5637631D01*
X4046016Y5641898D01*
X4047388Y5645912D01*
X4053535Y5656275D01*
X4058818Y5668822D01*
X4062425Y5681980D01*
X4064254Y5695492D01*
X4064254Y5709107D01*
X4062425Y5722620D01*
X4058818Y5735777D01*
X4053535Y5748324D01*
X4047744Y5758027D01*
X4046423Y5762091D01*
X4046829Y5766308D01*
X4048912Y5770016D01*
X4052366Y5772505D01*
X4056481Y5773369D01*
X4597196Y5773369D01*
X4602276Y5773623D01*
X4607102Y5774232D01*
X4611878Y5775299D01*
X4616500Y5776772D01*
X4621022Y5778652D01*
X4625340Y5780887D01*
X4629454Y5783529D01*
X4633315Y5786475D01*
X4637074Y5789930D01*
X4663744Y5816549D01*
X4667504Y5818936D01*
X4671974Y5819495D01*
X4676241Y5818022D01*
X4679442Y5814923D01*
X4681016Y5810707D01*
X4680559Y5806236D01*
X4676698Y5794349D01*
X4674006Y5780176D01*
X4673092Y5765800D01*
X4674006Y5751423D01*
X4676698Y5737250D01*
X4681169Y5723534D01*
X4687316Y5710478D01*
X4695037Y5698337D01*
X4704232Y5687212D01*
X4714748Y5677357D01*
X4726381Y5668873D01*
X4739030Y5661914D01*
X4752441Y5656630D01*
X4766411Y5653024D01*
X4780686Y5651246D01*
X4795113Y5651246D01*
X4809388Y5653024D01*
X4823358Y5656630D01*
X4836769Y5661914D01*
X4849418Y5668873D01*
X4861052Y5677357D01*
X4871567Y5687212D01*
X4880762Y5698337D01*
X4888484Y5710478D01*
X4894630Y5723534D01*
X4899101Y5737250D01*
X4901793Y5751423D01*
X4902708Y5765800D01*
X4901793Y5780176D01*
X4899101Y5794349D01*
X4894630Y5808065D01*
X4888484Y5821121D01*
X4880762Y5833262D01*
X4871567Y5844387D01*
X4861052Y5854242D01*
X4849418Y5862726D01*
X4836769Y5869686D01*
X4823358Y5874969D01*
X4809388Y5878576D01*
X4795113Y5880354D01*
X4780686Y5880354D01*
X4766411Y5878576D01*
X4752441Y5874969D01*
X4747920Y5873191D01*
X4744008Y5872480D01*
X4740148Y5873292D01*
X4736896Y5875528D01*
X4734763Y5878779D01*
X4734001Y5882690D01*
X4734763Y5886551D01*
X4736998Y5889802D01*
X4752594Y5905449D01*
X4755438Y5907430D01*
X4758842Y5908344D01*
X4762296Y5908090D01*
X4766411Y5907024D01*
X4780686Y5905246D01*
X4795113Y5905246D01*
X4809388Y5907024D01*
X4823358Y5910630D01*
X4836769Y5915914D01*
X4849418Y5922873D01*
X4861052Y5931357D01*
X4871567Y5941212D01*
X4880762Y5952337D01*
X4888484Y5964478D01*
X4894630Y5977534D01*
X4899101Y5991250D01*
X4901793Y6005423D01*
X4902708Y6019800D01*
X4901793Y6034176D01*
X4899101Y6048349D01*
X4894630Y6062065D01*
X4888484Y6075121D01*
X4880762Y6087262D01*
X4871567Y6098387D01*
X4861052Y6108242D01*
X4849418Y6116726D01*
X4836769Y6123686D01*
X4823358Y6128969D01*
X4809388Y6132576D01*
X4795113Y6134354D01*
X4780686Y6134354D01*
X4766411Y6132576D01*
X4752441Y6128969D01*
X4739030Y6123686D01*
X4726381Y6116726D01*
X4714748Y6108242D01*
X4704232Y6098387D01*
X4695037Y6087262D01*
X4687316Y6075121D01*
X4681169Y6062065D01*
X4676698Y6048349D01*
X4674006Y6034176D01*
X4673092Y6019800D01*
X4674006Y6005423D01*
X4676292Y5993536D01*
X4676394Y5990234D01*
X4675428Y5987135D01*
X4673498Y5984443D01*
X4577232Y5888177D01*
X4573930Y5885992D01*
X4570018Y5885180D01*
X4056481Y5885180D01*
X4052366Y5886094D01*
X4048912Y5888583D01*
X4046829Y5892292D01*
X4046423Y5896508D01*
X4047744Y5900521D01*
X4053535Y5910275D01*
X4058818Y5922822D01*
X4062425Y5935980D01*
X4064254Y5949492D01*
X4064254Y5963107D01*
X4062425Y5976620D01*
X4058818Y5989777D01*
X4053535Y6002324D01*
X4046575Y6014059D01*
X4038092Y6024778D01*
X4028287Y6034278D01*
X4017314Y6042355D01*
X4005376Y6048908D01*
X3992626Y6053785D01*
X3979367Y6056985D01*
X3965803Y6058306D01*
X3952189Y6057849D01*
X3938727Y6055614D01*
X3925722Y6051550D01*
X3913327Y6045809D01*
X3901846Y6038494D01*
X3891432Y6029706D01*
X3882288Y6019546D01*
X3874566Y6008319D01*
X3868420Y5996178D01*
X3863949Y5983274D01*
X3861206Y5969914D01*
X3860292Y5956300D01*
X3861206Y5942685D01*
X3863949Y5929325D01*
X3868420Y5916422D01*
X3874566Y5904280D01*
X3876751Y5901131D01*
X3878376Y5897067D01*
X3878173Y5892698D01*
X3876141Y5888786D01*
X3872636Y5886145D01*
X3868369Y5885180D01*
X3815791Y5885180D01*
X3812032Y5885942D01*
X3808831Y5887974D01*
X3802837Y5893663D01*
X3799027Y5896559D01*
X3794912Y5899200D01*
X3790594Y5901436D01*
X3786073Y5903315D01*
X3781399Y5904788D01*
X3776675Y5905855D01*
X3771798Y5906465D01*
X3766718Y5906668D01*
X3687572Y5906668D01*
X3682492Y5906465D01*
X3677615Y5905855D01*
X3672890Y5904788D01*
X3668217Y5903315D01*
X3663746Y5901436D01*
X3659378Y5899200D01*
X3655263Y5896559D01*
X3651402Y5893612D01*
X3647643Y5890158D01*
X3507892Y5750407D01*
X3504590Y5748172D01*
X3500729Y5747410D01*
X3496818Y5748172D01*
X3493515Y5750407D01*
X3491331Y5753709D01*
X3490569Y5757570D01*
X3490569Y6086348D01*
X3490315Y6091428D01*
X3489706Y6096254D01*
X3488639Y6101029D01*
X3487165Y6105652D01*
X3485286Y6110173D01*
X3483051Y6114491D01*
X3480409Y6118606D01*
X3477463Y6122466D01*
X3474008Y6126226D01*
X3337255Y6262979D01*
X3334054Y6266992D01*
X3333140Y6270955D01*
X3333851Y6274917D01*
X3336036Y6278321D01*
X3339337Y6280607D01*
X3343300Y6281369D01*
X3868369Y6281369D01*
X3872636Y6280454D01*
X3876090Y6277813D01*
X3878173Y6273901D01*
X3878376Y6269532D01*
X3876751Y6265468D01*
X3874566Y6262319D01*
X3868420Y6250178D01*
X3863949Y6237274D01*
X3861206Y6223914D01*
X3860292Y6210300D01*
X3861206Y6196685D01*
X3863949Y6183325D01*
X3868420Y6170422D01*
X3874566Y6158280D01*
X3882288Y6147054D01*
X3891432Y6136894D01*
X3901846Y6128105D01*
X3913327Y6120790D01*
X3925722Y6115050D01*
X3938727Y6110986D01*
X3952189Y6108750D01*
X3965803Y6108293D01*
X3979367Y6109614D01*
X3992626Y6112814D01*
X4005376Y6117691D01*
X4017314Y6124244D01*
X4028287Y6132322D01*
X4038092Y6141821D01*
X4046575Y6152540D01*
X4053535Y6164275D01*
X4058818Y6176822D01*
X4062425Y6189980D01*
X4064254Y6203492D01*
X4064254Y6217107D01*
X4062425Y6230620D01*
X4058818Y6243777D01*
X4053535Y6256324D01*
X4047744Y6266027D01*
X4046423Y6270091D01*
X4046829Y6274308D01*
X4048912Y6278016D01*
X4052366Y6280505D01*
X4056481Y6281369D01*
X4663084Y6281369D01*
X4666843Y6280658D01*
X4670044Y6278626D01*
X4672279Y6275578D01*
X4673244Y6271869D01*
X4674006Y6259423D01*
X4676698Y6245250D01*
X4681169Y6231534D01*
X4687316Y6218478D01*
X4695037Y6206337D01*
X4704232Y6195212D01*
X4714748Y6185357D01*
X4726381Y6176873D01*
X4739030Y6169914D01*
X4752441Y6164630D01*
X4766411Y6161024D01*
X4780686Y6159246D01*
X4795113Y6159246D01*
X4809388Y6161024D01*
X4823358Y6164630D01*
X4836769Y6169914D01*
X4849418Y6176873D01*
X4861052Y6185357D01*
X4871567Y6195212D01*
X4880762Y6206337D01*
X4888484Y6218478D01*
X4894630Y6231534D01*
X4899101Y6245250D01*
X4901793Y6259423D01*
X4902708Y6273800D01*
X4901793Y6288176D01*
X4899101Y6302349D01*
X4894630Y6316065D01*
X4888484Y6329121D01*
X4880762Y6341262D01*
X4871567Y6352387D01*
X4861052Y6362242D01*
X4849418Y6370726D01*
X4836769Y6377686D01*
X4823358Y6382969D01*
X4809388Y6386576D01*
X4795113Y6388354D01*
X4780686Y6388354D01*
X4766411Y6386576D01*
X4759655Y6384798D01*
X4755946Y6384594D01*
X4752390Y6385661D01*
X4748022Y6387947D01*
X4743500Y6389827D01*
X4738878Y6391300D01*
X4734102Y6392367D01*
X4729276Y6392976D01*
X4724196Y6393180D01*
X4056481Y6393180D01*
X4052366Y6394094D01*
X4048912Y6396583D01*
X4046829Y6400292D01*
X4046423Y6404508D01*
X4047744Y6408521D01*
X4053535Y6418275D01*
X4058818Y6430822D01*
X4062425Y6443980D01*
X4064254Y6457492D01*
X4064254Y6471107D01*
X4062425Y6484620D01*
X4058818Y6497777D01*
X4053535Y6510324D01*
X4046575Y6522059D01*
X4038092Y6532778D01*
X4028287Y6542278D01*
X4017314Y6550355D01*
X4005376Y6556908D01*
X3992626Y6561785D01*
X3979367Y6564985D01*
X3965803Y6566306D01*
X3952189Y6565849D01*
X3938727Y6563614D01*
X3925722Y6559550D01*
X3913327Y6553809D01*
X3901846Y6546494D01*
X3891432Y6537706D01*
X3882288Y6527546D01*
X3874566Y6516319D01*
X3868420Y6504178D01*
X3863949Y6491274D01*
X3861206Y6477914D01*
X3860292Y6464300D01*
X3861206Y6450685D01*
X3863949Y6437325D01*
X3868420Y6424422D01*
X3874566Y6412280D01*
X3876751Y6409131D01*
X3878376Y6405067D01*
X3878173Y6400698D01*
X3876141Y6396786D01*
X3872636Y6394145D01*
X3868369Y6393180D01*
X3337102Y6393180D01*
X3333648Y6393840D01*
X3325520Y6399022D01*
X3321202Y6401257D01*
X3316681Y6403136D01*
X3312058Y6404610D01*
X3307283Y6405676D01*
X3302457Y6406286D01*
X3297377Y6406489D01*
X3259632Y6406489D01*
X3255721Y6407302D01*
X3252419Y6409537D01*
X3250234Y6412839D01*
X3249472Y6416751D01*
X3250285Y6420662D01*
X3252520Y6423914D01*
X3257753Y6429044D01*
X3260801Y6433870D01*
X3262680Y6439357D01*
X3263442Y6445656D01*
X3263442Y6474663D01*
X3264103Y6478371D01*
X3266084Y6481521D01*
X3269081Y6483807D01*
X3272688Y6484823D01*
X3276396Y6484467D01*
X3284423Y6482130D01*
X3294938Y6480860D01*
X3305505Y6481267D01*
X3315919Y6483400D01*
X3325825Y6487160D01*
X3335020Y6492443D01*
X3343198Y6499148D01*
X3350260Y6507073D01*
X3355898Y6516065D01*
X3360064Y6525818D01*
X3362604Y6536080D01*
X3363468Y6546646D01*
X3362604Y6557213D01*
X3360064Y6567525D01*
X3355898Y6577279D01*
X3353866Y6581241D01*
X3353511Y6584035D01*
X3353511Y6731152D01*
X3352596Y6741312D01*
X3350107Y6750710D01*
X3345942Y6759549D01*
X3340404Y6767525D01*
X3335832Y6772046D01*
X3333648Y6775348D01*
X3332886Y6779209D01*
X3333648Y6783120D01*
X3335832Y6786422D01*
X3339134Y6788607D01*
X3343046Y6789369D01*
X3868369Y6789369D01*
X3872636Y6788454D01*
X3876090Y6785813D01*
X3878173Y6781901D01*
X3878376Y6777532D01*
X3876751Y6773468D01*
X3874566Y6770319D01*
X3868420Y6758178D01*
X3863949Y6745274D01*
X3861206Y6731914D01*
X3860292Y6718300D01*
X3861206Y6704685D01*
X3863949Y6691325D01*
X3868420Y6678422D01*
X3874566Y6666280D01*
X3882288Y6655053D01*
X3891432Y6644894D01*
X3901846Y6636105D01*
X3913327Y6628790D01*
X3925722Y6623050D01*
X3938727Y6618986D01*
X3952189Y6616750D01*
X3965803Y6616293D01*
X3979367Y6617614D01*
X3992626Y6620814D01*
X4005376Y6625691D01*
X4017314Y6632244D01*
X4028287Y6640322D01*
X4038092Y6649821D01*
X4046575Y6660540D01*
X4053535Y6672275D01*
X4058818Y6684822D01*
X4062425Y6697980D01*
X4064254Y6711492D01*
X4064254Y6725107D01*
X4062425Y6738620D01*
X4058818Y6751777D01*
X4053535Y6764324D01*
X4047744Y6774027D01*
X4046423Y6778091D01*
X4046829Y6782308D01*
X4048912Y6786016D01*
X4052366Y6788505D01*
X4056481Y6789369D01*
X4454956Y6789369D01*
X4460036Y6789623D01*
X4464862Y6790232D01*
X4469638Y6791299D01*
X4474260Y6792772D01*
X4478782Y6794652D01*
X4483100Y6796887D01*
X4487214Y6799529D01*
X4491075Y6802475D01*
X4494834Y6805930D01*
X4795875Y7106970D01*
X4798263Y7108698D01*
X4811115Y7113524D01*
X4820310Y7118807D01*
X4828540Y7125512D01*
X4835550Y7133437D01*
X4841240Y7142429D01*
X4845405Y7152182D01*
X4847945Y7162444D01*
X4848758Y7173010D01*
X4847945Y7183577D01*
X4845405Y7193889D01*
X4841240Y7203643D01*
X4835550Y7212584D01*
X4828540Y7220559D01*
X4820310Y7227265D01*
X4811115Y7232548D01*
X4801209Y7236307D01*
X4790846Y7238441D01*
X4780229Y7238847D01*
X4769713Y7237577D01*
X4759553Y7234631D01*
X4749952Y7230059D01*
X4741214Y7224064D01*
X4733594Y7216698D01*
X4727244Y7208266D01*
X4722317Y7198868D01*
X4719370Y7190079D01*
X4716932Y7186117D01*
X4434992Y6904177D01*
X4431690Y6901992D01*
X4427778Y6901180D01*
X4056481Y6901180D01*
X4052366Y6902094D01*
X4048912Y6904583D01*
X4046829Y6908292D01*
X4046423Y6912508D01*
X4047744Y6916521D01*
X4053535Y6926275D01*
X4054195Y6927850D01*
X4006850Y6927850D01*
X4006850Y6911340D01*
X4006087Y6907479D01*
X4003852Y6904177D01*
X4000601Y6901992D01*
X3996690Y6901180D01*
X3928110Y6901180D01*
X3924198Y6901992D01*
X3920947Y6904177D01*
X3918712Y6907479D01*
X3917950Y6911340D01*
X3917950Y6927850D01*
X3870756Y6927850D01*
X3874566Y6920280D01*
X3876751Y6917131D01*
X3878376Y6913067D01*
X3878173Y6908698D01*
X3876141Y6904786D01*
X3872636Y6902145D01*
X3868369Y6901180D01*
X3337102Y6901180D01*
X3333648Y6901840D01*
X3325520Y6907022D01*
X3321202Y6909257D01*
X3316681Y6911136D01*
X3312058Y6912609D01*
X3307283Y6913676D01*
X3302457Y6914286D01*
X3297377Y6914489D01*
X3259632Y6914489D01*
X3255721Y6915302D01*
X3252419Y6917537D01*
X3250234Y6920839D01*
X3249472Y6924751D01*
X3250285Y6928662D01*
X3252520Y6931914D01*
X3257753Y6937044D01*
X3260801Y6941870D01*
X3262680Y6947357D01*
X3263442Y6953656D01*
X3263442Y6963003D01*
X3193846Y6963003D01*
X3193846Y6927189D01*
X3193084Y6923278D01*
X3190900Y6919975D01*
X3187598Y6917791D01*
X3183686Y6917029D01*
X3091332Y6917029D01*
X3087420Y6917791D01*
X3084118Y6919975D01*
X3081934Y6923278D01*
X3081172Y6927189D01*
X3081172Y6963003D01*
X3011627Y6963003D01*
X3011627Y6953656D01*
X3012338Y6947357D01*
X3014218Y6941870D01*
X3017266Y6937044D01*
X3022498Y6931914D01*
X3024733Y6928662D01*
X3025546Y6924751D01*
X3024784Y6920839D01*
X3022600Y6917537D01*
X3019298Y6915302D01*
X3015386Y6914489D01*
X2977642Y6914489D01*
X2972562Y6914286D01*
X2967736Y6913676D01*
X2962960Y6912609D01*
X2958338Y6911136D01*
X2953816Y6909257D01*
X2949498Y6907022D01*
X2945384Y6904380D01*
X2941523Y6901434D01*
X2937764Y6897979D01*
X2517749Y6477965D01*
X2514346Y6474256D01*
X2510790Y6469583D01*
X2507640Y6466840D01*
X2503627Y6465570D01*
X2499461Y6466078D01*
X2495854Y6468211D01*
X2493416Y6471615D01*
X2492552Y6475679D01*
X2492552Y6880352D01*
X2492298Y6885431D01*
X2491689Y6890258D01*
X2490622Y6895033D01*
X2489149Y6899656D01*
X2487269Y6904177D01*
X2485034Y6908495D01*
X2482392Y6912609D01*
X2479446Y6916470D01*
X2475992Y6920230D01*
X2372207Y7024014D01*
X2369972Y7027418D01*
X2369261Y7031431D01*
X2370124Y7035393D01*
X2372563Y7038695D01*
X2376017Y7040829D01*
X2379319Y7041946D01*
X2384501Y7044232D01*
X2389530Y7046874D01*
X2394356Y7049871D01*
X2398928Y7053275D01*
X2403195Y7056983D01*
X2407208Y7060996D01*
X2410917Y7065264D01*
X2414320Y7069836D01*
X2417318Y7074662D01*
X2419959Y7079691D01*
X2422245Y7084872D01*
X2424125Y7090257D01*
X2425598Y7095693D01*
X2426614Y7101281D01*
X2427274Y7106920D01*
X2427478Y7112812D01*
X2427478Y7479995D01*
X2428240Y7483805D01*
X2430322Y7487005D01*
X2433472Y7489240D01*
X2437180Y7490155D01*
X2441549Y7489393D01*
X2447848Y7488681D01*
X2480970Y7488681D01*
X2480970Y7548270D01*
X2437638Y7548270D01*
X2433777Y7549032D01*
X2430475Y7551216D01*
X2428290Y7554518D01*
X2427478Y7558430D01*
X2427478Y7630769D01*
X2428290Y7634681D01*
X2430475Y7637983D01*
X2433777Y7640167D01*
X2437638Y7640929D01*
X2480970Y7640929D01*
X2480970Y7665821D01*
X2481732Y7669733D01*
X2483916Y7673035D01*
X2487218Y7675219D01*
X2491130Y7675981D01*
X2563469Y7675981D01*
X2567381Y7675219D01*
X2570683Y7673035D01*
X2572867Y7669733D01*
X2573629Y7665821D01*
X2573629Y7640929D01*
X2633218Y7640929D01*
X2633218Y7643672D01*
X2633980Y7647533D01*
X2636164Y7650835D01*
X2639466Y7653020D01*
X2643378Y7653832D01*
X2647238Y7653020D01*
X2650540Y7650835D01*
X2672435Y7628991D01*
X2674620Y7625689D01*
X2675382Y7621778D01*
X2675382Y7515148D01*
X2676093Y7508849D01*
X2678023Y7503363D01*
X2681071Y7498486D01*
X2685186Y7494371D01*
X2690063Y7491323D01*
X2699918Y7488224D01*
X2702814Y7485989D01*
X2704744Y7482840D01*
X2705404Y7479233D01*
X2705455Y7431836D01*
X2706268Y7422997D01*
X2706674Y7420559D01*
X2708808Y7411923D01*
X2712974Y7401407D01*
X2714091Y7399223D01*
X2720136Y7389571D01*
X2725775Y7382713D01*
X2878531Y7229906D01*
X2880766Y7226604D01*
X2881528Y7222744D01*
X2881528Y7112812D01*
X2881731Y7106920D01*
X2882392Y7101281D01*
X2883408Y7095693D01*
X2884881Y7090257D01*
X2886760Y7084872D01*
X2889046Y7079691D01*
X2891688Y7074662D01*
X2894736Y7069836D01*
X2898089Y7065264D01*
X2901797Y7060996D01*
X2905810Y7056983D01*
X2910078Y7053275D01*
X2914650Y7049871D01*
X2919476Y7046874D01*
X2924505Y7044232D01*
X2929686Y7041946D01*
X2935071Y7040067D01*
X2940558Y7038594D01*
X2946095Y7037578D01*
X2951734Y7036917D01*
X2957626Y7036714D01*
X3002483Y7036714D01*
X3006648Y7035800D01*
X3010103Y7033259D01*
X3012186Y7029551D01*
X3012592Y7025284D01*
X3011627Y7017461D01*
X3011627Y7008215D01*
X3081172Y7008215D01*
X3081172Y7026554D01*
X3081934Y7030415D01*
X3084118Y7033717D01*
X3087420Y7035901D01*
X3091332Y7036714D01*
X3183686Y7036714D01*
X3187598Y7035901D01*
X3190900Y7033717D01*
X3193084Y7030415D01*
X3193846Y7026554D01*
X3193846Y7008215D01*
X3263442Y7008215D01*
X3263442Y7017461D01*
X3262426Y7025284D01*
X3262833Y7029551D01*
X3264915Y7033259D01*
X3268370Y7035800D01*
X3272536Y7036714D01*
X3317392Y7036714D01*
X3323285Y7036917D01*
X3328924Y7037578D01*
X3334512Y7038594D01*
X3339947Y7040067D01*
X3345332Y7041946D01*
X3350514Y7044232D01*
X3355543Y7046874D01*
X3360369Y7049871D01*
X3364941Y7053275D01*
X3369208Y7056983D01*
X3373221Y7060996D01*
X3376929Y7065264D01*
X3380333Y7069836D01*
X3383330Y7074662D01*
X3385972Y7079691D01*
X3388258Y7084872D01*
X3390137Y7090257D01*
X3391611Y7095693D01*
X3392627Y7101281D01*
X3393287Y7106920D01*
X3393490Y7112812D01*
X3393490Y7561834D01*
X3394303Y7565745D01*
X3396487Y7569047D01*
X3857244Y8029752D01*
X3860546Y8031988D01*
X3864406Y8032750D01*
X3917950Y8032750D01*
X3917950Y8086293D01*
X3918712Y8090153D01*
X3920947Y8093456D01*
X3965397Y8137906D01*
X3968191Y8139938D01*
X3971544Y8140852D01*
X3979367Y8141614D01*
X3992626Y8144814D01*
X4005376Y8149691D01*
X4017314Y8156244D01*
X4028287Y8164322D01*
X4038092Y8173821D01*
X4046575Y8184540D01*
X4053535Y8196275D01*
X4058818Y8208822D01*
X4062425Y8221980D01*
X4064254Y8235492D01*
X4064254Y8249107D01*
X4062425Y8262620D01*
X4058818Y8275777D01*
X4053535Y8288324D01*
X4046575Y8300059D01*
X4038092Y8310778D01*
X4028287Y8320278D01*
X4017314Y8328355D01*
X4005376Y8334908D01*
X3992626Y8339785D01*
X3979367Y8342985D01*
X3965803Y8344306D01*
X3952189Y8343849D01*
X3938727Y8341614D01*
X3925722Y8337550D01*
X3913327Y8331809D01*
X3901846Y8324494D01*
X3891432Y8315706D01*
X3882288Y8305546D01*
X3874566Y8294319D01*
X3868420Y8282178D01*
X3863949Y8269274D01*
X3861206Y8255914D01*
X3860952Y8251748D01*
X3860037Y8248243D01*
X3858006Y8245246D01*
X3262071Y7649260D01*
X3255010Y7640421D01*
X3250387Y7632801D01*
X3249269Y7630617D01*
X3245104Y7620050D01*
X3242970Y7611414D01*
X3242564Y7608976D01*
X3241751Y7600137D01*
X3241700Y7198664D01*
X3240938Y7194803D01*
X3238703Y7191502D01*
X3235401Y7189266D01*
X3231540Y7188504D01*
X3043478Y7188504D01*
X3039618Y7189266D01*
X3036316Y7191502D01*
X3034131Y7194803D01*
X3033318Y7198664D01*
X3033268Y7261047D01*
X3032455Y7269886D01*
X3032048Y7272324D01*
X3029915Y7280909D01*
X3029153Y7283246D01*
X3025749Y7291476D01*
X3024632Y7293660D01*
X3018586Y7303312D01*
X3012948Y7310120D01*
X2860192Y7462977D01*
X2858008Y7466279D01*
X2857195Y7470140D01*
X2857195Y7479233D01*
X2857855Y7482840D01*
X2859786Y7485989D01*
X2862732Y7488224D01*
X2867050Y7489393D01*
X2872536Y7491323D01*
X2877413Y7494371D01*
X2881528Y7498486D01*
X2884576Y7503363D01*
X2886506Y7508849D01*
X2887218Y7515148D01*
X2887218Y7674051D01*
X2886506Y7680350D01*
X2884576Y7685836D01*
X2881528Y7690713D01*
X2877413Y7694828D01*
X2872536Y7697876D01*
X2867050Y7699806D01*
X2860751Y7700518D01*
X2819806Y7700518D01*
X2815894Y7701280D01*
X2812592Y7703464D01*
X2708605Y7807401D01*
X2701747Y7813090D01*
X2699766Y7814513D01*
X2692146Y7819085D01*
X2689961Y7820202D01*
X2681732Y7823606D01*
X2679395Y7824368D01*
X2670759Y7826502D01*
X2668320Y7826908D01*
X2659481Y7827772D01*
X2412796Y7827772D01*
X2403957Y7826908D01*
X2401519Y7826502D01*
X2392934Y7824368D01*
X2390597Y7823606D01*
X2382367Y7820202D01*
X2380183Y7819085D01*
X2372563Y7814513D01*
X2370531Y7813090D01*
X2363724Y7807401D01*
X2296058Y7739786D01*
X2288997Y7730947D01*
X2284374Y7723327D01*
X2283256Y7721142D01*
X2279091Y7710576D01*
X2276957Y7701940D01*
X2276551Y7699502D01*
X2275738Y7690662D01*
X2275687Y7198664D01*
X2274925Y7194803D01*
X2272690Y7191502D01*
X2269388Y7189266D01*
X2265527Y7188504D01*
X1991614Y7188504D01*
X1985721Y7188301D01*
X1980082Y7187641D01*
X1974545Y7186625D01*
X1969058Y7185152D01*
X1963674Y7183272D01*
X1958492Y7180986D01*
X1953463Y7178344D01*
X1948637Y7175296D01*
X1944065Y7171944D01*
X1939798Y7168235D01*
X1935784Y7164222D01*
X1932076Y7159955D01*
X1928723Y7155383D01*
X1925675Y7150557D01*
X1923034Y7145528D01*
X1920748Y7140346D01*
X1918868Y7134961D01*
X1917395Y7129475D01*
X1916379Y7123938D01*
X1915718Y7118299D01*
X1915515Y7112406D01*
X1915515Y7039609D01*
X1916379Y7027925D01*
X1918919Y7016902D01*
X1923034Y7006336D01*
X1928723Y6996531D01*
X1935784Y6987641D01*
X1944116Y6979920D01*
X1953463Y6973519D01*
X1963674Y6968642D01*
X1974545Y6965289D01*
X1985721Y6963562D01*
X1997100Y6963562D01*
X2008276Y6965289D01*
X2019147Y6968642D01*
X2029714Y6973773D01*
X2033778Y6975398D01*
X2038146Y6975195D01*
X2042007Y6973163D01*
X2044649Y6969658D01*
X2045614Y6965391D01*
X2045614Y6953656D01*
X2046325Y6947357D01*
X2048205Y6941870D01*
X2051253Y6937044D01*
X2056485Y6931914D01*
X2058720Y6928662D01*
X2059533Y6924751D01*
X2058771Y6920839D01*
X2056587Y6917537D01*
X2053285Y6915302D01*
X2049373Y6914489D01*
X1816912Y6914489D01*
X1811832Y6914286D01*
X1807006Y6913676D01*
X1802231Y6912609D01*
X1797608Y6911136D01*
X1793087Y6909257D01*
X1788769Y6907022D01*
X1784654Y6904380D01*
X1780793Y6901434D01*
X1777034Y6897979D01*
X1700987Y6821931D01*
X1697228Y6819544D01*
X1692808Y6819036D01*
X1679803Y6820306D01*
X1666189Y6819849D01*
X1652727Y6817614D01*
X1639722Y6813550D01*
X1627327Y6807809D01*
X1615846Y6800494D01*
X1605432Y6791706D01*
X1596288Y6781546D01*
X1588566Y6770319D01*
X1582420Y6758178D01*
X1577949Y6745274D01*
X1575206Y6731914D01*
X1574292Y6718300D01*
X1575206Y6704685D01*
X1577949Y6691325D01*
X1582420Y6678422D01*
X1588566Y6666280D01*
X1596288Y6655053D01*
X1605432Y6644894D01*
X1615846Y6636105D01*
X1627327Y6628790D01*
X1639722Y6623050D01*
X1652727Y6618986D01*
X1666189Y6616750D01*
X1679803Y6616293D01*
X1693367Y6617614D01*
X1706625Y6620814D01*
X1719376Y6625691D01*
X1731314Y6632244D01*
X1742287Y6640322D01*
X1752092Y6649821D01*
X1760575Y6660540D01*
X1767535Y6672275D01*
X1772818Y6684822D01*
X1776425Y6697980D01*
X1778254Y6711492D01*
X1778254Y6725107D01*
X1777034Y6734200D01*
X1777085Y6737299D01*
X1778101Y6740245D01*
X1779930Y6742734D01*
X1836877Y6799732D01*
X1840179Y6801916D01*
X1844090Y6802678D01*
X1986076Y6802678D01*
X1989937Y6801916D01*
X1993239Y6799732D01*
X1995424Y6796430D01*
X1996236Y6792518D01*
X1995424Y6788658D01*
X1993239Y6785356D01*
X1989937Y6783171D01*
X1983486Y6780022D01*
X1979371Y6777380D01*
X1975510Y6774434D01*
X1971751Y6770979D01*
X1854504Y6653784D01*
X1851101Y6650024D01*
X1848104Y6646164D01*
X1845564Y6642100D01*
X1843938Y6638899D01*
X1841703Y6635902D01*
X1838502Y6633921D01*
X1834845Y6633260D01*
X1789684Y6633260D01*
X1784604Y6633057D01*
X1779727Y6632397D01*
X1775002Y6631330D01*
X1770329Y6629857D01*
X1765858Y6628028D01*
X1761489Y6625742D01*
X1757375Y6623151D01*
X1753514Y6620154D01*
X1749755Y6616750D01*
X1700987Y6567931D01*
X1697228Y6565544D01*
X1692808Y6565036D01*
X1679803Y6566306D01*
X1666189Y6565849D01*
X1652727Y6563614D01*
X1639722Y6559550D01*
X1627327Y6553809D01*
X1615846Y6546494D01*
X1605432Y6537706D01*
X1596288Y6527546D01*
X1588566Y6516319D01*
X1582420Y6504178D01*
X1577949Y6491274D01*
X1575206Y6477914D01*
X1574292Y6464300D01*
X1575206Y6450685D01*
X1577949Y6437325D01*
X1582420Y6424422D01*
X1588566Y6412280D01*
X1596288Y6401054D01*
X1605432Y6390894D01*
X1615846Y6382105D01*
X1627327Y6374790D01*
X1639722Y6369050D01*
X1652727Y6364986D01*
X1666189Y6362750D01*
X1679803Y6362293D01*
X1693367Y6363614D01*
X1706625Y6366814D01*
X1719376Y6371691D01*
X1731314Y6378244D01*
X1742287Y6386322D01*
X1752092Y6395821D01*
X1760575Y6406540D01*
X1767535Y6418275D01*
X1772818Y6430822D01*
X1776425Y6443980D01*
X1778254Y6457492D01*
X1778254Y6471107D01*
X1777034Y6480200D01*
X1777085Y6483299D01*
X1778101Y6486245D01*
X1779930Y6488734D01*
X1809648Y6518452D01*
X1812950Y6520688D01*
X1816811Y6521450D01*
X1856282Y6521450D01*
X1860651Y6520484D01*
X1870557Y6515760D01*
X1880717Y6512814D01*
X1891233Y6511544D01*
X1901850Y6511950D01*
X1912213Y6514084D01*
X1922119Y6517843D01*
X1931314Y6523126D01*
X1938934Y6529374D01*
X1942287Y6531152D01*
X1946046Y6531609D01*
X1949704Y6530644D01*
X1952802Y6528409D01*
X1954834Y6525209D01*
X1955495Y6521500D01*
X1955495Y5810707D01*
X1954733Y5806795D01*
X1952548Y5803493D01*
X1700987Y5551932D01*
X1697228Y5549544D01*
X1692808Y5549036D01*
X1679803Y5550306D01*
X1666189Y5549849D01*
X1652727Y5547614D01*
X1639722Y5543550D01*
X1627327Y5537809D01*
X1615846Y5530494D01*
X1605432Y5521706D01*
X1596288Y5511546D01*
X1588566Y5500319D01*
X1582420Y5488178D01*
X1577949Y5475274D01*
X1575206Y5461914D01*
X1574292Y5448300D01*
X1575206Y5434685D01*
X1577949Y5421325D01*
X1582420Y5408422D01*
X1588566Y5396280D01*
X1596288Y5385054D01*
X1605432Y5374894D01*
X1615846Y5366105D01*
X1627327Y5358790D01*
X1639722Y5353050D01*
X1652727Y5348986D01*
X1666189Y5346750D01*
X1679803Y5346293D01*
X1693367Y5347614D01*
X1706625Y5350814D01*
X1719376Y5355691D01*
X1731314Y5362244D01*
X1742287Y5370322D01*
X1752092Y5379821D01*
X1760575Y5390540D01*
X1767535Y5402275D01*
X1772818Y5414822D01*
X1776425Y5427980D01*
X1778254Y5441492D01*
X1778254Y5455107D01*
X1777034Y5464200D01*
X1777085Y5467299D01*
X1778101Y5470245D01*
X1779930Y5472734D01*
X2050796Y5743651D01*
X2054250Y5747410D01*
X2057196Y5751271D01*
X2059838Y5755386D01*
X2062073Y5759704D01*
X2063953Y5764225D01*
X2065426Y5768848D01*
X2066493Y5773623D01*
X2067102Y5778449D01*
X2067356Y5783529D01*
X2067356Y5901029D01*
X2068118Y5904941D01*
X2070303Y5908192D01*
X2073605Y5910427D01*
X2077516Y5911189D01*
X2115159Y5911189D01*
X2115159Y5947003D01*
X2077516Y5947003D01*
X2073605Y5947765D01*
X2070303Y5949950D01*
X2068118Y5953252D01*
X2067356Y5957163D01*
X2067356Y5982055D01*
X2068118Y5985916D01*
X2070303Y5989218D01*
X2073605Y5991402D01*
X2077516Y5992215D01*
X2115159Y5992215D01*
X2115159Y6028029D01*
X2115921Y6031941D01*
X2118156Y6035192D01*
X2121408Y6037427D01*
X2125319Y6038189D01*
X2217674Y6038189D01*
X2221585Y6037427D01*
X2224887Y6035192D01*
X2227072Y6031941D01*
X2227834Y6028029D01*
X2227834Y5992215D01*
X2265527Y5992215D01*
X2269388Y5991402D01*
X2272690Y5989218D01*
X2274874Y5985916D01*
X2275687Y5982055D01*
X2275687Y5957163D01*
X2274925Y5953302D01*
X2272741Y5950000D01*
X2269439Y5947765D01*
X2265527Y5947003D01*
X2227834Y5947003D01*
X2227834Y5911189D01*
X2270912Y5911189D01*
X2277262Y5911900D01*
X2282799Y5912866D01*
X2286863Y5911646D01*
X2290064Y5908802D01*
X2297176Y5899150D01*
X2304796Y5891834D01*
X2313533Y5885789D01*
X2317292Y5884011D01*
X2320848Y5881268D01*
X2322830Y5877255D01*
X2322880Y5872734D01*
X2321001Y5868670D01*
X2318004Y5864758D01*
X2315413Y5860643D01*
X2313127Y5856325D01*
X2311298Y5851804D01*
X2309825Y5847181D01*
X2308758Y5842406D01*
X2308098Y5837580D01*
X2307894Y5832500D01*
X2307894Y5750864D01*
X2306878Y5746140D01*
X2306116Y5739841D01*
X2306116Y5619394D01*
X2305354Y5615482D01*
X2303170Y5612231D01*
X2299868Y5609996D01*
X2296007Y5609234D01*
X2265476Y5609234D01*
X2260396Y5609031D01*
X2255520Y5608370D01*
X2250795Y5607304D01*
X2246122Y5605830D01*
X2241651Y5604002D01*
X2237282Y5601716D01*
X2233168Y5599125D01*
X2229307Y5596128D01*
X2225548Y5592724D01*
X1792071Y5159248D01*
X1788363Y5156860D01*
X1783994Y5156301D01*
X1779778Y5157622D01*
X1776577Y5160619D01*
X1774901Y5164683D01*
X1775104Y5169103D01*
X1776425Y5173980D01*
X1778254Y5187492D01*
X1778254Y5201107D01*
X1776425Y5214620D01*
X1772818Y5227777D01*
X1767535Y5240324D01*
X1760575Y5252059D01*
X1752092Y5262778D01*
X1742287Y5272278D01*
X1731314Y5280355D01*
X1719376Y5286908D01*
X1706625Y5291785D01*
X1693367Y5294985D01*
X1679803Y5296306D01*
X1666189Y5295849D01*
X1652727Y5293614D01*
X1639722Y5289550D01*
X1627327Y5283809D01*
X1619859Y5279034D01*
X1616710Y5277713D01*
X1613255Y5277510D01*
X1610004Y5278424D01*
X1607210Y5280406D01*
X1524406Y5363210D01*
X1522171Y5366512D01*
X1521409Y5370423D01*
X1521409Y8680602D01*
X1522171Y8684514D01*
X1524406Y8687816D01*
X1821078Y8984488D01*
X1824380Y8986672D01*
X1828241Y8987434D01*
X1873656Y8987434D01*
X1873656Y9032849D01*
X1874418Y9036761D01*
X1876602Y9040012D01*
X1884121Y9047530D01*
X1887423Y9049715D01*
X1891284Y9050477D01*
X1951583Y9050477D01*
X1955495Y9049715D01*
X1958797Y9047530D01*
X1960981Y9044228D01*
X1961743Y9040317D01*
X1961743Y8987434D01*
X2017572Y8987434D01*
X2015540Y8997594D01*
X2011273Y9010142D01*
X2005431Y9022029D01*
X1995576Y9036964D01*
X1995017Y9040774D01*
X1995932Y9044533D01*
X1998167Y9047683D01*
X2001418Y9049766D01*
X2005177Y9050477D01*
X2084222Y9050477D01*
X2087981Y9049766D01*
X2091232Y9047683D01*
X2093468Y9044533D01*
X2094382Y9040774D01*
X2093823Y9036964D01*
X2083968Y9022029D01*
X2078126Y9010142D01*
X2073859Y8997594D01*
X2071268Y8984640D01*
X2070404Y8971076D01*
X2070404Y8859723D01*
X2071268Y8846159D01*
X2073859Y8833205D01*
X2078126Y8820658D01*
X2083968Y8808770D01*
X2091334Y8797747D01*
X2100072Y8787790D01*
X2110028Y8779052D01*
X2121052Y8771686D01*
X2132939Y8765844D01*
X2145487Y8761577D01*
X2158492Y8758986D01*
X2171700Y8758123D01*
X2184908Y8758986D01*
X2197912Y8761577D01*
X2210460Y8765844D01*
X2222347Y8771686D01*
X2233371Y8779052D01*
X2243328Y8787790D01*
X2252065Y8797747D01*
X2259431Y8808770D01*
X2265273Y8820658D01*
X2269540Y8833205D01*
X2272131Y8846159D01*
X2272995Y8859723D01*
X2272995Y8964472D01*
X2273757Y8968384D01*
X2275992Y8971686D01*
X2279294Y8973870D01*
X2283155Y8974632D01*
X2287066Y8973870D01*
X2290368Y8971686D01*
X2321407Y8940596D01*
X2323642Y8937345D01*
X2324404Y8933434D01*
X2324404Y8859723D01*
X2325268Y8846159D01*
X2327859Y8833205D01*
X2332126Y8820658D01*
X2337968Y8808770D01*
X2345334Y8797747D01*
X2354072Y8787790D01*
X2364028Y8779052D01*
X2375052Y8771686D01*
X2386939Y8765844D01*
X2399487Y8761577D01*
X2412492Y8758986D01*
X2425700Y8758123D01*
X2438908Y8758986D01*
X2451912Y8761577D01*
X2464460Y8765844D01*
X2476347Y8771686D01*
X2487371Y8779052D01*
X2497328Y8787790D01*
X2506065Y8797747D01*
X2513431Y8808770D01*
X2519273Y8820658D01*
X2523540Y8833205D01*
X2526131Y8846159D01*
X2526995Y8859723D01*
X2526995Y8964472D01*
X2527757Y8968384D01*
X2529992Y8971686D01*
X2533294Y8973870D01*
X2537155Y8974632D01*
X2541066Y8973870D01*
X2544368Y8971686D01*
X2575407Y8940596D01*
X2577642Y8937345D01*
X2578404Y8933434D01*
X2578404Y8859723D01*
X2579268Y8846159D01*
X2581859Y8833205D01*
X2586126Y8820658D01*
X2591968Y8808770D01*
X2599334Y8797747D01*
X2608072Y8787790D01*
X2618028Y8779052D01*
X2629052Y8771686D01*
X2640939Y8765844D01*
X2653487Y8761577D01*
X2666492Y8758986D01*
X2679700Y8758123D01*
X2692908Y8758986D01*
X2705912Y8761577D01*
X2718460Y8765844D01*
X2730347Y8771686D01*
X2741371Y8779052D01*
X2751328Y8787790D01*
X2760065Y8797747D01*
X2767431Y8808770D01*
X2773273Y8820658D01*
X2777540Y8833205D01*
X2780131Y8846159D01*
X2780995Y8859723D01*
X2780995Y8971076D01*
X2780131Y8984640D01*
X2777540Y8997594D01*
X2773273Y9010142D01*
X2767431Y9022029D01*
X2760065Y9033052D01*
X2751328Y9043009D01*
X2741371Y9051747D01*
X2730347Y9059113D01*
X2718460Y9064955D01*
X2705912Y9069222D01*
X2692908Y9071813D01*
X2679700Y9072676D01*
X2666492Y9071813D01*
X2653487Y9069222D01*
X2640939Y9064955D01*
X2624429Y9056725D01*
X2620975Y9056471D01*
X2617622Y9057386D01*
X2614777Y9059418D01*
X2431034Y9243161D01*
X2427274Y9246565D01*
X2423414Y9249562D01*
X2419299Y9252153D01*
X2414981Y9254439D01*
X2410460Y9256268D01*
X2405786Y9257741D01*
X2401062Y9258808D01*
X2396185Y9259468D01*
X2391105Y9259671D01*
X1826463Y9259671D01*
X1821383Y9259468D01*
X1816506Y9258808D01*
X1811782Y9257741D01*
X1807108Y9256268D01*
X1802638Y9254439D01*
X1798269Y9252153D01*
X1794154Y9249562D01*
X1790293Y9246565D01*
X1786534Y9243161D01*
X1336141Y8792768D01*
X1332738Y8789009D01*
X1329740Y8785148D01*
X1327150Y8781034D01*
X1324864Y8776665D01*
X1323035Y8772194D01*
X1321562Y8767521D01*
X1320495Y8762796D01*
X1319834Y8757920D01*
X1319631Y8752840D01*
X1319631Y6899249D01*
X1318869Y6895388D01*
X1316634Y6892086D01*
X1313383Y6889851D01*
X1309471Y6889089D01*
X1305560Y6889851D01*
X1302308Y6892086D01*
X1246530Y6947865D01*
X1244701Y6950354D01*
X1243685Y6953300D01*
X1243634Y6956399D01*
X1244854Y6965492D01*
X1244854Y6979107D01*
X1243025Y6992620D01*
X1239418Y7005777D01*
X1234135Y7018324D01*
X1227175Y7030059D01*
X1218692Y7040778D01*
X1208887Y7050278D01*
X1197914Y7058355D01*
X1185976Y7064908D01*
X1173226Y7069785D01*
X1159967Y7072985D01*
X1146403Y7074306D01*
X1132789Y7073849D01*
X1119327Y7071614D01*
X1106322Y7067550D01*
X1093927Y7061809D01*
X1084884Y7056069D01*
X1080820Y7054545D01*
X1076553Y7054850D01*
X1072743Y7056932D01*
X1070152Y7060387D01*
X1069238Y7064603D01*
X1069238Y7133996D01*
X1070152Y7138212D01*
X1072743Y7141667D01*
X1076553Y7143750D01*
X1080820Y7144054D01*
X1084884Y7142530D01*
X1093927Y7136790D01*
X1106322Y7131050D01*
X1119327Y7126986D01*
X1132789Y7124750D01*
X1146403Y7124293D01*
X1159967Y7125614D01*
X1173226Y7128814D01*
X1185976Y7133691D01*
X1197914Y7140244D01*
X1208887Y7148322D01*
X1218692Y7157821D01*
X1227175Y7168540D01*
X1234135Y7180275D01*
X1239418Y7192822D01*
X1243025Y7205980D01*
X1244854Y7219492D01*
X1244854Y7233107D01*
X1243025Y7246620D01*
X1239418Y7259777D01*
X1234135Y7272324D01*
X1227175Y7284059D01*
X1218692Y7294778D01*
X1208887Y7304278D01*
X1197914Y7312355D01*
X1185976Y7318908D01*
X1173226Y7323785D01*
X1159967Y7326985D01*
X1146403Y7328306D01*
X1132789Y7327849D01*
X1119327Y7325614D01*
X1106322Y7321550D01*
X1093927Y7315809D01*
X1084884Y7310069D01*
X1080820Y7308545D01*
X1076553Y7308850D01*
X1072743Y7310932D01*
X1070152Y7314387D01*
X1069238Y7318603D01*
X1069238Y7387996D01*
X1070152Y7392212D01*
X1072743Y7395667D01*
X1076553Y7397750D01*
X1080820Y7398054D01*
X1084884Y7396530D01*
X1093927Y7390790D01*
X1106322Y7385050D01*
X1119327Y7380986D01*
X1132789Y7378750D01*
X1146403Y7378293D01*
X1159967Y7379614D01*
X1173226Y7382814D01*
X1185976Y7387691D01*
X1197914Y7394244D01*
X1208887Y7402322D01*
X1218692Y7411821D01*
X1227175Y7422540D01*
X1234135Y7434275D01*
X1239418Y7446822D01*
X1243025Y7459980D01*
X1244854Y7473492D01*
X1244854Y7487107D01*
X1243025Y7500620D01*
X1239418Y7513777D01*
X1234135Y7526324D01*
X1227175Y7538059D01*
X1218692Y7548778D01*
X1208887Y7558278D01*
X1197914Y7566355D01*
X1185976Y7572908D01*
X1173226Y7577785D01*
X1159967Y7580985D01*
X1146403Y7582306D01*
X1132789Y7581849D01*
X1119327Y7579614D01*
X1106322Y7575550D01*
X1093927Y7569809D01*
X1084884Y7564069D01*
X1080820Y7562545D01*
X1076553Y7562850D01*
X1072743Y7564932D01*
X1070152Y7568387D01*
X1069238Y7572603D01*
X1069238Y7641996D01*
X1070152Y7646212D01*
X1072743Y7649667D01*
X1076553Y7651750D01*
X1080820Y7652054D01*
X1084884Y7650530D01*
X1093927Y7644790D01*
X1106322Y7639050D01*
X1119327Y7634986D01*
X1132789Y7632750D01*
X1146403Y7632293D01*
X1159967Y7633614D01*
X1173226Y7636814D01*
X1185976Y7641691D01*
X1197914Y7648244D01*
X1208887Y7656322D01*
X1218692Y7665821D01*
X1227175Y7676540D01*
X1234135Y7688275D01*
X1239418Y7700822D01*
X1243025Y7713980D01*
X1244854Y7727492D01*
X1244854Y7741107D01*
X1243025Y7754620D01*
X1239418Y7767777D01*
X1234135Y7780324D01*
X1227175Y7792059D01*
X1218692Y7802778D01*
X1208887Y7812278D01*
X1197914Y7820355D01*
X1185976Y7826908D01*
X1173226Y7831785D01*
X1159967Y7834985D01*
X1146403Y7836306D01*
X1132789Y7835849D01*
X1119327Y7833614D01*
X1106322Y7829550D01*
X1093927Y7823809D01*
X1084884Y7818069D01*
X1080820Y7816545D01*
X1076553Y7816850D01*
X1072743Y7818932D01*
X1070152Y7822387D01*
X1069238Y7826603D01*
X1069238Y7895996D01*
X1070152Y7900212D01*
X1072743Y7903667D01*
X1076553Y7905750D01*
X1080820Y7906054D01*
X1084884Y7904530D01*
X1093927Y7898790D01*
X1098550Y7896656D01*
X1098550Y7943850D01*
X1079398Y7943850D01*
X1075537Y7944612D01*
X1072235Y7946847D01*
X1070051Y7950098D01*
X1069238Y7954009D01*
X1069238Y8022590D01*
X1070051Y8026501D01*
X1072235Y8029752D01*
X1075537Y8031988D01*
X1079398Y8032750D01*
X1098550Y8032750D01*
X1098550Y8082127D01*
X1096619Y8082432D01*
X1093216Y8084566D01*
X1090930Y8087868D01*
X1090066Y8091830D01*
X1090828Y8095792D01*
X1093012Y8099145D01*
X1131468Y8137550D01*
X1134922Y8139836D01*
X1138986Y8140496D01*
X1146403Y8140293D01*
X1159967Y8141614D01*
X1173226Y8144814D01*
X1185976Y8149691D01*
X1197914Y8156244D01*
X1208887Y8164322D01*
X1218692Y8173821D01*
X1227175Y8184540D01*
X1234135Y8196275D01*
X1239418Y8208822D01*
X1243025Y8221980D01*
X1244854Y8235492D01*
X1244854Y8249107D01*
X1243025Y8262620D01*
X1239418Y8275777D01*
X1234135Y8288324D01*
X1227175Y8300059D01*
X1218692Y8310778D01*
X1208887Y8320278D01*
X1197914Y8328355D01*
X1185976Y8334908D01*
X1173226Y8339785D01*
X1159967Y8342985D01*
X1146403Y8344306D01*
X1132789Y8343849D01*
X1119327Y8341614D01*
X1106322Y8337550D01*
X1093927Y8331809D01*
X1082446Y8324494D01*
X1072032Y8315706D01*
X1062888Y8305546D01*
X1055166Y8294319D01*
X1049020Y8282178D01*
X1044549Y8269274D01*
X1041806Y8255914D01*
X1040892Y8242300D01*
X1041146Y8238591D01*
X1040536Y8234324D01*
X1038199Y8230717D01*
X957021Y8149539D01*
X950061Y8141360D01*
X944676Y8132572D01*
X940714Y8123021D01*
X938276Y8112963D01*
X937463Y8102244D01*
X937463Y6096355D01*
X938276Y6085636D01*
X940714Y6075578D01*
X944676Y6066028D01*
X950061Y6057239D01*
X957021Y6049060D01*
X1038199Y5967882D01*
X1040536Y5964275D01*
X1041146Y5960008D01*
X1040892Y5956300D01*
X1041806Y5942685D01*
X1044549Y5929325D01*
X1049020Y5916422D01*
X1055166Y5904280D01*
X1062888Y5893054D01*
X1072032Y5882894D01*
X1082446Y5874105D01*
X1093927Y5866790D01*
X1106322Y5861050D01*
X1119327Y5856986D01*
X1132789Y5854750D01*
X1146403Y5854293D01*
X1159967Y5855614D01*
X1173226Y5858814D01*
X1185976Y5863691D01*
X1197914Y5870244D01*
X1202588Y5872480D01*
X1207058Y5872378D01*
X1211021Y5870346D01*
X1213764Y5866841D01*
X1214729Y5862523D01*
X1214729Y5796076D01*
X1213764Y5791758D01*
X1211021Y5788253D01*
X1207058Y5786221D01*
X1202588Y5786120D01*
X1197914Y5788355D01*
X1185976Y5794908D01*
X1173226Y5799785D01*
X1159967Y5802985D01*
X1146403Y5804306D01*
X1132789Y5803849D01*
X1119327Y5801614D01*
X1106322Y5797550D01*
X1093927Y5791809D01*
X1082446Y5784494D01*
X1072032Y5775706D01*
X1062888Y5765546D01*
X1055166Y5754319D01*
X1049020Y5742178D01*
X1044549Y5729274D01*
X1041806Y5715914D01*
X1040892Y5702300D01*
X1041806Y5688685D01*
X1044549Y5675325D01*
X1049020Y5662422D01*
X1055166Y5650280D01*
X1062888Y5639054D01*
X1072032Y5628894D01*
X1082446Y5620105D01*
X1093927Y5612790D01*
X1106322Y5607050D01*
X1119327Y5602986D01*
X1132789Y5600750D01*
X1146403Y5600293D01*
X1159967Y5601614D01*
X1173226Y5604814D01*
X1185976Y5609691D01*
X1197914Y5616244D01*
X1202588Y5618480D01*
X1207058Y5618378D01*
X1211021Y5616346D01*
X1213764Y5612841D01*
X1214729Y5608523D01*
X1214729Y5542076D01*
X1213764Y5537758D01*
X1211021Y5534253D01*
X1207058Y5532221D01*
X1202588Y5532120D01*
X1197914Y5534355D01*
X1185976Y5540908D01*
X1173226Y5545785D01*
X1159967Y5548985D01*
X1146403Y5550306D01*
X1132789Y5549849D01*
X1119327Y5547614D01*
X1106322Y5543550D01*
X1093927Y5537809D01*
X1082446Y5530494D01*
X1072032Y5521706D01*
X1062888Y5511546D01*
X1055166Y5500319D01*
X1049020Y5488178D01*
X1044549Y5475274D01*
X1041806Y5461914D01*
X1040892Y5448300D01*
X1042314Y5429656D01*
X1041349Y5426456D01*
X1039418Y5423763D01*
X962964Y5347309D01*
X959510Y5343550D01*
X956564Y5339689D01*
X953922Y5335574D01*
X951687Y5331256D01*
X949807Y5326735D01*
X948334Y5322112D01*
X947267Y5317337D01*
X946658Y5312511D01*
X946454Y5307431D01*
X946454Y5133594D01*
X946658Y5128514D01*
X947267Y5123637D01*
X948334Y5118912D01*
X949807Y5114239D01*
X951687Y5109718D01*
X953922Y5105400D01*
X956564Y5101285D01*
X959510Y5097424D01*
X962964Y5093665D01*
X985672Y5070957D01*
X988110Y5066995D01*
X991057Y5058206D01*
X995984Y5048808D01*
X1002334Y5040376D01*
X1010005Y5033010D01*
X1018743Y5026964D01*
X1028293Y5022443D01*
X1038504Y5019497D01*
X1049020Y5018227D01*
X1053338Y5018379D01*
X1057757Y5017566D01*
X1061364Y5014976D01*
X1063498Y5011064D01*
X1063802Y5006644D01*
X1062126Y5002479D01*
X1055166Y4992319D01*
X1049020Y4980178D01*
X1044549Y4967274D01*
X1041806Y4953914D01*
X1040892Y4940300D01*
X1041806Y4926685D01*
X1044549Y4913325D01*
X1049020Y4900422D01*
X1055166Y4888280D01*
X1062888Y4877054D01*
X1072032Y4866894D01*
X1082446Y4858105D01*
X1093927Y4850790D01*
X1106322Y4845050D01*
X1119327Y4840986D01*
X1132789Y4838750D01*
X1146403Y4838293D01*
X1159967Y4839614D01*
X1173226Y4842814D01*
X1185976Y4847691D01*
X1197914Y4854244D01*
X1208887Y4862322D01*
X1212545Y4865878D01*
X1215999Y4868062D01*
X1219962Y4868722D01*
X1223924Y4867757D01*
X1227175Y4865370D01*
X1231290Y4860798D01*
X1571650Y4520438D01*
X1575409Y4516983D01*
X1579270Y4514037D01*
X1583385Y4511395D01*
X1587754Y4509160D01*
X1592224Y4507280D01*
X1596898Y4505807D01*
X1601622Y4504740D01*
X1606499Y4504131D01*
X1611579Y4503877D01*
X1928875Y4503877D01*
X1933956Y4504131D01*
X1938782Y4504740D01*
X1943557Y4505807D01*
X1948180Y4507280D01*
X1952701Y4509160D01*
X1957019Y4511395D01*
X1961134Y4514037D01*
X1964994Y4516983D01*
X1968754Y4520438D01*
X2390444Y4942128D01*
X2394356Y4946446D01*
X2397810Y4948885D01*
X2401925Y4949748D01*
X2406040Y4948885D01*
X2409444Y4946446D01*
X2413355Y4942128D01*
X2671622Y4683861D01*
X2673807Y4680559D01*
X2674620Y4676648D01*
X2674620Y3959910D01*
X2674010Y3956507D01*
X2672334Y3953510D01*
X2669794Y3951224D01*
X2661208Y3945940D01*
X2649728Y3936695D01*
X2639466Y3926078D01*
X2630576Y3914343D01*
X2623159Y3901541D01*
X2617419Y3887927D01*
X2613406Y3873754D01*
X2611120Y3859174D01*
X2610662Y3844391D01*
X2612034Y3829710D01*
X2615184Y3815283D01*
X2620111Y3801364D01*
X2626664Y3788156D01*
X2634843Y3775862D01*
X2644444Y3764635D01*
X2655316Y3754678D01*
X2667406Y3746144D01*
X2680411Y3739184D01*
X2694178Y3733850D01*
X2708452Y3730244D01*
X2723134Y3728415D01*
X2737866Y3728415D01*
X2752547Y3730244D01*
X2760319Y3732225D01*
X2763774Y3732479D01*
X2767126Y3731564D01*
X2769971Y3729532D01*
X2923133Y3576370D01*
X2926892Y3572967D01*
X2930753Y3569970D01*
X2934868Y3567379D01*
X2939237Y3565093D01*
X2943707Y3563213D01*
X2948381Y3561791D01*
X2953105Y3560724D01*
X2957982Y3560064D01*
G37*
G36*
X2215134Y3728415D02*
G01*
X2229866Y3728415D01*
X2244547Y3730244D01*
X2258822Y3733850D01*
X2272588Y3739184D01*
X2285593Y3746144D01*
X2297684Y3754678D01*
X2308555Y3764635D01*
X2318156Y3775862D01*
X2326335Y3788156D01*
X2332888Y3801364D01*
X2337816Y3815283D01*
X2340965Y3829710D01*
X2342337Y3844391D01*
X2341880Y3859174D01*
X2339543Y3873957D01*
X2335580Y3887927D01*
X2329840Y3901541D01*
X2322423Y3914343D01*
X2313533Y3926078D01*
X2303272Y3936695D01*
X2291791Y3945940D01*
X2279243Y3953713D01*
X2265832Y3959910D01*
X2251760Y3964381D01*
X2237232Y3967073D01*
X2222500Y3967987D01*
X2207768Y3967073D01*
X2193239Y3964381D01*
X2179167Y3959910D01*
X2165756Y3953713D01*
X2153208Y3945940D01*
X2141728Y3936695D01*
X2131466Y3926078D01*
X2122576Y3914343D01*
X2115159Y3901541D01*
X2109419Y3887927D01*
X2105406Y3873754D01*
X2103120Y3859174D01*
X2102662Y3844391D01*
X2104034Y3829710D01*
X2107184Y3815283D01*
X2112111Y3801364D01*
X2118664Y3788156D01*
X2126843Y3775862D01*
X2136444Y3764635D01*
X2147316Y3754678D01*
X2159406Y3746144D01*
X2172411Y3739184D01*
X2186178Y3733850D01*
X2200452Y3730244D01*
G37*
G36*
X2423160Y3740912D02*
G01*
X2423160Y3794760D01*
X2369413Y3794760D01*
X2372664Y3788156D01*
X2380843Y3775862D01*
X2390444Y3764635D01*
X2401316Y3754678D01*
X2413406Y3746144D01*
G37*
G36*
X2529840Y3740912D02*
G01*
X2539593Y3746144D01*
X2551684Y3754678D01*
X2562555Y3764635D01*
X2572156Y3775862D01*
X2580335Y3788156D01*
X2583586Y3794760D01*
X2529840Y3794760D01*
G37*
G36*
X4734306Y3793032D02*
G01*
X4748123Y3793896D01*
X4761687Y3796639D01*
X4774793Y3801059D01*
X4787239Y3807206D01*
X4798771Y3814876D01*
X4809185Y3824020D01*
X4818278Y3834434D01*
X4826000Y3845966D01*
X4832096Y3858361D01*
X4836566Y3871518D01*
X4839258Y3885082D01*
X4840173Y3898900D01*
X4839258Y3912717D01*
X4836566Y3926281D01*
X4832096Y3939438D01*
X4826000Y3951833D01*
X4818278Y3963365D01*
X4809185Y3973779D01*
X4798771Y3982923D01*
X4787239Y3990594D01*
X4774793Y3996740D01*
X4761687Y4001160D01*
X4748123Y4003903D01*
X4734306Y4004767D01*
X4720488Y4003903D01*
X4706874Y4001160D01*
X4693767Y3996740D01*
X4681372Y3990594D01*
X4669840Y3982923D01*
X4659426Y3973779D01*
X4650282Y3963365D01*
X4642612Y3951833D01*
X4636465Y3939438D01*
X4631994Y3926281D01*
X4629302Y3912717D01*
X4628388Y3898900D01*
X4629302Y3885082D01*
X4631994Y3871518D01*
X4636465Y3858361D01*
X4642612Y3845966D01*
X4650282Y3834434D01*
X4659426Y3824020D01*
X4669840Y3814876D01*
X4681372Y3807206D01*
X4693767Y3801059D01*
X4706874Y3796639D01*
X4720488Y3793896D01*
G37*
G36*
X5097932Y3803954D02*
G01*
X5097932Y3852570D01*
X5049316Y3852570D01*
X5052568Y3845966D01*
X5060289Y3834434D01*
X5069433Y3824020D01*
X5079847Y3814876D01*
X5091328Y3807206D01*
G37*
G36*
X5190642Y3803954D02*
G01*
X5197246Y3807206D01*
X5208727Y3814876D01*
X5219141Y3824020D01*
X5228285Y3834434D01*
X5236006Y3845966D01*
X5239258Y3852570D01*
X5190642Y3852570D01*
G37*
G36*
X2529840Y3901440D02*
G01*
X2583840Y3901440D01*
X2576423Y3914343D01*
X2567533Y3926078D01*
X2557272Y3936695D01*
X2545791Y3945940D01*
X2533243Y3953713D01*
X2529840Y3955287D01*
G37*
G36*
X2369159Y3901440D02*
G01*
X2423160Y3901440D01*
X2423160Y3955287D01*
X2419756Y3953713D01*
X2407208Y3945940D01*
X2395728Y3936695D01*
X2385466Y3926078D01*
X2376576Y3914343D01*
G37*
G36*
X5190642Y3945229D02*
G01*
X5239258Y3945229D01*
X5236006Y3951833D01*
X5228285Y3963365D01*
X5219141Y3973779D01*
X5208727Y3982923D01*
X5197246Y3990594D01*
X5190642Y3993845D01*
G37*
G36*
X5049316Y3945229D02*
G01*
X5097932Y3945229D01*
X5097932Y3993845D01*
X5091328Y3990594D01*
X5079847Y3982923D01*
X5069433Y3973779D01*
X5060289Y3963365D01*
X5052568Y3951833D01*
G37*
G36*
X4263796Y3961993D02*
G01*
X4277410Y3962450D01*
X4290872Y3964686D01*
X4303877Y3968750D01*
X4316272Y3974490D01*
X4327753Y3981805D01*
X4338167Y3990594D01*
X4347311Y4000754D01*
X4355033Y4011980D01*
X4361180Y4024122D01*
X4365650Y4037025D01*
X4368393Y4050385D01*
X4369308Y4064000D01*
X4368393Y4077614D01*
X4365650Y4090974D01*
X4361180Y4103878D01*
X4355033Y4116019D01*
X4347311Y4127246D01*
X4338167Y4137406D01*
X4327753Y4146194D01*
X4316272Y4153509D01*
X4303877Y4159250D01*
X4290872Y4163314D01*
X4277410Y4165549D01*
X4263796Y4166006D01*
X4250232Y4164685D01*
X4236974Y4161485D01*
X4224223Y4156608D01*
X4212285Y4150055D01*
X4201312Y4141978D01*
X4191508Y4132478D01*
X4183024Y4121759D01*
X4176064Y4110024D01*
X4170781Y4097477D01*
X4167174Y4084320D01*
X4165346Y4070807D01*
X4165346Y4057192D01*
X4167174Y4043679D01*
X4170781Y4030522D01*
X4176064Y4017975D01*
X4183024Y4006240D01*
X4191508Y3995521D01*
X4201312Y3986022D01*
X4212285Y3977944D01*
X4224223Y3971391D01*
X4236974Y3966514D01*
X4250232Y3963314D01*
G37*
G36*
X4263796Y4254093D02*
G01*
X4277410Y4254550D01*
X4290872Y4256786D01*
X4303877Y4260850D01*
X4316272Y4266590D01*
X4327753Y4273905D01*
X4338167Y4282694D01*
X4347311Y4292854D01*
X4355033Y4304080D01*
X4361180Y4316222D01*
X4365650Y4329125D01*
X4368393Y4342485D01*
X4369308Y4356100D01*
X4368393Y4369714D01*
X4365650Y4383074D01*
X4361180Y4395978D01*
X4355033Y4408119D01*
X4347311Y4419346D01*
X4338167Y4429506D01*
X4327753Y4438294D01*
X4316272Y4445609D01*
X4303877Y4451350D01*
X4290872Y4455414D01*
X4277410Y4457649D01*
X4263796Y4458106D01*
X4250232Y4456785D01*
X4236974Y4453585D01*
X4224223Y4448708D01*
X4212285Y4442155D01*
X4201312Y4434078D01*
X4191508Y4424578D01*
X4183024Y4413859D01*
X4176064Y4402124D01*
X4170781Y4389577D01*
X4167174Y4376420D01*
X4165346Y4362907D01*
X4165346Y4349292D01*
X4167174Y4335780D01*
X4170781Y4322622D01*
X4176064Y4310075D01*
X4183024Y4298340D01*
X4191508Y4287621D01*
X4201312Y4278122D01*
X4212285Y4270044D01*
X4224223Y4263491D01*
X4236974Y4258614D01*
X4250232Y4255414D01*
G37*
G36*
X3886758Y4584192D02*
G01*
X4038041Y4584192D01*
X4044340Y4584903D01*
X4049826Y4586833D01*
X4054703Y4589881D01*
X4058818Y4593996D01*
X4061866Y4598873D01*
X4063796Y4604359D01*
X4064508Y4610658D01*
X4064508Y4761941D01*
X4063796Y4768240D01*
X4061866Y4773726D01*
X4058818Y4778603D01*
X4054703Y4782718D01*
X4049826Y4785766D01*
X4044340Y4787696D01*
X4038041Y4788408D01*
X3886758Y4788408D01*
X3880459Y4787696D01*
X3874973Y4785766D01*
X3870096Y4782718D01*
X3865981Y4778603D01*
X3862933Y4773726D01*
X3861003Y4768240D01*
X3860292Y4761941D01*
X3860292Y4610658D01*
X3861003Y4604359D01*
X3862933Y4598873D01*
X3865981Y4593996D01*
X3870096Y4589881D01*
X3874973Y4586833D01*
X3880459Y4584903D01*
G37*
G36*
X1146403Y4584293D02*
G01*
X1159967Y4585614D01*
X1173226Y4588814D01*
X1185976Y4593691D01*
X1197914Y4600244D01*
X1208887Y4608322D01*
X1218692Y4617821D01*
X1227175Y4628540D01*
X1234135Y4640275D01*
X1239418Y4652822D01*
X1243025Y4665980D01*
X1244854Y4679492D01*
X1244854Y4693107D01*
X1243025Y4706620D01*
X1239418Y4719777D01*
X1234135Y4732324D01*
X1227175Y4744059D01*
X1218692Y4754778D01*
X1208887Y4764278D01*
X1197914Y4772355D01*
X1185976Y4778908D01*
X1173226Y4783785D01*
X1159967Y4786985D01*
X1146403Y4788306D01*
X1132789Y4787849D01*
X1119327Y4785614D01*
X1106322Y4781550D01*
X1093927Y4775809D01*
X1082446Y4768494D01*
X1072032Y4759706D01*
X1062888Y4749546D01*
X1055166Y4738319D01*
X1049020Y4726178D01*
X1044549Y4713274D01*
X1041806Y4699914D01*
X1040892Y4686300D01*
X1041806Y4672685D01*
X1044549Y4659325D01*
X1049020Y4646422D01*
X1055166Y4634280D01*
X1062888Y4623054D01*
X1072032Y4612894D01*
X1082446Y4604105D01*
X1093927Y4596790D01*
X1106322Y4591050D01*
X1119327Y4586986D01*
X1132789Y4584750D01*
G37*
G36*
X4991100Y5154980D02*
G01*
X4991100Y5207000D01*
X4939182Y5207000D01*
X4941316Y5202478D01*
X4949037Y5190337D01*
X4958232Y5179212D01*
X4968748Y5169357D01*
X4980381Y5160873D01*
G37*
G36*
X5092700Y5154980D02*
G01*
X5103418Y5160873D01*
X5115052Y5169357D01*
X5125567Y5179212D01*
X5134762Y5190337D01*
X5142484Y5202478D01*
X5144617Y5207000D01*
X5092700Y5207000D01*
G37*
G36*
X5092700Y5308600D02*
G01*
X5144617Y5308600D01*
X5142484Y5313121D01*
X5134762Y5325262D01*
X5125567Y5336387D01*
X5115052Y5346242D01*
X5103418Y5354726D01*
X5092700Y5360619D01*
G37*
G36*
X4939182Y5308600D02*
G01*
X4991100Y5308600D01*
X4991100Y5360619D01*
X4980381Y5354726D01*
X4968748Y5346242D01*
X4958232Y5336387D01*
X4949037Y5325262D01*
X4941316Y5313121D01*
G37*
G36*
X4991100Y5408980D02*
G01*
X4991100Y5461000D01*
X4939182Y5461000D01*
X4941316Y5456478D01*
X4949037Y5444337D01*
X4958232Y5433212D01*
X4968748Y5423357D01*
X4980381Y5414873D01*
G37*
G36*
X5092700Y5408980D02*
G01*
X5103418Y5414873D01*
X5115052Y5423357D01*
X5125567Y5433212D01*
X5134762Y5444337D01*
X5142484Y5456478D01*
X5144617Y5461000D01*
X5092700Y5461000D01*
G37*
G36*
X5092700Y5562600D02*
G01*
X5144617Y5562600D01*
X5142484Y5567121D01*
X5134762Y5579262D01*
X5125567Y5590387D01*
X5115052Y5600242D01*
X5103418Y5608726D01*
X5092700Y5614619D01*
G37*
G36*
X4939182Y5562600D02*
G01*
X4991100Y5562600D01*
X4991100Y5614619D01*
X4980381Y5608726D01*
X4968748Y5600242D01*
X4958232Y5590387D01*
X4949037Y5579262D01*
X4941316Y5567121D01*
G37*
G36*
X1679803Y5600293D02*
G01*
X1693367Y5601614D01*
X1706625Y5604814D01*
X1719376Y5609691D01*
X1731314Y5616244D01*
X1742287Y5624322D01*
X1752092Y5633821D01*
X1760575Y5644540D01*
X1767535Y5656275D01*
X1772818Y5668822D01*
X1776425Y5681980D01*
X1778254Y5695492D01*
X1778254Y5709107D01*
X1776425Y5722620D01*
X1772818Y5735777D01*
X1767535Y5748324D01*
X1760575Y5760059D01*
X1752092Y5770778D01*
X1742287Y5780278D01*
X1731314Y5788355D01*
X1719376Y5794908D01*
X1706625Y5799785D01*
X1693367Y5802985D01*
X1679803Y5804306D01*
X1666189Y5803849D01*
X1652727Y5801614D01*
X1639722Y5797550D01*
X1627327Y5791809D01*
X1615846Y5784494D01*
X1605432Y5775706D01*
X1596288Y5765546D01*
X1588566Y5754319D01*
X1582420Y5742178D01*
X1577949Y5729274D01*
X1575206Y5715914D01*
X1574292Y5702300D01*
X1575206Y5688685D01*
X1577949Y5675325D01*
X1582420Y5662422D01*
X1588566Y5650280D01*
X1596288Y5639054D01*
X1605432Y5628894D01*
X1615846Y5620105D01*
X1627327Y5612790D01*
X1639722Y5607050D01*
X1652727Y5602986D01*
X1666189Y5600750D01*
G37*
G36*
X4991100Y5662980D02*
G01*
X4991100Y5715000D01*
X4939182Y5715000D01*
X4941316Y5710478D01*
X4949037Y5698337D01*
X4958232Y5687212D01*
X4968748Y5677357D01*
X4980381Y5668873D01*
G37*
G36*
X5092700Y5662980D02*
G01*
X5103418Y5668873D01*
X5115052Y5677357D01*
X5125567Y5687212D01*
X5134762Y5698337D01*
X5142484Y5710478D01*
X5144617Y5715000D01*
X5092700Y5715000D01*
G37*
G36*
X5092700Y5816600D02*
G01*
X5144617Y5816600D01*
X5142484Y5821121D01*
X5134762Y5833262D01*
X5125567Y5844387D01*
X5115052Y5854242D01*
X5103418Y5862726D01*
X5092700Y5868619D01*
G37*
G36*
X4939182Y5816600D02*
G01*
X4991100Y5816600D01*
X4991100Y5868619D01*
X4980381Y5862726D01*
X4968748Y5854242D01*
X4958232Y5844387D01*
X4949037Y5833262D01*
X4941316Y5821121D01*
G37*
G36*
X1679803Y5854293D02*
G01*
X1693367Y5855614D01*
X1706625Y5858814D01*
X1719376Y5863691D01*
X1731314Y5870244D01*
X1742287Y5878322D01*
X1752092Y5887821D01*
X1760575Y5898540D01*
X1767535Y5910275D01*
X1772818Y5922822D01*
X1776425Y5935980D01*
X1778254Y5949492D01*
X1778254Y5963107D01*
X1776425Y5976620D01*
X1772818Y5989777D01*
X1767535Y6002324D01*
X1760575Y6014059D01*
X1752092Y6024778D01*
X1742287Y6034278D01*
X1731314Y6042355D01*
X1719376Y6048908D01*
X1706625Y6053785D01*
X1693367Y6056985D01*
X1679803Y6058306D01*
X1666189Y6057849D01*
X1652727Y6055614D01*
X1639722Y6051550D01*
X1627327Y6045809D01*
X1615846Y6038494D01*
X1605432Y6029706D01*
X1596288Y6019546D01*
X1588566Y6008319D01*
X1582420Y5996178D01*
X1577949Y5983274D01*
X1575206Y5969914D01*
X1574292Y5956300D01*
X1575206Y5942685D01*
X1577949Y5929325D01*
X1582420Y5916422D01*
X1588566Y5904280D01*
X1596288Y5893054D01*
X1605432Y5882894D01*
X1615846Y5874105D01*
X1627327Y5866790D01*
X1639722Y5861050D01*
X1652727Y5856986D01*
X1666189Y5854750D01*
G37*
G36*
X4991100Y5916980D02*
G01*
X4991100Y5969000D01*
X4939182Y5969000D01*
X4941316Y5964478D01*
X4949037Y5952337D01*
X4958232Y5941212D01*
X4968748Y5931357D01*
X4980381Y5922873D01*
G37*
G36*
X5092700Y5916980D02*
G01*
X5103418Y5922873D01*
X5115052Y5931357D01*
X5125567Y5941212D01*
X5134762Y5952337D01*
X5142484Y5964478D01*
X5144617Y5969000D01*
X5092700Y5969000D01*
G37*
G36*
X5092700Y6070600D02*
G01*
X5144617Y6070600D01*
X5142484Y6075121D01*
X5134762Y6087262D01*
X5125567Y6098387D01*
X5115052Y6108242D01*
X5103418Y6116726D01*
X5092700Y6122619D01*
G37*
G36*
X4939182Y6070600D02*
G01*
X4991100Y6070600D01*
X4991100Y6122619D01*
X4980381Y6116726D01*
X4968748Y6108242D01*
X4958232Y6098387D01*
X4949037Y6087262D01*
X4941316Y6075121D01*
G37*
G36*
X1720850Y6118504D02*
G01*
X1731314Y6124244D01*
X1742287Y6132322D01*
X1752092Y6141821D01*
X1760575Y6152540D01*
X1767535Y6164275D01*
X1768195Y6165850D01*
X1720850Y6165850D01*
G37*
G36*
X1631950Y6118656D02*
G01*
X1631950Y6165850D01*
X1584756Y6165850D01*
X1588566Y6158280D01*
X1596288Y6147054D01*
X1605432Y6136894D01*
X1615846Y6128105D01*
X1627327Y6120790D01*
G37*
G36*
X4991100Y6170980D02*
G01*
X4991100Y6223000D01*
X4939182Y6223000D01*
X4941316Y6218478D01*
X4949037Y6206337D01*
X4958232Y6195212D01*
X4968748Y6185357D01*
X4980381Y6176873D01*
G37*
G36*
X5092700Y6170980D02*
G01*
X5103418Y6176873D01*
X5115052Y6185357D01*
X5125567Y6195212D01*
X5134762Y6206337D01*
X5142484Y6218478D01*
X5144617Y6223000D01*
X5092700Y6223000D01*
G37*
G36*
X1584756Y6254750D02*
G01*
X1631950Y6254750D01*
X1631950Y6301943D01*
X1627327Y6299809D01*
X1615846Y6292494D01*
X1605432Y6283706D01*
X1596288Y6273546D01*
X1588566Y6262319D01*
G37*
G36*
X1720850Y6254750D02*
G01*
X1768195Y6254750D01*
X1767535Y6256324D01*
X1760575Y6268059D01*
X1752092Y6278778D01*
X1742287Y6288278D01*
X1731314Y6296355D01*
X1720850Y6302095D01*
G37*
G36*
X5092700Y6324600D02*
G01*
X5144617Y6324600D01*
X5142484Y6329121D01*
X5134762Y6341262D01*
X5125567Y6352387D01*
X5115052Y6362242D01*
X5103418Y6370726D01*
X5092700Y6376619D01*
G37*
G36*
X4939182Y6324600D02*
G01*
X4991100Y6324600D01*
X4991100Y6376619D01*
X4980381Y6370726D01*
X4968748Y6362242D01*
X4958232Y6352387D01*
X4949037Y6341262D01*
X4941316Y6329121D01*
G37*
G36*
X4780686Y6413246D02*
G01*
X4795113Y6413246D01*
X4809388Y6415024D01*
X4823358Y6418630D01*
X4836769Y6423914D01*
X4849418Y6430873D01*
X4861052Y6439357D01*
X4871567Y6449212D01*
X4880762Y6460337D01*
X4888484Y6472478D01*
X4894630Y6485534D01*
X4899101Y6499250D01*
X4901793Y6513423D01*
X4902708Y6527800D01*
X4901793Y6542176D01*
X4899101Y6556349D01*
X4894630Y6570065D01*
X4888484Y6583121D01*
X4880762Y6595262D01*
X4871567Y6606387D01*
X4861052Y6616242D01*
X4849418Y6624726D01*
X4836769Y6631686D01*
X4823358Y6636969D01*
X4809388Y6640575D01*
X4795113Y6642353D01*
X4780686Y6642353D01*
X4766411Y6640575D01*
X4752441Y6636969D01*
X4739030Y6631686D01*
X4726381Y6624726D01*
X4714748Y6616242D01*
X4704232Y6606387D01*
X4695037Y6595262D01*
X4687316Y6583121D01*
X4681169Y6570065D01*
X4676698Y6556349D01*
X4674006Y6542176D01*
X4673092Y6527800D01*
X4674006Y6513423D01*
X4676698Y6499250D01*
X4681169Y6485534D01*
X4687316Y6472478D01*
X4695037Y6460337D01*
X4704232Y6449212D01*
X4714748Y6439357D01*
X4726381Y6430873D01*
X4739030Y6423914D01*
X4752441Y6418630D01*
X4766411Y6415024D01*
G37*
G36*
X4991100Y6424980D02*
G01*
X4991100Y6477000D01*
X4939182Y6477000D01*
X4941316Y6472478D01*
X4949037Y6460337D01*
X4958232Y6449212D01*
X4968748Y6439357D01*
X4980381Y6430873D01*
G37*
G36*
X5092700Y6424980D02*
G01*
X5103418Y6430873D01*
X5115052Y6439357D01*
X5125567Y6449212D01*
X5134762Y6460337D01*
X5142484Y6472478D01*
X5144617Y6477000D01*
X5092700Y6477000D01*
G37*
G36*
X5092700Y6578600D02*
G01*
X5144617Y6578600D01*
X5142484Y6583121D01*
X5134762Y6595262D01*
X5125567Y6606387D01*
X5115052Y6616242D01*
X5103418Y6624726D01*
X5092700Y6630619D01*
G37*
G36*
X4939182Y6578600D02*
G01*
X4991100Y6578600D01*
X4991100Y6630619D01*
X4980381Y6624726D01*
X4968748Y6616242D01*
X4958232Y6606387D01*
X4949037Y6595262D01*
X4941316Y6583121D01*
G37*
G36*
X4780686Y6667246D02*
G01*
X4795113Y6667246D01*
X4809388Y6669024D01*
X4823358Y6672630D01*
X4836769Y6677914D01*
X4849418Y6684873D01*
X4861052Y6693357D01*
X4871567Y6703212D01*
X4880762Y6714337D01*
X4888484Y6726478D01*
X4894630Y6739534D01*
X4899101Y6753250D01*
X4901793Y6767423D01*
X4902708Y6781800D01*
X4901793Y6796176D01*
X4899101Y6810349D01*
X4894630Y6824065D01*
X4888484Y6837121D01*
X4880762Y6849262D01*
X4871567Y6860387D01*
X4861052Y6870242D01*
X4849418Y6878726D01*
X4836769Y6885686D01*
X4823358Y6890969D01*
X4809388Y6894575D01*
X4795113Y6896353D01*
X4780686Y6896353D01*
X4766411Y6894575D01*
X4752441Y6890969D01*
X4739030Y6885686D01*
X4726381Y6878726D01*
X4714748Y6870242D01*
X4704232Y6860387D01*
X4695037Y6849262D01*
X4687316Y6837121D01*
X4681169Y6824065D01*
X4676698Y6810349D01*
X4674006Y6796176D01*
X4673092Y6781800D01*
X4674006Y6767423D01*
X4676698Y6753250D01*
X4681169Y6739534D01*
X4687316Y6726478D01*
X4695037Y6714337D01*
X4704232Y6703212D01*
X4714748Y6693357D01*
X4726381Y6684873D01*
X4739030Y6677914D01*
X4752441Y6672630D01*
X4766411Y6669024D01*
G37*
G36*
X4991100Y6678980D02*
G01*
X4991100Y6731000D01*
X4939182Y6731000D01*
X4941316Y6726478D01*
X4949037Y6714337D01*
X4958232Y6703212D01*
X4968748Y6693357D01*
X4980381Y6684873D01*
G37*
G36*
X5092700Y6678980D02*
G01*
X5103418Y6684873D01*
X5115052Y6693357D01*
X5125567Y6703212D01*
X5134762Y6714337D01*
X5142484Y6726478D01*
X5144617Y6731000D01*
X5092700Y6731000D01*
G37*
G36*
X5092700Y6832600D02*
G01*
X5144617Y6832600D01*
X5142484Y6837121D01*
X5134762Y6849262D01*
X5125567Y6860387D01*
X5115052Y6870242D01*
X5103418Y6878726D01*
X5092700Y6884619D01*
G37*
G36*
X4939182Y6832600D02*
G01*
X4991100Y6832600D01*
X4991100Y6884619D01*
X4980381Y6878726D01*
X4968748Y6870242D01*
X4958232Y6860387D01*
X4949037Y6849262D01*
X4941316Y6837121D01*
G37*
G36*
X1679803Y6870293D02*
G01*
X1693367Y6871614D01*
X1706625Y6874814D01*
X1719376Y6879691D01*
X1731314Y6886244D01*
X1742287Y6894322D01*
X1752092Y6903821D01*
X1760575Y6914540D01*
X1767535Y6926275D01*
X1772818Y6938822D01*
X1776425Y6951980D01*
X1778254Y6965492D01*
X1778254Y6979107D01*
X1776425Y6992620D01*
X1772818Y7005777D01*
X1767535Y7018324D01*
X1760575Y7030059D01*
X1752092Y7040778D01*
X1742287Y7050278D01*
X1731314Y7058355D01*
X1719376Y7064908D01*
X1706625Y7069785D01*
X1693367Y7072985D01*
X1679803Y7074306D01*
X1666189Y7073849D01*
X1652727Y7071614D01*
X1639722Y7067550D01*
X1627327Y7061809D01*
X1615846Y7054494D01*
X1605432Y7045706D01*
X1596288Y7035546D01*
X1588566Y7024319D01*
X1582420Y7012178D01*
X1577949Y6999274D01*
X1575206Y6985914D01*
X1574292Y6972300D01*
X1575206Y6958685D01*
X1577949Y6945325D01*
X1582420Y6932422D01*
X1588566Y6920280D01*
X1596288Y6909053D01*
X1605432Y6898894D01*
X1615846Y6890105D01*
X1627327Y6882790D01*
X1639722Y6877050D01*
X1652727Y6872986D01*
X1666189Y6870750D01*
G37*
G36*
X3870756Y7016750D02*
G01*
X3917950Y7016750D01*
X3917950Y7063943D01*
X3913327Y7061809D01*
X3901846Y7054494D01*
X3891432Y7045706D01*
X3882288Y7035546D01*
X3874566Y7024319D01*
G37*
G36*
X4006850Y7016750D02*
G01*
X4054195Y7016750D01*
X4053535Y7018324D01*
X4046575Y7030059D01*
X4038092Y7040778D01*
X4028287Y7050278D01*
X4017314Y7058355D01*
X4006850Y7064095D01*
G37*
G36*
X1679803Y7124293D02*
G01*
X1693367Y7125614D01*
X1706625Y7128814D01*
X1719376Y7133691D01*
X1731314Y7140244D01*
X1742287Y7148322D01*
X1752092Y7157821D01*
X1760575Y7168540D01*
X1767535Y7180275D01*
X1772818Y7192822D01*
X1776425Y7205980D01*
X1778254Y7219492D01*
X1778254Y7233107D01*
X1776425Y7246620D01*
X1772818Y7259777D01*
X1767535Y7272324D01*
X1760575Y7284059D01*
X1752092Y7294778D01*
X1742287Y7304278D01*
X1731314Y7312355D01*
X1719376Y7318908D01*
X1706625Y7323785D01*
X1693367Y7326985D01*
X1679803Y7328306D01*
X1666189Y7327849D01*
X1652727Y7325614D01*
X1639722Y7321550D01*
X1627327Y7315809D01*
X1615846Y7308494D01*
X1605432Y7299706D01*
X1596288Y7289546D01*
X1588566Y7278319D01*
X1582420Y7266178D01*
X1577949Y7253274D01*
X1575206Y7239914D01*
X1574292Y7226300D01*
X1575206Y7212685D01*
X1577949Y7199325D01*
X1582420Y7186422D01*
X1588566Y7174280D01*
X1596288Y7163053D01*
X1605432Y7152894D01*
X1615846Y7144105D01*
X1627327Y7136790D01*
X1639722Y7131050D01*
X1652727Y7126986D01*
X1666189Y7124750D01*
G37*
G36*
X3965803Y7124293D02*
G01*
X3979367Y7125614D01*
X3992626Y7128814D01*
X4005376Y7133691D01*
X4017314Y7140244D01*
X4028287Y7148322D01*
X4038092Y7157821D01*
X4046575Y7168540D01*
X4053535Y7180275D01*
X4058818Y7192822D01*
X4062425Y7205980D01*
X4064254Y7219492D01*
X4064254Y7233107D01*
X4062425Y7246620D01*
X4058818Y7259777D01*
X4053535Y7272324D01*
X4046575Y7284059D01*
X4038092Y7294778D01*
X4028287Y7304278D01*
X4017314Y7312355D01*
X4005376Y7318908D01*
X3992626Y7323785D01*
X3979367Y7326985D01*
X3965803Y7328306D01*
X3952189Y7327849D01*
X3938727Y7325614D01*
X3925722Y7321550D01*
X3913327Y7315809D01*
X3901846Y7308494D01*
X3891432Y7299706D01*
X3882288Y7289546D01*
X3874566Y7278319D01*
X3868420Y7266178D01*
X3863949Y7253274D01*
X3861206Y7239914D01*
X3860292Y7226300D01*
X3861206Y7212685D01*
X3863949Y7199325D01*
X3868420Y7186422D01*
X3874566Y7174280D01*
X3882288Y7163053D01*
X3891432Y7152894D01*
X3901846Y7144105D01*
X3913327Y7136790D01*
X3925722Y7131050D01*
X3938727Y7126986D01*
X3952189Y7124750D01*
G37*
G36*
X4311650Y7147204D02*
G01*
X4322114Y7152944D01*
X4333087Y7161022D01*
X4342892Y7170521D01*
X4351375Y7181240D01*
X4358335Y7192975D01*
X4358995Y7194550D01*
X4311650Y7194550D01*
G37*
G36*
X4222750Y7147356D02*
G01*
X4222750Y7194550D01*
X4175556Y7194550D01*
X4179366Y7186980D01*
X4187088Y7175753D01*
X4196232Y7165594D01*
X4206646Y7156805D01*
X4218127Y7149490D01*
G37*
G36*
X4175556Y7283450D02*
G01*
X4222750Y7283450D01*
X4222750Y7330643D01*
X4218127Y7328509D01*
X4206646Y7321194D01*
X4196232Y7312406D01*
X4187088Y7302246D01*
X4179366Y7291019D01*
G37*
G36*
X4311650Y7283450D02*
G01*
X4358995Y7283450D01*
X4358335Y7285024D01*
X4351375Y7296759D01*
X4342892Y7307478D01*
X4333087Y7316978D01*
X4322114Y7325055D01*
X4311650Y7330795D01*
G37*
G36*
X1679803Y7378293D02*
G01*
X1693367Y7379614D01*
X1706625Y7382814D01*
X1719376Y7387691D01*
X1731314Y7394244D01*
X1742287Y7402322D01*
X1752092Y7411821D01*
X1760575Y7422540D01*
X1767535Y7434275D01*
X1772818Y7446822D01*
X1776425Y7459980D01*
X1778254Y7473492D01*
X1778254Y7487107D01*
X1776425Y7500620D01*
X1772818Y7513777D01*
X1767535Y7526324D01*
X1760575Y7538059D01*
X1752092Y7548778D01*
X1742287Y7558278D01*
X1731314Y7566355D01*
X1719376Y7572908D01*
X1706625Y7577785D01*
X1693367Y7580985D01*
X1679803Y7582306D01*
X1666189Y7581849D01*
X1652727Y7579614D01*
X1639722Y7575550D01*
X1627327Y7569809D01*
X1615846Y7562494D01*
X1605432Y7553706D01*
X1596288Y7543546D01*
X1588566Y7532319D01*
X1582420Y7520178D01*
X1577949Y7507274D01*
X1575206Y7493914D01*
X1574292Y7480300D01*
X1575206Y7466685D01*
X1577949Y7453325D01*
X1582420Y7440422D01*
X1588566Y7428280D01*
X1596288Y7417053D01*
X1605432Y7406894D01*
X1615846Y7398105D01*
X1627327Y7390790D01*
X1639722Y7385050D01*
X1652727Y7380986D01*
X1666189Y7378750D01*
G37*
G36*
X3965803Y7378293D02*
G01*
X3979367Y7379614D01*
X3992626Y7382814D01*
X4005376Y7387691D01*
X4017314Y7394244D01*
X4028287Y7402322D01*
X4038092Y7411821D01*
X4046575Y7422540D01*
X4053535Y7434275D01*
X4058818Y7446822D01*
X4062425Y7459980D01*
X4064254Y7473492D01*
X4064254Y7487107D01*
X4062425Y7500620D01*
X4058818Y7513777D01*
X4053535Y7526324D01*
X4046575Y7538059D01*
X4038092Y7548778D01*
X4028287Y7558278D01*
X4017314Y7566355D01*
X4005376Y7572908D01*
X3992626Y7577785D01*
X3979367Y7580985D01*
X3965803Y7582306D01*
X3952189Y7581849D01*
X3938727Y7579614D01*
X3925722Y7575550D01*
X3913327Y7569809D01*
X3901846Y7562494D01*
X3891432Y7553706D01*
X3882288Y7543546D01*
X3874566Y7532319D01*
X3868420Y7520178D01*
X3863949Y7507274D01*
X3861206Y7493914D01*
X3860292Y7480300D01*
X3861206Y7466685D01*
X3863949Y7453325D01*
X3868420Y7440422D01*
X3874566Y7428280D01*
X3882288Y7417053D01*
X3891432Y7406894D01*
X3901846Y7398105D01*
X3913327Y7390790D01*
X3925722Y7385050D01*
X3938727Y7380986D01*
X3952189Y7378750D01*
G37*
G36*
X4270603Y7429093D02*
G01*
X4284167Y7430414D01*
X4297426Y7433614D01*
X4310176Y7438491D01*
X4322114Y7445044D01*
X4333087Y7453122D01*
X4342892Y7462621D01*
X4351375Y7473340D01*
X4358335Y7485075D01*
X4363618Y7497622D01*
X4367225Y7510780D01*
X4369054Y7524292D01*
X4369054Y7537907D01*
X4367225Y7551420D01*
X4363618Y7564577D01*
X4358335Y7577124D01*
X4351375Y7588859D01*
X4342892Y7599578D01*
X4333087Y7609078D01*
X4322114Y7617155D01*
X4310176Y7623708D01*
X4297426Y7628585D01*
X4284167Y7631785D01*
X4270603Y7633106D01*
X4256989Y7632649D01*
X4243527Y7630414D01*
X4230522Y7626350D01*
X4218127Y7620609D01*
X4206646Y7613294D01*
X4196232Y7604506D01*
X4187088Y7594346D01*
X4179366Y7583119D01*
X4173220Y7570978D01*
X4168749Y7558074D01*
X4166006Y7544714D01*
X4165092Y7531100D01*
X4166006Y7517485D01*
X4168749Y7504125D01*
X4173220Y7491222D01*
X4179366Y7479080D01*
X4187088Y7467853D01*
X4196232Y7457694D01*
X4206646Y7448905D01*
X4218127Y7441590D01*
X4230522Y7435850D01*
X4243527Y7431786D01*
X4256989Y7429550D01*
G37*
G36*
X2573629Y7488681D02*
G01*
X2606751Y7488681D01*
X2613050Y7489393D01*
X2618536Y7491323D01*
X2623413Y7494371D01*
X2627528Y7498486D01*
X2630576Y7503363D01*
X2632506Y7508849D01*
X2633218Y7515148D01*
X2633218Y7548270D01*
X2573629Y7548270D01*
G37*
G36*
X1679803Y7632293D02*
G01*
X1693367Y7633614D01*
X1706625Y7636814D01*
X1719376Y7641691D01*
X1731314Y7648244D01*
X1742287Y7656322D01*
X1752092Y7665821D01*
X1760575Y7676540D01*
X1767535Y7688275D01*
X1772818Y7700822D01*
X1776425Y7713980D01*
X1778254Y7727492D01*
X1778254Y7741107D01*
X1776425Y7754620D01*
X1772818Y7767777D01*
X1767535Y7780324D01*
X1760575Y7792059D01*
X1752092Y7802778D01*
X1742287Y7812278D01*
X1731314Y7820355D01*
X1719376Y7826908D01*
X1706625Y7831785D01*
X1693367Y7834985D01*
X1679803Y7836306D01*
X1666189Y7835849D01*
X1652727Y7833614D01*
X1639722Y7829550D01*
X1627327Y7823809D01*
X1615846Y7816494D01*
X1605432Y7807706D01*
X1596288Y7797546D01*
X1588566Y7786319D01*
X1582420Y7774178D01*
X1577949Y7761274D01*
X1575206Y7747914D01*
X1574292Y7734300D01*
X1575206Y7720685D01*
X1577949Y7707325D01*
X1582420Y7694422D01*
X1588566Y7682280D01*
X1596288Y7671053D01*
X1605432Y7660894D01*
X1615846Y7652105D01*
X1627327Y7644790D01*
X1639722Y7639050D01*
X1652727Y7634986D01*
X1666189Y7632750D01*
G37*
G36*
X3965803Y7632293D02*
G01*
X3979367Y7633614D01*
X3992626Y7636814D01*
X4005376Y7641691D01*
X4017314Y7648244D01*
X4028287Y7656322D01*
X4038092Y7665821D01*
X4046575Y7676540D01*
X4053535Y7688275D01*
X4058818Y7700822D01*
X4062425Y7713980D01*
X4064254Y7727492D01*
X4064254Y7741107D01*
X4062425Y7754620D01*
X4058818Y7767777D01*
X4053535Y7780324D01*
X4046575Y7792059D01*
X4038092Y7802778D01*
X4028287Y7812278D01*
X4017314Y7820355D01*
X4005376Y7826908D01*
X3992626Y7831785D01*
X3979367Y7834985D01*
X3965803Y7836306D01*
X3952189Y7835849D01*
X3938727Y7833614D01*
X3925722Y7829550D01*
X3913327Y7823809D01*
X3901846Y7816494D01*
X3891432Y7807706D01*
X3882288Y7797546D01*
X3874566Y7786319D01*
X3868420Y7774178D01*
X3863949Y7761274D01*
X3861206Y7747914D01*
X3860292Y7734300D01*
X3861206Y7720685D01*
X3863949Y7707325D01*
X3868420Y7694422D01*
X3874566Y7682280D01*
X3882288Y7671053D01*
X3891432Y7660894D01*
X3901846Y7652105D01*
X3913327Y7644790D01*
X3925722Y7639050D01*
X3938727Y7634986D01*
X3952189Y7632750D01*
G37*
G36*
X4630216Y7886293D02*
G01*
X4643780Y7887614D01*
X4657039Y7890814D01*
X4669790Y7895691D01*
X4681728Y7902244D01*
X4692700Y7910322D01*
X4702505Y7919821D01*
X4710988Y7930540D01*
X4717897Y7942275D01*
X4723231Y7954822D01*
X4726838Y7967980D01*
X4728667Y7981492D01*
X4728667Y7995107D01*
X4726838Y8008620D01*
X4723231Y8021777D01*
X4717897Y8034324D01*
X4714494Y8040116D01*
X4713427Y8042656D01*
X4713071Y8045297D01*
X4713071Y8937193D01*
X4713630Y8940444D01*
X4715205Y8943390D01*
X4730394Y8956243D01*
X4741265Y8967774D01*
X4750663Y8980424D01*
X4758588Y8994089D01*
X4764836Y9008618D01*
X4769358Y9023756D01*
X4772101Y9039301D01*
X4773066Y9055100D01*
X4772101Y9070898D01*
X4769358Y9086443D01*
X4764836Y9101582D01*
X4758588Y9116110D01*
X4750663Y9129776D01*
X4741265Y9142425D01*
X4730394Y9153956D01*
X4718304Y9164116D01*
X4705096Y9172803D01*
X4690973Y9179864D01*
X4676140Y9185300D01*
X4660747Y9188907D01*
X4645050Y9190736D01*
X4629251Y9190736D01*
X4613554Y9188907D01*
X4598162Y9185300D01*
X4583328Y9179864D01*
X4569206Y9172803D01*
X4555998Y9164116D01*
X4543907Y9153956D01*
X4533036Y9142425D01*
X4523638Y9129776D01*
X4515713Y9116110D01*
X4509465Y9101582D01*
X4504944Y9086443D01*
X4502200Y9070898D01*
X4501235Y9055100D01*
X4502200Y9039301D01*
X4504944Y9023756D01*
X4509465Y9008618D01*
X4515713Y8994089D01*
X4523638Y8980424D01*
X4533036Y8967774D01*
X4543907Y8956243D01*
X4559096Y8943390D01*
X4560722Y8940444D01*
X4561230Y8937193D01*
X4561230Y8070951D01*
X4560316Y8066684D01*
X4557623Y8063230D01*
X4555845Y8061706D01*
X4546701Y8051546D01*
X4538980Y8040319D01*
X4532833Y8028178D01*
X4528362Y8015274D01*
X4525619Y8001914D01*
X4524705Y7988300D01*
X4525619Y7974685D01*
X4528362Y7961325D01*
X4532833Y7948422D01*
X4538980Y7936280D01*
X4546701Y7925053D01*
X4555845Y7914894D01*
X4566259Y7906105D01*
X4577740Y7898790D01*
X4590135Y7893050D01*
X4603140Y7888986D01*
X4616602Y7886750D01*
G37*
G36*
X1720850Y7896504D02*
G01*
X1731314Y7902244D01*
X1742287Y7910322D01*
X1752092Y7919821D01*
X1760575Y7930540D01*
X1767535Y7942275D01*
X1768195Y7943850D01*
X1720850Y7943850D01*
G37*
G36*
X1187450Y7896504D02*
G01*
X1197914Y7902244D01*
X1208887Y7910322D01*
X1218692Y7919821D01*
X1227175Y7930540D01*
X1234135Y7942275D01*
X1234795Y7943850D01*
X1187450Y7943850D01*
G37*
G36*
X4006850Y7896504D02*
G01*
X4017314Y7902244D01*
X4028287Y7910322D01*
X4038092Y7919821D01*
X4046575Y7930540D01*
X4053535Y7942275D01*
X4054195Y7943850D01*
X4006850Y7943850D01*
G37*
G36*
X5171236Y7896504D02*
G01*
X5181752Y7902244D01*
X5192725Y7910322D01*
X5202529Y7919821D01*
X5210962Y7930540D01*
X5217922Y7942275D01*
X5218582Y7943850D01*
X5171236Y7943850D01*
G37*
G36*
X5082336Y7896656D02*
G01*
X5082336Y7943850D01*
X5035143Y7943850D01*
X5038953Y7936280D01*
X5046675Y7925053D01*
X5055819Y7914894D01*
X5066233Y7906105D01*
X5077714Y7898790D01*
G37*
G36*
X3917950Y7896656D02*
G01*
X3917950Y7943850D01*
X3870756Y7943850D01*
X3874566Y7936280D01*
X3882288Y7925053D01*
X3891432Y7914894D01*
X3901846Y7906105D01*
X3913327Y7898790D01*
G37*
G36*
X1631950Y7896656D02*
G01*
X1631950Y7943850D01*
X1584756Y7943850D01*
X1588566Y7936280D01*
X1596288Y7925053D01*
X1605432Y7914894D01*
X1615846Y7906105D01*
X1627327Y7898790D01*
G37*
G36*
X5035143Y8032750D02*
G01*
X5082336Y8032750D01*
X5082336Y8079943D01*
X5077714Y8077809D01*
X5066233Y8070494D01*
X5055819Y8061706D01*
X5046675Y8051546D01*
X5038953Y8040319D01*
G37*
G36*
X1584756Y8032750D02*
G01*
X1631950Y8032750D01*
X1631950Y8079943D01*
X1627327Y8077809D01*
X1615846Y8070494D01*
X1605432Y8061706D01*
X1596288Y8051546D01*
X1588566Y8040319D01*
G37*
G36*
X1187450Y8032750D02*
G01*
X1234795Y8032750D01*
X1234135Y8034324D01*
X1227175Y8046059D01*
X1218692Y8056778D01*
X1208887Y8066278D01*
X1197914Y8074355D01*
X1187450Y8080095D01*
G37*
G36*
X1720850Y8032750D02*
G01*
X1768195Y8032750D01*
X1767535Y8034324D01*
X1760575Y8046059D01*
X1752092Y8056778D01*
X1742287Y8066278D01*
X1731314Y8074355D01*
X1720850Y8080095D01*
G37*
G36*
X5171236Y8032750D02*
G01*
X5218582Y8032750D01*
X5217922Y8034324D01*
X5210962Y8046059D01*
X5202529Y8056778D01*
X5192725Y8066278D01*
X5181752Y8074355D01*
X5171236Y8080095D01*
G37*
G36*
X4006850Y8032750D02*
G01*
X4054195Y8032750D01*
X4053535Y8034324D01*
X4046575Y8046059D01*
X4038092Y8056778D01*
X4028287Y8066278D01*
X4017314Y8074355D01*
X4006850Y8080095D01*
G37*
G36*
X1679803Y8140293D02*
G01*
X1693367Y8141614D01*
X1706625Y8144814D01*
X1719376Y8149691D01*
X1731314Y8156244D01*
X1742287Y8164322D01*
X1752092Y8173821D01*
X1760575Y8184540D01*
X1767535Y8196275D01*
X1772818Y8208822D01*
X1776425Y8221980D01*
X1778254Y8235492D01*
X1778254Y8249107D01*
X1776425Y8262620D01*
X1772818Y8275777D01*
X1767535Y8288324D01*
X1760575Y8300059D01*
X1752092Y8310778D01*
X1742287Y8320278D01*
X1731314Y8328355D01*
X1719376Y8334908D01*
X1706625Y8339785D01*
X1693367Y8342985D01*
X1679803Y8344306D01*
X1666189Y8343849D01*
X1652727Y8341614D01*
X1639722Y8337550D01*
X1627327Y8331809D01*
X1615846Y8324494D01*
X1605432Y8315706D01*
X1596288Y8305546D01*
X1588566Y8294319D01*
X1582420Y8282178D01*
X1577949Y8269274D01*
X1575206Y8255914D01*
X1574292Y8242300D01*
X1575206Y8228685D01*
X1577949Y8215325D01*
X1582420Y8202422D01*
X1588566Y8190280D01*
X1596288Y8179053D01*
X1605432Y8168894D01*
X1615846Y8160105D01*
X1627327Y8152790D01*
X1639722Y8147050D01*
X1652727Y8142986D01*
X1666189Y8140750D01*
G37*
G36*
X3112871Y8758072D02*
G01*
X3262528Y8758072D01*
X3268827Y8758783D01*
X3274314Y8760714D01*
X3279190Y8763812D01*
X3283305Y8767876D01*
X3286404Y8772804D01*
X3288284Y8778240D01*
X3288995Y8784539D01*
X3288995Y9046210D01*
X3288284Y9052560D01*
X3286404Y9057995D01*
X3283305Y9062923D01*
X3279190Y9066987D01*
X3274314Y9070086D01*
X3268827Y9071965D01*
X3262528Y9072676D01*
X3112871Y9072676D01*
X3106521Y9071965D01*
X3101086Y9070086D01*
X3096209Y9066987D01*
X3092094Y9062923D01*
X3088995Y9057995D01*
X3087116Y9052560D01*
X3086404Y9046210D01*
X3086404Y8784539D01*
X3087116Y8778240D01*
X3088995Y8772804D01*
X3092094Y8767876D01*
X3096209Y8763812D01*
X3101086Y8760714D01*
X3106521Y8758783D01*
G37*
G36*
X2933700Y8758123D02*
G01*
X2946908Y8758986D01*
X2959912Y8761577D01*
X2972460Y8765844D01*
X2984347Y8771686D01*
X2995371Y8779052D01*
X3005328Y8787790D01*
X3014065Y8797747D01*
X3021431Y8808770D01*
X3027273Y8820658D01*
X3031540Y8833205D01*
X3034131Y8846159D01*
X3034995Y8859723D01*
X3034995Y8971076D01*
X3034131Y8984640D01*
X3031540Y8997594D01*
X3027273Y9010142D01*
X3021431Y9022029D01*
X3014065Y9033052D01*
X3005328Y9043009D01*
X2995371Y9051747D01*
X2984347Y9059113D01*
X2972460Y9064955D01*
X2959912Y9069222D01*
X2946908Y9071813D01*
X2933700Y9072676D01*
X2920492Y9071813D01*
X2907487Y9069222D01*
X2894939Y9064955D01*
X2883052Y9059113D01*
X2872028Y9051747D01*
X2862072Y9043009D01*
X2853334Y9033052D01*
X2845968Y9022029D01*
X2840126Y9010142D01*
X2835859Y8997594D01*
X2833268Y8984640D01*
X2832404Y8971076D01*
X2832404Y8859723D01*
X2833268Y8846159D01*
X2835859Y8833205D01*
X2840126Y8820658D01*
X2845968Y8808770D01*
X2853334Y8797747D01*
X2862072Y8787790D01*
X2872028Y8779052D01*
X2883052Y8771686D01*
X2894939Y8765844D01*
X2907487Y8761577D01*
X2920492Y8758986D01*
G37*
G36*
X1873656Y8768435D02*
G01*
X1873656Y8843365D01*
X1817827Y8843365D01*
X1819859Y8833205D01*
X1824126Y8820658D01*
X1829968Y8808770D01*
X1837334Y8797747D01*
X1846072Y8787790D01*
X1856028Y8779052D01*
X1867052Y8771686D01*
G37*
G36*
X1961743Y8768435D02*
G01*
X1968347Y8771686D01*
X1979371Y8779052D01*
X1989328Y8787790D01*
X1998065Y8797747D01*
X2005431Y8808770D01*
X2011273Y8820658D01*
X2015540Y8833205D01*
X2017572Y8843365D01*
X1961743Y8843365D01*
G37*
G36*
X5075783Y8934094D02*
G01*
X5075783Y8993733D01*
X5015941Y8993733D01*
X5023612Y8980424D01*
X5033060Y8967774D01*
X5043881Y8956243D01*
X5056022Y8946083D01*
X5069179Y8937396D01*
G37*
G36*
X5198516Y8934094D02*
G01*
X5205120Y8937396D01*
X5218277Y8946083D01*
X5230418Y8956243D01*
X5241239Y8967774D01*
X5250688Y8980424D01*
X5258358Y8993733D01*
X5198516Y8993733D01*
G37*
G36*
X5015941Y9116466D02*
G01*
X5075783Y9116466D01*
X5075783Y9176105D01*
X5069179Y9172803D01*
X5056022Y9164116D01*
X5043881Y9153956D01*
X5033060Y9142425D01*
X5023612Y9129776D01*
G37*
G36*
X5198516Y9116466D02*
G01*
X5258358Y9116466D01*
X5250688Y9129776D01*
X5241239Y9142425D01*
X5230418Y9153956D01*
X5218277Y9164116D01*
X5205120Y9172803D01*
X5198516Y9176105D01*
G37*
G36*
X4081221Y9171381D02*
G01*
X4099306Y9172752D01*
X4117086Y9176004D01*
X4134510Y9181084D01*
X4151274Y9187891D01*
X4167225Y9196425D01*
X4182262Y9206534D01*
X4196181Y9218117D01*
X4208830Y9231071D01*
X4220057Y9245295D01*
X4229760Y9260586D01*
X4237888Y9276740D01*
X4244238Y9293707D01*
X4248861Y9311233D01*
X4251655Y9329115D01*
X4252569Y9347200D01*
X4251655Y9365284D01*
X4248861Y9383166D01*
X4244238Y9400692D01*
X4237888Y9417659D01*
X4229760Y9433814D01*
X4220057Y9449104D01*
X4208830Y9463328D01*
X4196181Y9476282D01*
X4182262Y9487865D01*
X4167225Y9497974D01*
X4151274Y9506508D01*
X4134510Y9513316D01*
X4117086Y9518396D01*
X4099306Y9521647D01*
X4081221Y9523018D01*
X4063136Y9522561D01*
X4045153Y9520224D01*
X4027525Y9516110D01*
X4010456Y9510115D01*
X3994048Y9502444D01*
X3978503Y9493148D01*
X3964025Y9482277D01*
X3950715Y9469983D01*
X3938778Y9456369D01*
X3928262Y9441586D01*
X3919372Y9425838D01*
X3912108Y9409226D01*
X3906621Y9392005D01*
X3902913Y9374276D01*
X3901033Y9356242D01*
X3901033Y9338157D01*
X3902913Y9320123D01*
X3906621Y9302394D01*
X3912108Y9285173D01*
X3919372Y9268561D01*
X3928262Y9252813D01*
X3938778Y9238030D01*
X3950715Y9224416D01*
X3964025Y9212122D01*
X3978503Y9201251D01*
X3994048Y9191955D01*
X4010456Y9184284D01*
X4027525Y9178290D01*
X4045153Y9174175D01*
X4063136Y9171838D01*
G37*
G36*
X1096721Y9184081D02*
G01*
X1114806Y9185452D01*
X1132586Y9188704D01*
X1150010Y9193784D01*
X1166774Y9200591D01*
X1182725Y9209125D01*
X1197762Y9219234D01*
X1211681Y9230817D01*
X1224330Y9243771D01*
X1235557Y9257995D01*
X1245260Y9273286D01*
X1253388Y9289440D01*
X1259738Y9306407D01*
X1264361Y9323933D01*
X1267155Y9341815D01*
X1268069Y9359900D01*
X1267155Y9377984D01*
X1264361Y9395866D01*
X1259738Y9413392D01*
X1253388Y9430359D01*
X1245260Y9446514D01*
X1235557Y9461804D01*
X1224330Y9476028D01*
X1211681Y9488982D01*
X1197762Y9500565D01*
X1182725Y9510674D01*
X1166774Y9519208D01*
X1150010Y9526016D01*
X1132586Y9531096D01*
X1114806Y9534347D01*
X1096721Y9535718D01*
X1078636Y9535261D01*
X1060653Y9532924D01*
X1043025Y9528810D01*
X1025956Y9522815D01*
X1009548Y9515144D01*
X994003Y9505848D01*
X979525Y9494977D01*
X966216Y9482683D01*
X954278Y9469069D01*
X943762Y9454286D01*
X934872Y9438538D01*
X927608Y9421926D01*
X922121Y9404705D01*
X918413Y9386976D01*
X916533Y9368942D01*
X916533Y9350857D01*
X918413Y9332823D01*
X922121Y9315094D01*
X927608Y9297873D01*
X934872Y9281261D01*
X943762Y9265513D01*
X954278Y9250730D01*
X966216Y9237116D01*
X979525Y9224822D01*
X994003Y9213951D01*
X1009548Y9204655D01*
X1025956Y9196984D01*
X1043025Y9190990D01*
X1060653Y9186875D01*
X1078636Y9184538D01*
G37*

%LPD*%
G36*
X1202588Y6040120D02*
G01*
X1197914Y6042355D01*
X1185976Y6048908D01*
X1173226Y6053785D01*
X1159967Y6056985D01*
X1146403Y6058306D01*
X1138986Y6058103D01*
X1134922Y6058763D01*
X1131468Y6061049D01*
X1093012Y6099505D01*
X1090777Y6102858D01*
X1090066Y6106769D01*
X1090879Y6110732D01*
X1093216Y6114034D01*
X1096619Y6116167D01*
X1098550Y6116472D01*
X1098550Y6165850D01*
X1079398Y6165850D01*
X1075537Y6166612D01*
X1072235Y6168847D01*
X1070051Y6172098D01*
X1069238Y6176010D01*
X1069238Y6244590D01*
X1070051Y6248501D01*
X1072235Y6251752D01*
X1075537Y6253988D01*
X1079398Y6254750D01*
X1098550Y6254750D01*
X1098550Y6301943D01*
X1093927Y6299809D01*
X1084884Y6294069D01*
X1080820Y6292545D01*
X1076553Y6292850D01*
X1072743Y6294932D01*
X1070152Y6298387D01*
X1069238Y6302603D01*
X1069238Y6371996D01*
X1070152Y6376212D01*
X1072743Y6379667D01*
X1076553Y6381750D01*
X1080820Y6382054D01*
X1084884Y6380530D01*
X1093927Y6374790D01*
X1106322Y6369050D01*
X1119327Y6364986D01*
X1132789Y6362750D01*
X1146403Y6362293D01*
X1159967Y6363614D01*
X1173226Y6366814D01*
X1185976Y6371691D01*
X1197914Y6378244D01*
X1202588Y6380480D01*
X1207058Y6380378D01*
X1211021Y6378346D01*
X1213764Y6374841D01*
X1214729Y6370523D01*
X1214729Y6304076D01*
X1213764Y6299758D01*
X1211021Y6296253D01*
X1207058Y6294221D01*
X1202588Y6294120D01*
X1197914Y6296355D01*
X1187450Y6302095D01*
X1187450Y6254750D01*
X1204569Y6254750D01*
X1208481Y6253988D01*
X1211732Y6251752D01*
X1213967Y6248501D01*
X1214729Y6244590D01*
X1214729Y6176010D01*
X1213967Y6172098D01*
X1211732Y6168847D01*
X1208481Y6166612D01*
X1204569Y6165850D01*
X1187450Y6165850D01*
X1187450Y6118504D01*
X1198524Y6124702D01*
X1202588Y6126480D01*
X1207058Y6126378D01*
X1211021Y6124346D01*
X1213764Y6120841D01*
X1214729Y6116523D01*
X1214729Y6050076D01*
X1213764Y6045758D01*
X1211021Y6042253D01*
X1207058Y6040221D01*
G37*

%LPD*%
D10*
X4637153Y9055097D02*
G01*
X4637153Y7998660D01*
X4626790Y7988297D01*
D11*
X2973402Y5397497D02*
G01*
X2973402Y5521068D01*
X3137512Y6477607D02*
G01*
X2977441Y6477607D01*
X2973402Y5521068D02*
G01*
X3032381Y5521068D01*
X3144878Y5633565D01*
X3144878Y5633565D02*
G01*
X3144878Y5708241D01*
X2977441Y5875677D01*
X2977441Y6477607D01*
X2984502Y3848097D02*
G01*
X3130857Y3701742D01*
X3314169Y3701742D01*
X3426208Y3813782D01*
X3426208Y5600748D01*
X3144878Y5633565D02*
G01*
X3364511Y5633565D01*
X3397328Y5600748D01*
X3426208Y5600748D01*
X3426208Y5600748D02*
G01*
X3471979Y5600748D01*
X3524785Y5653554D01*
X3524785Y5688225D01*
X3687345Y5850785D01*
X3766949Y5850785D01*
X3788437Y5829297D01*
X4597402Y5829297D01*
X4787902Y6019797D01*
X2425702Y8915397D02*
G01*
X2234694Y9106405D01*
X1863930Y9106405D01*
X1465506Y8707981D01*
X1465506Y5343039D01*
X1614248Y5194297D01*
X1676402Y5194297D01*
D12*
X1143002Y5956297D02*
G01*
X1003353Y6095946D01*
X1003353Y8102648D01*
X1143002Y8242297D01*
D11*
X2171499Y6985607D02*
G01*
X2331570Y6985607D01*
X2363802Y5676897D02*
G01*
X2363802Y5553326D01*
X2363802Y5553326D02*
G01*
X2265250Y5553326D01*
X1804037Y5092113D01*
X1804037Y4813932D01*
X1676402Y4686297D01*
X2363802Y5676897D02*
G01*
X2363802Y5832701D01*
X2436624Y5905522D01*
X2436624Y6880552D01*
X2331570Y6985607D01*
X2679702Y8915397D02*
G01*
X2391336Y9203763D01*
X1826237Y9203763D01*
X1375539Y8753066D01*
X1375539Y5241160D01*
X1676402Y4940297D01*
X5137152Y9055097D02*
G01*
X5126789Y9044734D01*
X5126789Y7988297D01*
X3962402Y7988297D02*
G01*
X4101467Y7849232D01*
X4101467Y7404732D01*
X4267202Y7238997D01*
X5041902Y6527797D02*
G01*
X5041902Y6273797D01*
X5041902Y6273797D02*
G01*
X5041902Y6019797D01*
X5041902Y6019797D02*
G01*
X5041902Y5765797D01*
X5041902Y5765797D02*
G01*
X5041902Y5511797D01*
X5041902Y6527797D02*
G01*
X5041902Y6781797D01*
X5041902Y6781797D02*
G01*
X5041902Y7903410D01*
X5126789Y7988297D01*
X5041902Y5511797D02*
G01*
X5041902Y5257797D01*
X5041902Y5257797D02*
G01*
X5192295Y5107404D01*
X5192295Y3946878D01*
X5144315Y3898897D01*
X3137512Y6985607D02*
G01*
X2929663Y6985607D01*
X2527302Y7387968D01*
X2527302Y7594597D01*
X3297582Y6985607D02*
G01*
X3310892Y6972297D01*
X3962402Y6972297D01*
X3137512Y6985607D02*
G01*
X3297582Y6985607D01*
X1917702Y8915397D02*
G01*
X1917702Y8229597D01*
X1676402Y7988297D01*
X1676402Y7988297D02*
G01*
X1548767Y7860662D01*
X1548767Y6337932D01*
X1676402Y6210297D01*
X1676402Y6210297D02*
G01*
X1548157Y6082052D01*
X1548157Y5396557D01*
X1623418Y5321297D01*
X1749427Y5321297D01*
X2171499Y5743369D01*
X2171499Y5969607D01*
X2452702Y5521068D02*
G01*
X2498600Y5521068D01*
X2760296Y5782764D01*
X2760296Y6514462D01*
X2977441Y6731607D01*
X2452702Y5397497D02*
G01*
X2452702Y5521068D01*
X3137512Y6731607D02*
G01*
X2977441Y6731607D01*
X4787902Y5257797D02*
G01*
X4471037Y5574662D01*
X3895676Y5574662D01*
X3729611Y5740727D01*
X3729611Y5760641D01*
X3137512Y6731607D02*
G01*
X3297582Y6731607D01*
X3297582Y6731607D02*
G01*
X3297582Y6546669D01*
X1676402Y6718297D02*
G01*
X1816712Y6858607D01*
X2171499Y6858607D01*
X2252957Y5399910D02*
G01*
X2348689Y5399910D01*
X2351102Y5397497D01*
D10*
X2957426Y7112607D02*
G01*
X2957426Y7258377D01*
X2781302Y7434501D01*
X3137512Y7112607D02*
G01*
X2957426Y7112607D01*
X2781302Y7594597D02*
G01*
X2781302Y7434501D01*
X2351585Y7112607D02*
G01*
X2351585Y7688018D01*
X2415466Y7751899D01*
X2656842Y7751899D01*
X2781302Y7627439D01*
X2781302Y7594597D01*
X3962402Y8242297D02*
G01*
X3317598Y7597493D01*
X3317598Y7112607D01*
X3137512Y7112607D02*
G01*
X3317598Y7112607D01*
X2261542Y7112607D02*
G01*
X2351585Y7112607D01*
X2261542Y7112607D02*
G01*
X2171499Y7112607D01*
X2171499Y7112607D02*
G01*
X1991413Y7112607D01*
X1991413Y7112607D02*
G01*
X1991413Y7039251D01*
D11*
X3137512Y6858607D02*
G01*
X3297582Y6858607D01*
X4782898Y7173033D02*
G01*
X4455162Y6845297D01*
X3310892Y6845297D01*
X3297582Y6858607D01*
X2465402Y5800468D02*
G01*
X2557122Y5892187D01*
X2557122Y6438287D01*
X2977441Y6858607D01*
X2465402Y5676897D02*
G01*
X2465402Y5800468D01*
X3137512Y6858607D02*
G01*
X2977441Y6858607D01*
X4787902Y6273797D02*
G01*
X4724402Y6337297D01*
X3310892Y6337297D01*
X3297582Y6350607D01*
X3137512Y6350607D02*
G01*
X3297582Y6350607D01*
X2452702Y4981826D02*
G01*
X2730502Y4704026D01*
X2730502Y3848097D01*
X2452702Y5105397D02*
G01*
X2452702Y4981826D01*
X3678506Y5641337D02*
G01*
X3632024Y5594855D01*
X3632024Y3889372D01*
X3358415Y3615763D01*
X2962836Y3615763D01*
X2730502Y3848097D01*
X5041902Y5003797D02*
G01*
X4894480Y4856375D01*
X4613277Y4856375D01*
X4402990Y5066662D01*
X3780919Y5066662D01*
X3722169Y5125412D01*
X2973402Y5105397D02*
G01*
X2973402Y5228968D01*
X2973402Y5228968D02*
G01*
X3044471Y5228968D01*
X3336063Y5520560D01*
X3434641Y5690892D02*
G01*
X3434641Y6086548D01*
X3297582Y6223607D01*
X3137512Y6223607D02*
G01*
X3297582Y6223607D01*
X2346479Y5942860D02*
G01*
X2331570Y5957770D01*
X2331570Y6350607D01*
X2171499Y6350607D02*
G01*
X2331570Y6350607D01*
X2871802Y4916624D02*
G01*
X2871802Y5105397D01*
X2351102Y4981826D02*
G01*
X1929081Y4559805D01*
X1611353Y4559805D01*
X1270637Y4900521D01*
X1270637Y6844662D01*
X1143002Y6972297D01*
X2351102Y5105397D02*
G01*
X2351102Y4981826D01*
X2171499Y6477607D02*
G01*
X2331570Y6477607D01*
X1893902Y6577352D02*
G01*
X1789457Y6577352D01*
X1676402Y6464297D01*
X2011428Y6731607D02*
G01*
X1893902Y6614081D01*
X1893902Y6577352D01*
X2859102Y5676897D02*
G01*
X2859102Y5553326D01*
X2171499Y6731607D02*
G01*
X2011428Y6731607D01*
X2171499Y6604607D02*
G01*
X2011428Y6604607D01*
X1676402Y5448297D02*
G01*
X2011428Y5783323D01*
X2011428Y6604607D01*
X1143002Y5448297D02*
G01*
X1002337Y5307632D01*
X1002337Y5133362D01*
X1051664Y5084036D01*
X2564792Y5201536D02*
G01*
X2637182Y5273926D01*
X2871802Y5273926D01*
X2871802Y5397497D02*
G01*
X2871802Y5273926D01*
X3137512Y6604607D02*
G01*
X2977441Y6604607D01*
X3054733Y5670903D02*
G01*
X2966697Y5670903D01*
X2960702Y5676897D01*
X2960702Y5676897D02*
G01*
X2960702Y5763206D01*
X2890547Y5833361D01*
X2890547Y6517713D01*
X2977441Y6604607D01*
D13*
G01*
X2171496Y7112609D03*
G01*
X2171496Y6985609D03*
G01*
X2171496Y6858609D03*
G01*
X2171496Y6731609D03*
G01*
X2171496Y6604609D03*
G01*
X2171496Y6477609D03*
G01*
X2171496Y6350609D03*
G01*
X2171496Y6223609D03*
G01*
X2171496Y6096609D03*
G01*
X2171496Y5969609D03*
G01*
X3137509Y5969609D03*
G01*
X3137509Y6096609D03*
G01*
X3137509Y6223609D03*
G01*
X3137509Y6350609D03*
G01*
X3137509Y6477609D03*
G01*
X3137509Y6604609D03*
G01*
X3137509Y6731609D03*
G01*
X3137509Y6858609D03*
G01*
X3137509Y6985609D03*
G01*
X3137509Y7112609D03*
D14*
G01*
X2452700Y5397500D03*
G01*
X2351100Y5397500D03*
G01*
X2960700Y5676900D03*
G01*
X2859100Y5676900D03*
G01*
X2973400Y5397500D03*
G01*
X2871800Y5397500D03*
G01*
X2452700Y5105400D03*
G01*
X2351100Y5105400D03*
G01*
X2973400Y5105400D03*
G01*
X2871800Y5105400D03*
G01*
X2465400Y5676900D03*
G01*
X2363800Y5676900D03*
D16*
G01*
X2730500Y3848100D03*
G01*
X2476500Y3848100D03*
G01*
X2222500Y3848100D03*
G01*
X2984500Y3848100D03*
G01*
X3238500Y3848100D03*
D17*
G01*
X4267200Y4356100D03*
G01*
X4267200Y4064000D03*
D18*
G01*
X4734306Y3898900D03*
G01*
X5144312Y3898900D03*
D19*
G01*
X2781300Y7594600D03*
G01*
X2527300Y7594600D03*
D17*
G01*
X4626787Y7988300D03*
G01*
X5126786Y7988300D03*
G01*
X4267200Y7239000D03*
G01*
X4267200Y7531100D03*
D20*
G01*
X5041900Y5003800D03*
G01*
X4787900Y5003800D03*
G01*
X5041900Y5257800D03*
G01*
X4787900Y5257800D03*
G01*
X5041900Y5511800D03*
G01*
X4787900Y5511800D03*
G01*
X5041900Y5765800D03*
G01*
X4787900Y5765800D03*
G01*
X5041900Y6019800D03*
G01*
X4787900Y6019800D03*
G01*
X5041900Y6273800D03*
G01*
X4787900Y6273800D03*
G01*
X5041900Y6527800D03*
G01*
X4787900Y6527800D03*
G01*
X5041900Y6781800D03*
G01*
X4787900Y6781800D03*
D21*
G01*
X3962400Y4686300D03*
D17*
G01*
X3962400Y4940300D03*
G01*
X3962400Y5194300D03*
G01*
X3962400Y5448300D03*
G01*
X3962400Y5702300D03*
G01*
X3962400Y5956300D03*
G01*
X3962400Y6210300D03*
G01*
X3962400Y6464300D03*
G01*
X3962400Y6718300D03*
G01*
X3962400Y6972300D03*
G01*
X3962400Y7226300D03*
G01*
X3962400Y7480300D03*
G01*
X3962400Y7734300D03*
G01*
X3962400Y7988300D03*
G01*
X3962400Y8242300D03*
G01*
X1143000Y8242300D03*
G01*
X1143000Y7988300D03*
G01*
X1143000Y7734300D03*
G01*
X1143000Y7480300D03*
G01*
X1143000Y7226300D03*
G01*
X1143000Y6972300D03*
G01*
X1143000Y6718300D03*
G01*
X1143000Y6464300D03*
G01*
X1143000Y6210300D03*
G01*
X1143000Y5956300D03*
G01*
X1143000Y5702300D03*
G01*
X1143000Y5448300D03*
G01*
X1143000Y5194300D03*
G01*
X1143000Y4940300D03*
G01*
X1143000Y4686300D03*
G01*
X1676400Y4686300D03*
G01*
X1676400Y4940300D03*
G01*
X1676400Y5194300D03*
G01*
X1676400Y5448300D03*
G01*
X1676400Y5702300D03*
G01*
X1676400Y5956300D03*
G01*
X1676400Y6210300D03*
G01*
X1676400Y6464300D03*
G01*
X1676400Y6718300D03*
G01*
X1676400Y6972300D03*
G01*
X1676400Y7226300D03*
G01*
X1676400Y7480300D03*
G01*
X1676400Y7734300D03*
G01*
X1676400Y7988300D03*
G01*
X1676400Y8242300D03*
D22*
G01*
X5137150Y9055100D03*
G01*
X4637150Y9055100D03*
D23*
G01*
X3187700Y8915400D03*
D24*
G01*
X2933700Y8915400D03*
G01*
X2679700Y8915400D03*
G01*
X2425700Y8915400D03*
G01*
X2171700Y8915400D03*
G01*
X1917700Y8915400D03*
D12*
G01*
X3054733Y5670903D03*
G01*
X2564792Y5201536D03*
G01*
X1051664Y5084036D03*
G01*
X2859102Y5553326D03*
G01*
X1893902Y6577352D03*
G01*
X2331570Y6477607D03*
G01*
X2871802Y4916624D03*
G01*
X2346479Y5942860D03*
G01*
X3434641Y5690892D03*
G01*
X3336063Y5520560D03*
G01*
X3722169Y5125412D03*
G01*
X3678506Y5641337D03*
G01*
X4782898Y7173033D03*
G01*
X1991413Y7039251D03*
G01*
X2252957Y5399910D03*
G01*
X3297582Y6546669D03*
G01*
X3729611Y5760641D03*
M02*
