G04 Layer: TopSolderMaskLayer*
G04 EasyEDA v6.5.51, 2025-12-26 17:02:00*
G04 33036f597f014d529b982e6e107a74c3,91ba8e619f114f4d89d8c9e58aa62e6b,10*
G04 Gerber Generator version 0.2*
G04 Scale: 100 percent, Rotated: No, Reflected: No *
G04 Dimensions in millimeters *
G04 leading zeros omitted , absolute positions ,4 integer and 5 decimal *
%FSLAX45Y45*%
%MOMM*%

%AMMACRO1*4,1,8,-0.8421,-0.9016,-0.9016,-0.8421,-0.9016,0.8421,-0.8421,0.9016,0.8421,0.9016,0.9016,0.8421,0.9016,-0.8421,0.8421,-0.9016,-0.8421,-0.9016,0*%
%AMMACRO2*4,1,8,-1.0211,-0.3758,-1.0508,-0.346,-1.0508,0.346,-1.0211,0.3758,1.021,0.3758,1.0508,0.346,1.0508,-0.346,1.021,-0.3758,-1.0211,-0.3758,0*%
%AMMACRO3*4,1,8,-0.3386,-0.6858,-0.3683,-0.656,-0.3683,0.6561,-0.3386,0.6858,0.3385,0.6858,0.3683,0.6561,0.3683,-0.656,0.3385,-0.6858,-0.3386,-0.6858,0*%
%AMMACRO4*4,1,8,-0.8041,-0.8636,-0.8636,-0.8041,-0.8636,0.8041,-0.8041,0.8636,0.8041,0.8636,0.8636,0.8041,0.8636,-0.8041,0.8041,-0.8636,-0.8041,-0.8636,0*%
%AMMACRO5*4,1,8,-0.7751,-1.3648,-0.8048,-1.335,-0.8048,1.335,-0.7751,1.3648,0.775,1.3648,0.8048,1.335,0.8048,-1.335,0.775,-1.3648,-0.7751,-1.3648,0*%
%ADD10C,2.0832*%
%ADD11C,1.6256*%
%ADD12C,1.7272*%
%ADD13C,1.8000*%
%ADD14MACRO1*%
%ADD15MACRO2*%
%ADD16MACRO3*%
%ADD17C,0.0193*%
%ADD18C,1.8796*%
%ADD19MACRO4*%
%ADD20C,2.3000*%
%ADD21MACRO5*%
%ADD22O,1.609598X2.729586*%

%LPD*%
D10*
G01*
X2730500Y3848100D03*
G01*
X2476500Y3848100D03*
G01*
X2222500Y3848100D03*
G01*
X2984500Y3848100D03*
G01*
X3238500Y3848100D03*
D11*
G01*
X4267200Y4356100D03*
D12*
G01*
X4267200Y4064000D03*
D13*
G01*
X4734306Y3898900D03*
G01*
X5144312Y3898900D03*
D14*
G01*
X2781300Y7594600D03*
G01*
X2527300Y7594600D03*
D11*
G01*
X4626787Y7988300D03*
G01*
X5126786Y7988300D03*
G01*
X4267200Y7239000D03*
D12*
G01*
X4267200Y7531100D03*
D15*
G01*
X2171506Y7112599D03*
G01*
X2171506Y6985599D03*
G01*
X2171506Y6858599D03*
G01*
X2171506Y6731599D03*
G01*
X2171506Y6604599D03*
G01*
X2171506Y6477599D03*
G01*
X2171506Y6350599D03*
G01*
X2171506Y6223599D03*
G01*
X2171506Y6096599D03*
G01*
X2171506Y5969599D03*
G01*
X3137509Y5969599D03*
G01*
X3137509Y6096599D03*
G01*
X3137509Y6223599D03*
G01*
X3137509Y6350599D03*
G01*
X3137509Y6477599D03*
G01*
X3137509Y6604599D03*
G01*
X3137509Y6731599D03*
G01*
X3137509Y6858599D03*
G01*
X3137509Y6985599D03*
G01*
X3137504Y7112599D03*
D16*
G01*
X2452700Y5397500D03*
G01*
X2351100Y5397500D03*
G01*
X2960700Y5676900D03*
G01*
X2859100Y5676900D03*
G01*
X2973400Y5397500D03*
G01*
X2871800Y5397500D03*
G01*
X2452700Y5105400D03*
G01*
X2351100Y5105400D03*
G01*
X2973400Y5105400D03*
G01*
X2871800Y5105400D03*
G01*
X2465400Y5676900D03*
G01*
X2363800Y5676900D03*
D18*
G01*
X5041900Y5003800D03*
G01*
X4787900Y5003800D03*
G01*
X5041900Y5257800D03*
G01*
X4787900Y5257800D03*
G01*
X5041900Y5511800D03*
G01*
X4787900Y5511800D03*
G01*
X5041900Y5765800D03*
G01*
X4787900Y5765800D03*
G01*
X5041900Y6019800D03*
G01*
X4787900Y6019800D03*
G01*
X5041900Y6273800D03*
G01*
X4787900Y6273800D03*
G01*
X5041900Y6527800D03*
G01*
X4787900Y6527800D03*
G01*
X5041900Y6781800D03*
G01*
X4787900Y6781800D03*
D19*
G01*
X3962400Y4686300D03*
D12*
G01*
X3962400Y4940300D03*
G01*
X3962400Y5194300D03*
G01*
X3962400Y5448300D03*
G01*
X3962400Y5702300D03*
G01*
X3962400Y5956300D03*
G01*
X3962400Y6210300D03*
G01*
X3962400Y6464300D03*
G01*
X3962400Y6718300D03*
G01*
X3962400Y6972300D03*
G01*
X3962400Y7226300D03*
G01*
X3962400Y7480300D03*
G01*
X3962400Y7734300D03*
G01*
X3962400Y7988300D03*
G01*
X3962400Y8242300D03*
G01*
X1143000Y8242300D03*
G01*
X1143000Y7988300D03*
G01*
X1143000Y7734300D03*
G01*
X1143000Y7480300D03*
G01*
X1143000Y7226300D03*
G01*
X1143000Y6972300D03*
G01*
X1143000Y6718300D03*
G01*
X1143000Y6464300D03*
G01*
X1143000Y6210300D03*
G01*
X1143000Y5956300D03*
G01*
X1143000Y5702300D03*
G01*
X1143000Y5448300D03*
G01*
X1143000Y5194300D03*
G01*
X1143000Y4940300D03*
G01*
X1143000Y4686300D03*
G01*
X1676400Y4686300D03*
G01*
X1676400Y4940300D03*
G01*
X1676400Y5194300D03*
G01*
X1676400Y5448300D03*
G01*
X1676400Y5702300D03*
G01*
X1676400Y5956300D03*
G01*
X1676400Y6210300D03*
G01*
X1676400Y6464300D03*
G01*
X1676400Y6718300D03*
G01*
X1676400Y6972300D03*
G01*
X1676400Y7226300D03*
G01*
X1676400Y7480300D03*
G01*
X1676400Y7734300D03*
G01*
X1676400Y7988300D03*
G01*
X1676400Y8242300D03*
D20*
G01*
X5137150Y9055100D03*
G01*
X4637150Y9055100D03*
D21*
G01*
X3187700Y8915400D03*
D22*
G01*
X2933700Y8915400D03*
G01*
X2679700Y8915400D03*
G01*
X2425700Y8915400D03*
G01*
X2171700Y8915400D03*
G01*
X1917700Y8915400D03*
M02*
