G04 Layer: TopSilkscreenLayer*
G04 EasyEDA v6.5.51, 2025-12-26 17:02:00*
G04 33036f597f014d529b982e6e107a74c3,91ba8e619f114f4d89d8c9e58aa62e6b,10*
G04 Gerber Generator version 0.2*
G04 Scale: 100 percent, Rotated: No, Reflected: No *
G04 Dimensions in millimeters *
G04 leading zeros omitted , absolute positions ,4 integer and 5 decimal *
%FSLAX45Y45*%
%MOMM*%

%ADD10C,0.2032*%
%ADD11C,0.1524*%
%ADD12C,0.1520*%
%ADD13C,0.2540*%
%ADD14C,0.2000*%
%ADD15C,0.1501*%
%ADD16C,0.0158*%
%ADD17C,0.1200*%
%ADD18C,0.5000*%

%LPD*%
G36*
X918464Y8797290D02*
G01*
X917194Y8786114D01*
X831342Y8786114D01*
X829818Y8796528D01*
X825500Y8796528D01*
X825500Y8764778D01*
X829818Y8764778D01*
X831342Y8774430D01*
X875284Y8774430D01*
X879703Y8769096D01*
X882497Y8764168D01*
X884021Y8759342D01*
X884428Y8754618D01*
X883615Y8749487D01*
X880821Y8745829D01*
X875639Y8743645D01*
X867664Y8742934D01*
X831342Y8743188D01*
X829818Y8753602D01*
X825500Y8753602D01*
X825500Y8721598D01*
X829818Y8721598D01*
X831342Y8731250D01*
X867918Y8731504D01*
X874268Y8731808D01*
X879602Y8732621D01*
X883970Y8734044D01*
X887476Y8736025D01*
X890117Y8738565D01*
X891895Y8741664D01*
X892962Y8745321D01*
X893318Y8749538D01*
X892403Y8756243D01*
X889812Y8762898D01*
X885698Y8769197D01*
X880364Y8774938D01*
X907542Y8774938D01*
X927353Y8774430D01*
X928369Y8776208D01*
X922528Y8797290D01*
G37*
G36*
X885444Y8716264D02*
G01*
X885444Y8704580D01*
X839978Y8704580D01*
X832713Y8703513D01*
X827684Y8700414D01*
X824687Y8695486D01*
X823721Y8688832D01*
X824179Y8683853D01*
X825550Y8679484D01*
X827786Y8675827D01*
X830834Y8672830D01*
X834136Y8675624D01*
X832307Y8678113D01*
X831037Y8680399D01*
X830326Y8682685D01*
X830071Y8685022D01*
X830681Y8688425D01*
X832510Y8690965D01*
X835761Y8692591D01*
X840486Y8693150D01*
X885444Y8693150D01*
X885444Y8674354D01*
X891286Y8674354D01*
X891286Y8692896D01*
X910590Y8692134D01*
X910590Y8700262D01*
X891794Y8703818D01*
X890269Y8716264D01*
G37*
G36*
X885444Y8670036D02*
G01*
X885444Y8658098D01*
X839978Y8658098D01*
X832713Y8657031D01*
X827684Y8653932D01*
X824687Y8649004D01*
X823721Y8642350D01*
X824179Y8637371D01*
X825550Y8633002D01*
X827786Y8629345D01*
X830834Y8626348D01*
X834136Y8629142D01*
X832307Y8631631D01*
X831037Y8633968D01*
X830326Y8636304D01*
X830071Y8638794D01*
X830681Y8642045D01*
X832510Y8644534D01*
X835761Y8646109D01*
X840486Y8646668D01*
X885444Y8646668D01*
X885444Y8627872D01*
X891286Y8627872D01*
X891286Y8646414D01*
X910590Y8645652D01*
X910590Y8653780D01*
X891794Y8657336D01*
X890269Y8670036D01*
G37*
G36*
X792226Y8620760D02*
G01*
X792226Y8585200D01*
X796544Y8585200D01*
X798322Y8597900D01*
X833119Y8598154D01*
X828548Y8593632D01*
X825652Y8588959D01*
X824179Y8584133D01*
X823989Y8582152D01*
X830834Y8582152D01*
X831189Y8586114D01*
X832358Y8590026D01*
X834491Y8593937D01*
X837692Y8597900D01*
X878586Y8597900D01*
X882446Y8592616D01*
X884783Y8588146D01*
X885901Y8584285D01*
X886206Y8580882D01*
X885748Y8577021D01*
X884428Y8573566D01*
X882192Y8570468D01*
X879043Y8567877D01*
X875080Y8565743D01*
X870254Y8564168D01*
X864565Y8563203D01*
X858012Y8562848D01*
X851306Y8563254D01*
X845616Y8564372D01*
X840943Y8566150D01*
X837184Y8568486D01*
X834339Y8571331D01*
X832358Y8574633D01*
X831189Y8578240D01*
X830834Y8582152D01*
X823989Y8582152D01*
X823721Y8579358D01*
X824331Y8573465D01*
X826211Y8568029D01*
X829208Y8563203D01*
X833272Y8559038D01*
X838352Y8555634D01*
X844397Y8553094D01*
X851306Y8551468D01*
X859028Y8550910D01*
X866648Y8551418D01*
X873404Y8552942D01*
X879246Y8555380D01*
X884174Y8558580D01*
X888085Y8562492D01*
X890981Y8566962D01*
X892708Y8571941D01*
X893318Y8577326D01*
X892708Y8582812D01*
X890879Y8588146D01*
X887628Y8593378D01*
X882903Y8598408D01*
X891794Y8599424D01*
X893064Y8601202D01*
X885444Y8620760D01*
X881380Y8620760D01*
X880364Y8609584D01*
X871829Y8609380D01*
X804214Y8609431D01*
X798322Y8609584D01*
X796544Y8620760D01*
G37*
G36*
X844296Y8537702D02*
G01*
X829056Y8537448D01*
X826719Y8532418D01*
X825042Y8527389D01*
X824077Y8522208D01*
X823721Y8516620D01*
X824128Y8510371D01*
X825296Y8504936D01*
X827176Y8500262D01*
X829614Y8496503D01*
X832561Y8493506D01*
X835914Y8491423D01*
X839622Y8490102D01*
X843534Y8489696D01*
X849630Y8490762D01*
X855014Y8494064D01*
X859637Y8499957D01*
X863600Y8508746D01*
X867816Y8519566D01*
X870407Y8523579D01*
X873556Y8525814D01*
X877569Y8526526D01*
X881837Y8525611D01*
X885037Y8523020D01*
X887018Y8518702D01*
X887730Y8512810D01*
X887171Y8507831D01*
X886460Y8505393D01*
X885444Y8502904D01*
X873506Y8500110D01*
X873506Y8494014D01*
X887730Y8493506D01*
X890117Y8498078D01*
X891844Y8502700D01*
X892962Y8507526D01*
X893318Y8512810D01*
X892911Y8518398D01*
X891743Y8523274D01*
X889914Y8527440D01*
X887476Y8530894D01*
X884580Y8533638D01*
X881329Y8535619D01*
X877773Y8536787D01*
X874014Y8537194D01*
X867562Y8535974D01*
X862380Y8532469D01*
X858316Y8527135D01*
X854964Y8520176D01*
X852932Y8513572D01*
X850392Y8507679D01*
X847648Y8503666D01*
X844346Y8501380D01*
X840232Y8500618D01*
X835710Y8501583D01*
X832154Y8504529D01*
X829868Y8509508D01*
X829056Y8516620D01*
X829208Y8519871D01*
X829614Y8522817D01*
X830326Y8525510D01*
X831342Y8528050D01*
X844296Y8531098D01*
G37*
G36*
X884428Y8472932D02*
G01*
X880821Y8472170D01*
X877824Y8470138D01*
X875792Y8467140D01*
X875030Y8463534D01*
X875792Y8459774D01*
X877824Y8456726D01*
X880821Y8454644D01*
X884428Y8453882D01*
X888187Y8454644D01*
X891235Y8456726D01*
X893318Y8459774D01*
X894080Y8463534D01*
X893318Y8467140D01*
X891235Y8470138D01*
X888187Y8472170D01*
G37*
G36*
X833119Y8472932D02*
G01*
X829513Y8472170D01*
X826516Y8470138D01*
X824484Y8467140D01*
X823721Y8463534D01*
X824484Y8459774D01*
X826516Y8456726D01*
X829513Y8454644D01*
X833119Y8453882D01*
X836879Y8454644D01*
X839927Y8456726D01*
X842010Y8459774D01*
X842771Y8463534D01*
X842010Y8467140D01*
X839927Y8470138D01*
X836879Y8472170D01*
G37*
G36*
X803402Y8441944D02*
G01*
X803402Y8434324D01*
X924306Y8397240D01*
X924306Y8404606D01*
G37*
G36*
X803402Y8407654D02*
G01*
X803402Y8400034D01*
X924306Y8362950D01*
X924306Y8370316D01*
G37*
G36*
X809244Y8361934D02*
G01*
X805688Y8361527D01*
X802386Y8360257D01*
X799490Y8358124D01*
X797001Y8355075D01*
X795020Y8351062D01*
X793496Y8346084D01*
X792530Y8340039D01*
X792226Y8332978D01*
X797814Y8332978D01*
X798576Y8340445D01*
X801014Y8346236D01*
X805230Y8349945D01*
X811276Y8351266D01*
X814730Y8350910D01*
X817880Y8349894D01*
X820826Y8348065D01*
X823721Y8345424D01*
X823721Y8322564D01*
X822807Y8316264D01*
X820419Y8311997D01*
X816864Y8309609D01*
X812546Y8308848D01*
X806704Y8310422D01*
X802030Y8314994D01*
X798931Y8322564D01*
X797814Y8332978D01*
X792226Y8332978D01*
X792784Y8325002D01*
X794258Y8318093D01*
X796645Y8312200D01*
X799693Y8307374D01*
X803300Y8303564D01*
X807313Y8300872D01*
X811631Y8299246D01*
X816102Y8298688D01*
X823569Y8300059D01*
X829056Y8304123D01*
X832459Y8311134D01*
X833628Y8321040D01*
X833628Y8339581D01*
X834085Y8343849D01*
X835406Y8346592D01*
X837488Y8348065D01*
X840232Y8348472D01*
X842619Y8348218D01*
X844905Y8347506D01*
X847140Y8346338D01*
X849376Y8344662D01*
X848563Y8342071D01*
X848004Y8339378D01*
X847615Y8333994D01*
X852169Y8333994D01*
X853490Y8339785D01*
X857199Y8344103D01*
X862990Y8346795D01*
X870458Y8347709D01*
X877773Y8346744D01*
X883462Y8343950D01*
X887171Y8339480D01*
X888492Y8333486D01*
X887221Y8327542D01*
X883615Y8323173D01*
X877976Y8320430D01*
X870712Y8319516D01*
X863295Y8320481D01*
X857453Y8323325D01*
X853592Y8327898D01*
X852169Y8333994D01*
X847615Y8333994D01*
X848004Y8328253D01*
X849121Y8323478D01*
X851052Y8319262D01*
X853643Y8315604D01*
X856945Y8312658D01*
X860907Y8310422D01*
X865479Y8309051D01*
X870712Y8308594D01*
X874521Y8308848D01*
X877976Y8309508D01*
X881126Y8310625D01*
X883919Y8312150D01*
X883412Y8298180D01*
X891794Y8298180D01*
X893064Y8300212D01*
X887730Y8315959D01*
X890219Y8319516D01*
X891946Y8323681D01*
X892962Y8328355D01*
X893318Y8333486D01*
X892911Y8338820D01*
X891794Y8343646D01*
X889914Y8347913D01*
X887323Y8351570D01*
X884123Y8354568D01*
X880262Y8356752D01*
X875792Y8358174D01*
X870712Y8358631D01*
X864158Y8357870D01*
X858621Y8355787D01*
X854151Y8352434D01*
X850900Y8347964D01*
X846328Y8352485D01*
X842365Y8355431D01*
X838809Y8357108D01*
X835406Y8357616D01*
X831748Y8357006D01*
X828751Y8355228D01*
X826414Y8352383D01*
X824737Y8348472D01*
X821131Y8354771D01*
X817473Y8358936D01*
X813562Y8361222D01*
G37*
G36*
X881380Y8290814D02*
G01*
X880364Y8279384D01*
X871880Y8279180D01*
X831342Y8279384D01*
X829818Y8290052D01*
X825500Y8290052D01*
X825500Y8258048D01*
X829818Y8258048D01*
X831342Y8267446D01*
X843229Y8267649D01*
X873506Y8267700D01*
X891794Y8267446D01*
X893064Y8269478D01*
X885698Y8290814D01*
G37*
G36*
X917956Y8282686D02*
G01*
X914450Y8281974D01*
X911707Y8280044D01*
X909980Y8277098D01*
X909319Y8273542D01*
X909980Y8270138D01*
X911707Y8267293D01*
X914450Y8265363D01*
X917956Y8264652D01*
X921410Y8265363D01*
X924052Y8267293D01*
X925728Y8270138D01*
X926337Y8273542D01*
X925728Y8277098D01*
X924052Y8280044D01*
X921410Y8281974D01*
G37*
G36*
X885444Y8251698D02*
G01*
X885444Y8240014D01*
X839978Y8240014D01*
X832713Y8238947D01*
X827684Y8235848D01*
X824687Y8230920D01*
X823721Y8224266D01*
X824179Y8219287D01*
X825550Y8214918D01*
X827786Y8211261D01*
X830834Y8208264D01*
X834136Y8211058D01*
X832307Y8213547D01*
X831037Y8215833D01*
X830326Y8218119D01*
X830071Y8220456D01*
X830681Y8223859D01*
X832510Y8226450D01*
X835761Y8228025D01*
X840486Y8228584D01*
X885444Y8228584D01*
X885444Y8209788D01*
X891286Y8209788D01*
X891286Y8228330D01*
X910590Y8227568D01*
X910590Y8235696D01*
X891794Y8239252D01*
X890269Y8251698D01*
G37*
G36*
X918464Y8203692D02*
G01*
X917194Y8192516D01*
X843229Y8192566D01*
X831342Y8192770D01*
X829818Y8203184D01*
X825500Y8203184D01*
X825500Y8171180D01*
X829818Y8171180D01*
X831342Y8180831D01*
X875284Y8181086D01*
X879703Y8175650D01*
X882497Y8170570D01*
X884021Y8165744D01*
X884428Y8161020D01*
X883615Y8155889D01*
X880821Y8152231D01*
X875639Y8150047D01*
X867664Y8149336D01*
X831342Y8149590D01*
X829818Y8160003D01*
X825500Y8160003D01*
X825500Y8128000D01*
X829818Y8128000D01*
X831342Y8137652D01*
X867918Y8137906D01*
X874268Y8138210D01*
X879602Y8139023D01*
X883970Y8140446D01*
X887476Y8142427D01*
X890117Y8144967D01*
X891895Y8148066D01*
X892962Y8151723D01*
X893318Y8155940D01*
X892403Y8162645D01*
X889812Y8169300D01*
X885698Y8175599D01*
X880364Y8181340D01*
X907542Y8181340D01*
X927353Y8180831D01*
X928369Y8182609D01*
X922528Y8203692D01*
G37*
G36*
X886206Y8120634D02*
G01*
X884428Y8110728D01*
X848868Y8110981D01*
X842467Y8110728D01*
X837133Y8109864D01*
X832764Y8108340D01*
X829360Y8106257D01*
X826769Y8103616D01*
X825042Y8100517D01*
X824026Y8096961D01*
X823721Y8092948D01*
X824585Y8086293D01*
X827074Y8079841D01*
X831240Y8073694D01*
X836930Y8068056D01*
X824230Y8066786D01*
X825500Y8047481D01*
X829564Y8047481D01*
X831087Y8057134D01*
X871219Y8057134D01*
X891032Y8056625D01*
X892556Y8057896D01*
X890269Y8077962D01*
X886206Y8077962D01*
X884174Y8068056D01*
X841756Y8068564D01*
X837844Y8073237D01*
X834999Y8078012D01*
X833221Y8082940D01*
X832612Y8087868D01*
X833475Y8092897D01*
X836371Y8096554D01*
X841603Y8098790D01*
X849630Y8099552D01*
X871219Y8099552D01*
X891032Y8098790D01*
X892556Y8100314D01*
X890269Y8120634D01*
G37*
G36*
X918464Y8038846D02*
G01*
X917194Y8027416D01*
X831342Y8027670D01*
X829818Y8038084D01*
X825500Y8038084D01*
X824230Y8017509D01*
X833628Y8016240D01*
X828751Y8011515D01*
X825703Y8006537D01*
X824179Y8001558D01*
X823960Y7999222D01*
X830834Y7999222D01*
X831291Y8003286D01*
X832662Y8007502D01*
X834999Y8011769D01*
X838453Y8015986D01*
X878332Y8015986D01*
X882548Y8010702D01*
X884936Y8006130D01*
X885952Y8002168D01*
X886206Y7998714D01*
X885748Y7994853D01*
X884428Y7991348D01*
X882243Y7988249D01*
X879144Y7985556D01*
X875182Y7983423D01*
X870356Y7981797D01*
X864616Y7980781D01*
X858012Y7980425D01*
X851306Y7980832D01*
X845616Y7981950D01*
X840943Y7983778D01*
X837184Y7986115D01*
X834339Y7988909D01*
X832358Y7992109D01*
X831189Y7995564D01*
X830834Y7999222D01*
X823960Y7999222D01*
X823721Y7996681D01*
X824382Y7990636D01*
X826312Y7985150D01*
X829411Y7980324D01*
X833577Y7976158D01*
X838708Y7972806D01*
X844702Y7970316D01*
X851509Y7968792D01*
X859028Y7968234D01*
X866698Y7968742D01*
X873506Y7970316D01*
X879348Y7972704D01*
X884275Y7975955D01*
X888136Y7979867D01*
X890981Y7984439D01*
X892708Y7989468D01*
X893318Y7994903D01*
X892708Y8000441D01*
X890879Y8005876D01*
X887628Y8011159D01*
X882903Y8016240D01*
X907542Y8016240D01*
X927353Y8015986D01*
X928369Y8017764D01*
X922528Y8038846D01*
G37*
G36*
X833119Y7953756D02*
G01*
X829513Y7952994D01*
X826516Y7950962D01*
X824484Y7947964D01*
X823721Y7944358D01*
X824484Y7940598D01*
X826516Y7937550D01*
X829513Y7935468D01*
X833119Y7934706D01*
X836879Y7935468D01*
X839927Y7937550D01*
X842010Y7940598D01*
X842771Y7944358D01*
X842010Y7947964D01*
X839927Y7950962D01*
X836879Y7952994D01*
G37*
G36*
X858266Y7921498D02*
G01*
X850646Y7920939D01*
X843889Y7919212D01*
X837946Y7916468D01*
X833018Y7912811D01*
X829005Y7908239D01*
X826109Y7902854D01*
X824331Y7896758D01*
X823721Y7890002D01*
X824890Y7881112D01*
X828243Y7873847D01*
X833577Y7868259D01*
X840740Y7864348D01*
X842010Y7867142D01*
X837590Y7870850D01*
X834339Y7875473D01*
X832307Y7880705D01*
X831596Y7886446D01*
X832053Y7891322D01*
X833475Y7895742D01*
X835761Y7899653D01*
X838911Y7903057D01*
X842873Y7905800D01*
X847648Y7907832D01*
X853236Y7909102D01*
X859536Y7909559D01*
X865936Y7909153D01*
X871575Y7908036D01*
X876452Y7906156D01*
X880516Y7903667D01*
X883716Y7900568D01*
X886053Y7896910D01*
X887476Y7892796D01*
X887984Y7888224D01*
X887730Y7884617D01*
X886714Y7880603D01*
X874318Y7877200D01*
X872236Y7875727D01*
X870915Y7873542D01*
X870458Y7870698D01*
X870762Y7868462D01*
X871778Y7866684D01*
X873353Y7865414D01*
X875537Y7864602D01*
X882700Y7867396D01*
X888339Y7872780D01*
X891997Y7880197D01*
X893318Y7888986D01*
X892708Y7895183D01*
X890930Y7901127D01*
X888034Y7906664D01*
X884072Y7911541D01*
X879043Y7915656D01*
X873048Y7918754D01*
X866140Y7920786D01*
G37*
G36*
X858266Y7853172D02*
G01*
X850239Y7852460D01*
X843229Y7850479D01*
X837285Y7847380D01*
X832408Y7843367D01*
X828649Y7838541D01*
X825906Y7833156D01*
X824280Y7827264D01*
X823721Y7821168D01*
X829056Y7821168D01*
X829513Y7825486D01*
X830884Y7829346D01*
X833221Y7832648D01*
X836421Y7835392D01*
X840536Y7837576D01*
X845566Y7839151D01*
X851458Y7840167D01*
X858266Y7840472D01*
X865073Y7840167D01*
X871067Y7839151D01*
X876147Y7837576D01*
X880364Y7835392D01*
X883666Y7832648D01*
X886053Y7829346D01*
X887476Y7825486D01*
X887984Y7821168D01*
X887476Y7816900D01*
X886053Y7813141D01*
X883666Y7809890D01*
X880364Y7807147D01*
X876147Y7805013D01*
X871067Y7803438D01*
X865073Y7802422D01*
X858266Y7802118D01*
X851458Y7802422D01*
X845566Y7803438D01*
X840536Y7805013D01*
X836421Y7807147D01*
X833221Y7809890D01*
X830884Y7813141D01*
X829513Y7816900D01*
X829056Y7821168D01*
X823721Y7821168D01*
X824280Y7815122D01*
X825906Y7809331D01*
X828649Y7803896D01*
X832408Y7799070D01*
X837285Y7795006D01*
X843229Y7791856D01*
X850239Y7789875D01*
X858266Y7789164D01*
X866394Y7789875D01*
X873506Y7791907D01*
X879500Y7795056D01*
X884478Y7799171D01*
X888339Y7803997D01*
X891082Y7809433D01*
X892759Y7815173D01*
X893318Y7821168D01*
X892759Y7827213D01*
X891082Y7833004D01*
X888339Y7838440D01*
X884478Y7843266D01*
X879500Y7847330D01*
X873506Y7850479D01*
X866394Y7852460D01*
G37*
G36*
X881380Y7778242D02*
G01*
X880364Y7767320D01*
X871829Y7766862D01*
X831342Y7767066D01*
X829818Y7777480D01*
X825500Y7777480D01*
X825500Y7745475D01*
X829818Y7745475D01*
X831342Y7755128D01*
X875284Y7755381D01*
X879500Y7750302D01*
X882345Y7745577D01*
X883919Y7741005D01*
X884428Y7736331D01*
X883615Y7731201D01*
X880821Y7727645D01*
X875639Y7725562D01*
X867664Y7724902D01*
X831342Y7725156D01*
X829818Y7735824D01*
X825500Y7735824D01*
X825500Y7703820D01*
X829818Y7703820D01*
X831342Y7713218D01*
X854710Y7713725D01*
X871778Y7713776D01*
X875030Y7713980D01*
X879398Y7708696D01*
X882294Y7703870D01*
X883919Y7699349D01*
X884428Y7694930D01*
X883666Y7689799D01*
X880973Y7686141D01*
X875842Y7683957D01*
X867664Y7683246D01*
X831342Y7683500D01*
X829818Y7693914D01*
X825500Y7693914D01*
X825500Y7661909D01*
X829818Y7661909D01*
X831342Y7671816D01*
X869187Y7672070D01*
X880160Y7673238D01*
X887628Y7676692D01*
X891946Y7682230D01*
X893318Y7689850D01*
X892556Y7696504D01*
X890168Y7703007D01*
X886155Y7709204D01*
X880364Y7714996D01*
X886155Y7717332D01*
X890168Y7720888D01*
X892556Y7725613D01*
X893318Y7731506D01*
X892403Y7737856D01*
X889812Y7744155D01*
X885799Y7750149D01*
X880618Y7755636D01*
X891794Y7756906D01*
X893064Y7758684D01*
X885444Y7778242D01*
G37*
G36*
X803402Y7657338D02*
G01*
X803402Y7649718D01*
X924306Y7612634D01*
X924306Y7620000D01*
G37*
G36*
X918464Y7608316D02*
G01*
X917194Y7596886D01*
X831342Y7597140D01*
X829818Y7607553D01*
X825500Y7607553D01*
X825500Y7575550D01*
X829818Y7575550D01*
X831342Y7585202D01*
X843229Y7585405D01*
X875284Y7585456D01*
X879703Y7580020D01*
X882497Y7575092D01*
X884021Y7570368D01*
X884428Y7565644D01*
X883615Y7560513D01*
X880821Y7556855D01*
X875639Y7554671D01*
X867664Y7553959D01*
X831342Y7554214D01*
X829818Y7564628D01*
X825500Y7564628D01*
X825500Y7532624D01*
X829818Y7532624D01*
X831342Y7542275D01*
X867918Y7542530D01*
X874268Y7542834D01*
X879602Y7543647D01*
X883970Y7545070D01*
X887476Y7547051D01*
X890117Y7549540D01*
X891895Y7552588D01*
X892962Y7556195D01*
X893318Y7560309D01*
X892403Y7567168D01*
X889812Y7573873D01*
X885698Y7580122D01*
X880364Y7585709D01*
X907542Y7585709D01*
X927353Y7585456D01*
X928369Y7587234D01*
X922528Y7608316D01*
G37*
G36*
X858266Y7521956D02*
G01*
X850239Y7521244D01*
X843229Y7519263D01*
X837285Y7516215D01*
X832408Y7512202D01*
X828649Y7507376D01*
X825906Y7502042D01*
X824280Y7496251D01*
X823721Y7490206D01*
X829056Y7490206D01*
X829513Y7494524D01*
X830884Y7498334D01*
X833221Y7501585D01*
X836421Y7504277D01*
X840536Y7506462D01*
X845566Y7507986D01*
X851458Y7508951D01*
X858266Y7509256D01*
X865073Y7508951D01*
X871067Y7507986D01*
X876147Y7506462D01*
X880364Y7504277D01*
X883666Y7501585D01*
X886053Y7498334D01*
X887476Y7494524D01*
X887984Y7490206D01*
X887476Y7485888D01*
X886053Y7482027D01*
X883666Y7478725D01*
X880364Y7475981D01*
X876147Y7473797D01*
X871067Y7472222D01*
X865073Y7471206D01*
X858266Y7470902D01*
X851458Y7471206D01*
X845566Y7472222D01*
X840536Y7473797D01*
X836421Y7475981D01*
X833221Y7478725D01*
X830884Y7482027D01*
X829513Y7485888D01*
X829056Y7490206D01*
X823721Y7490206D01*
X824280Y7484160D01*
X825906Y7478369D01*
X828649Y7472934D01*
X832408Y7468108D01*
X837285Y7464044D01*
X843229Y7460894D01*
X850239Y7458913D01*
X858266Y7458202D01*
X866394Y7458913D01*
X873506Y7460894D01*
X879500Y7464044D01*
X884478Y7468108D01*
X888339Y7472934D01*
X891082Y7478369D01*
X892759Y7484160D01*
X893318Y7490206D01*
X892759Y7496251D01*
X891082Y7502042D01*
X888339Y7507376D01*
X884478Y7512202D01*
X879500Y7516215D01*
X873506Y7519263D01*
X866394Y7521244D01*
G37*
G36*
X918464Y7449058D02*
G01*
X917194Y7437881D01*
X843229Y7437932D01*
X831342Y7438136D01*
X829818Y7448550D01*
X825500Y7448550D01*
X824230Y7427722D01*
X833628Y7426706D01*
X828751Y7421880D01*
X825703Y7416901D01*
X824179Y7411974D01*
X823962Y7409688D01*
X830834Y7409688D01*
X831291Y7413752D01*
X832662Y7417866D01*
X834999Y7422134D01*
X838453Y7426452D01*
X878332Y7426452D01*
X882548Y7421168D01*
X884936Y7416596D01*
X885952Y7412634D01*
X886206Y7409180D01*
X885748Y7405319D01*
X884428Y7401814D01*
X882243Y7398715D01*
X879144Y7396022D01*
X875182Y7393889D01*
X870356Y7392263D01*
X864616Y7391247D01*
X858012Y7390892D01*
X851306Y7391298D01*
X845616Y7392416D01*
X840943Y7394244D01*
X837184Y7396581D01*
X834339Y7399375D01*
X832358Y7402575D01*
X831189Y7406030D01*
X830834Y7409688D01*
X823962Y7409688D01*
X823721Y7407148D01*
X824382Y7401102D01*
X826312Y7395616D01*
X829411Y7390790D01*
X833577Y7386624D01*
X838708Y7383272D01*
X844702Y7380782D01*
X851509Y7379258D01*
X859028Y7378700D01*
X866698Y7379208D01*
X873506Y7380731D01*
X879348Y7383119D01*
X884275Y7386269D01*
X888136Y7390180D01*
X890981Y7394651D01*
X892708Y7399680D01*
X893318Y7405116D01*
X892708Y7410653D01*
X890879Y7416190D01*
X887628Y7421575D01*
X882903Y7426706D01*
X907542Y7426706D01*
X927353Y7426198D01*
X928369Y7427975D01*
X922528Y7449058D01*
G37*
G36*
X799592Y7373874D02*
G01*
X796086Y7372858D01*
X793343Y7370114D01*
X791565Y7366152D01*
X790956Y7361428D01*
X791413Y7357668D01*
X792784Y7354062D01*
X795172Y7350556D01*
X798626Y7347102D01*
X803198Y7343648D01*
X808939Y7340295D01*
X815949Y7336891D01*
X824230Y7333488D01*
X885952Y7310120D01*
X887221Y7302500D01*
X891286Y7302500D01*
X891286Y7329424D01*
X887221Y7329424D01*
X885698Y7316724D01*
X836421Y7334250D01*
X885952Y7352538D01*
X887221Y7340600D01*
X891286Y7340600D01*
X891286Y7373620D01*
X887221Y7373620D01*
X886206Y7365746D01*
X821436Y7339838D01*
X813816Y7342987D01*
X808278Y7346035D01*
X803402Y7349591D01*
X799338Y7353808D01*
X802487Y7357465D01*
X804011Y7359903D01*
X804875Y7362342D01*
X805180Y7364984D01*
X804875Y7367981D01*
X803910Y7370673D01*
X802182Y7372756D01*
G37*
G36*
X844296Y7296912D02*
G01*
X829056Y7296658D01*
X826719Y7291628D01*
X825042Y7286650D01*
X824077Y7281418D01*
X823721Y7275830D01*
X824128Y7269581D01*
X825296Y7264146D01*
X827176Y7259472D01*
X829614Y7255713D01*
X832561Y7252716D01*
X835914Y7250633D01*
X839622Y7249312D01*
X843534Y7248906D01*
X849630Y7249972D01*
X855014Y7253274D01*
X859637Y7259218D01*
X863600Y7267956D01*
X867816Y7278776D01*
X870407Y7282789D01*
X873556Y7285024D01*
X877569Y7285736D01*
X881837Y7284821D01*
X885037Y7282230D01*
X887018Y7277912D01*
X887730Y7272020D01*
X887577Y7269530D01*
X887171Y7267092D01*
X886460Y7264603D01*
X885444Y7262114D01*
X873506Y7259320D01*
X873506Y7253224D01*
X887730Y7252716D01*
X890117Y7257288D01*
X891844Y7261910D01*
X892962Y7266736D01*
X893318Y7272020D01*
X892911Y7277608D01*
X891743Y7282484D01*
X889914Y7286650D01*
X887476Y7290104D01*
X884580Y7292848D01*
X881329Y7294829D01*
X877773Y7295997D01*
X874014Y7296403D01*
X867562Y7295184D01*
X862380Y7291730D01*
X858316Y7286345D01*
X854964Y7279386D01*
X852932Y7272781D01*
X850392Y7266889D01*
X847648Y7262875D01*
X844346Y7260590D01*
X840232Y7259828D01*
X835710Y7260793D01*
X832154Y7263739D01*
X829868Y7268718D01*
X829056Y7275830D01*
X829208Y7279081D01*
X829614Y7282027D01*
X830326Y7284720D01*
X831342Y7287259D01*
X844296Y7290308D01*
G37*
G36*
X840740Y7237222D02*
G01*
X833374Y7235748D01*
X828040Y7231735D01*
X824788Y7225842D01*
X823721Y7218680D01*
X824247Y7214108D01*
X831850Y7214108D01*
X832459Y7218527D01*
X834440Y7222083D01*
X837844Y7224420D01*
X842771Y7225284D01*
X846632Y7224775D01*
X850493Y7222744D01*
X854303Y7218425D01*
X858012Y7211059D01*
X859942Y7205370D01*
X862076Y7198106D01*
X839978Y7198106D01*
X836117Y7203236D01*
X833628Y7207148D01*
X832256Y7210552D01*
X831850Y7214108D01*
X824247Y7214108D01*
X824382Y7212939D01*
X826465Y7207961D01*
X829919Y7203135D01*
X834898Y7197852D01*
X830427Y7196429D01*
X826973Y7193838D01*
X824737Y7190079D01*
X823976Y7185406D01*
X824331Y7181951D01*
X825550Y7178852D01*
X827735Y7176058D01*
X831087Y7173468D01*
X833628Y7176008D01*
X831189Y7178598D01*
X830580Y7180021D01*
X830326Y7181596D01*
X830783Y7183780D01*
X832307Y7185355D01*
X835050Y7186371D01*
X839216Y7186675D01*
X869442Y7186675D01*
X875436Y7187031D01*
X880465Y7187996D01*
X884580Y7189673D01*
X887831Y7192060D01*
X890320Y7195058D01*
X891997Y7198766D01*
X893013Y7203186D01*
X893318Y7208266D01*
X892098Y7218273D01*
X888695Y7226300D01*
X883259Y7232040D01*
X876046Y7235190D01*
X873810Y7234681D01*
X872134Y7233462D01*
X871067Y7231634D01*
X870712Y7229094D01*
X871118Y7226655D01*
X872388Y7224674D01*
X874471Y7223150D01*
X877316Y7221981D01*
X886714Y7219442D01*
X887730Y7215225D01*
X887984Y7211568D01*
X887221Y7205522D01*
X884478Y7201306D01*
X879195Y7198868D01*
X870712Y7198106D01*
X866394Y7198106D01*
X864209Y7206589D01*
X861821Y7214108D01*
X857046Y7225436D01*
X852017Y7232497D01*
X846683Y7236206D01*
G37*
G36*
X881380Y7168388D02*
G01*
X880364Y7157466D01*
X871829Y7157008D01*
X831342Y7157212D01*
X829818Y7167625D01*
X825500Y7167625D01*
X825500Y7135622D01*
X829818Y7135622D01*
X831342Y7145274D01*
X875284Y7145528D01*
X879500Y7140448D01*
X882345Y7135723D01*
X883919Y7131151D01*
X884428Y7126478D01*
X883615Y7121347D01*
X880821Y7117791D01*
X875639Y7115708D01*
X867664Y7115048D01*
X831342Y7115302D01*
X829818Y7125970D01*
X825500Y7125970D01*
X825500Y7093966D01*
X829818Y7093966D01*
X831342Y7103364D01*
X854710Y7103872D01*
X871778Y7103922D01*
X875030Y7104125D01*
X879398Y7098842D01*
X882294Y7094016D01*
X883919Y7089495D01*
X884428Y7085075D01*
X883666Y7079945D01*
X880973Y7076287D01*
X875842Y7074103D01*
X867664Y7073392D01*
X831342Y7073646D01*
X829818Y7084059D01*
X825500Y7084059D01*
X825500Y7052056D01*
X829818Y7052056D01*
X831342Y7061962D01*
X869187Y7062216D01*
X880160Y7063384D01*
X887628Y7066838D01*
X891946Y7072375D01*
X893318Y7079996D01*
X892556Y7086650D01*
X890168Y7093153D01*
X886155Y7099350D01*
X880364Y7105142D01*
X886155Y7107478D01*
X890168Y7111034D01*
X892556Y7115759D01*
X893318Y7121652D01*
X892403Y7128002D01*
X889812Y7134301D01*
X885799Y7140295D01*
X880618Y7145781D01*
X891794Y7147052D01*
X893064Y7148830D01*
X885444Y7168388D01*
G37*
G36*
X792226Y7044944D02*
G01*
X792226Y7009384D01*
X796544Y7009384D01*
X798322Y7022084D01*
X833119Y7022338D01*
X828548Y7017816D01*
X825652Y7013143D01*
X824179Y7008317D01*
X823989Y7006336D01*
X830834Y7006336D01*
X831189Y7010298D01*
X832358Y7014209D01*
X834491Y7018121D01*
X837692Y7022084D01*
X878586Y7022084D01*
X882446Y7016800D01*
X884783Y7012330D01*
X885901Y7008469D01*
X886206Y7005066D01*
X885748Y7001205D01*
X884428Y6997750D01*
X882192Y6994652D01*
X879043Y6992061D01*
X875080Y6989927D01*
X870254Y6988352D01*
X864565Y6987387D01*
X858012Y6987031D01*
X851306Y6987438D01*
X845616Y6988556D01*
X840943Y6990334D01*
X837184Y6992670D01*
X834339Y6995515D01*
X832358Y6998817D01*
X831189Y7002424D01*
X830834Y7006336D01*
X823989Y7006336D01*
X823721Y7003542D01*
X824331Y6997649D01*
X826211Y6992213D01*
X829208Y6987387D01*
X833272Y6983222D01*
X838352Y6979818D01*
X844397Y6977278D01*
X851306Y6975652D01*
X859028Y6975094D01*
X866648Y6975602D01*
X873404Y6977125D01*
X879246Y6979513D01*
X884174Y6982663D01*
X888085Y6986574D01*
X890981Y6991045D01*
X892708Y6996074D01*
X893318Y7001509D01*
X892708Y7006996D01*
X890879Y7012330D01*
X887628Y7017562D01*
X882903Y7022592D01*
X891794Y7023608D01*
X893064Y7025386D01*
X885444Y7044944D01*
X881380Y7044944D01*
X880364Y7033768D01*
X871829Y7033564D01*
X804214Y7033615D01*
X798322Y7033768D01*
X796544Y7044944D01*
G37*
G36*
X881380Y6964680D02*
G01*
X880364Y6953250D01*
X871880Y6953046D01*
X831342Y6953250D01*
X829818Y6963918D01*
X825500Y6963918D01*
X825500Y6931914D01*
X829818Y6931914D01*
X831342Y6941312D01*
X843229Y6941515D01*
X873506Y6941566D01*
X891794Y6941312D01*
X893064Y6943344D01*
X885698Y6964680D01*
G37*
G36*
X917956Y6956552D02*
G01*
X914450Y6955840D01*
X911707Y6953910D01*
X909980Y6950964D01*
X909319Y6947408D01*
X909980Y6944004D01*
X911707Y6941159D01*
X914450Y6939229D01*
X917956Y6938518D01*
X921410Y6939229D01*
X924052Y6941159D01*
X925728Y6944004D01*
X926337Y6947408D01*
X925728Y6950964D01*
X924052Y6953910D01*
X921410Y6955840D01*
G37*
G36*
X881380Y6922262D02*
G01*
X880364Y6911340D01*
X861821Y6910831D01*
X831342Y6911086D01*
X829818Y6921500D01*
X825500Y6921500D01*
X825500Y6889496D01*
X829818Y6889496D01*
X831342Y6899148D01*
X875284Y6899402D01*
X879500Y6894118D01*
X882345Y6889242D01*
X883919Y6884568D01*
X884428Y6879844D01*
X883615Y6874611D01*
X880821Y6871055D01*
X875639Y6869074D01*
X867664Y6868414D01*
X831342Y6868668D01*
X829818Y6878828D01*
X825500Y6878828D01*
X825500Y6846824D01*
X829818Y6846824D01*
X831342Y6856730D01*
X868171Y6856984D01*
X874369Y6857238D01*
X879602Y6858101D01*
X883919Y6859473D01*
X887425Y6861403D01*
X890066Y6863892D01*
X891895Y6866940D01*
X892962Y6870547D01*
X893318Y6874764D01*
X892403Y6881317D01*
X889812Y6887768D01*
X885698Y6893966D01*
X880364Y6899656D01*
X891794Y6900925D01*
X893064Y6902703D01*
X885444Y6922262D01*
G37*
G36*
X809244Y6837680D02*
G01*
X805688Y6837273D01*
X802386Y6836003D01*
X799490Y6833870D01*
X797001Y6830822D01*
X795020Y6826808D01*
X793496Y6821830D01*
X792530Y6815785D01*
X792226Y6808724D01*
X797814Y6808724D01*
X798576Y6816191D01*
X801014Y6821982D01*
X805230Y6825691D01*
X811276Y6827012D01*
X814730Y6826656D01*
X817880Y6825589D01*
X820826Y6823811D01*
X823721Y6821170D01*
X823721Y6798309D01*
X822807Y6792010D01*
X820419Y6787743D01*
X816864Y6785356D01*
X812546Y6784594D01*
X806704Y6786168D01*
X802030Y6790740D01*
X798931Y6798309D01*
X797814Y6808724D01*
X792226Y6808724D01*
X792784Y6800748D01*
X794258Y6793839D01*
X796645Y6787946D01*
X799693Y6783120D01*
X803300Y6779310D01*
X807313Y6776618D01*
X811631Y6774992D01*
X816102Y6774434D01*
X823569Y6775805D01*
X829056Y6779869D01*
X832459Y6786880D01*
X833628Y6796786D01*
X833628Y6815328D01*
X834085Y6819595D01*
X835406Y6822338D01*
X837488Y6823811D01*
X840232Y6824218D01*
X842619Y6823964D01*
X844905Y6823252D01*
X847140Y6822084D01*
X849376Y6820408D01*
X848563Y6817817D01*
X848004Y6815124D01*
X847615Y6809740D01*
X852169Y6809740D01*
X853490Y6815531D01*
X857199Y6819849D01*
X862990Y6822541D01*
X870458Y6823456D01*
X877773Y6822490D01*
X883462Y6819696D01*
X887171Y6815226D01*
X888492Y6809231D01*
X887221Y6803288D01*
X883615Y6798919D01*
X877976Y6796176D01*
X870712Y6795262D01*
X863295Y6796227D01*
X857453Y6799072D01*
X853592Y6803644D01*
X852169Y6809740D01*
X847615Y6809740D01*
X848004Y6803999D01*
X849121Y6799224D01*
X851052Y6795008D01*
X853643Y6791350D01*
X856945Y6788403D01*
X860907Y6786168D01*
X865479Y6784797D01*
X870712Y6784340D01*
X874521Y6784594D01*
X877976Y6785254D01*
X881126Y6786372D01*
X883919Y6787896D01*
X883412Y6773925D01*
X891794Y6773925D01*
X893064Y6775958D01*
X887730Y6791706D01*
X890219Y6795262D01*
X891946Y6799427D01*
X892962Y6804101D01*
X893318Y6809231D01*
X892911Y6814566D01*
X891794Y6819392D01*
X889914Y6823659D01*
X887323Y6827316D01*
X884123Y6830314D01*
X880262Y6832498D01*
X875792Y6833920D01*
X870712Y6834378D01*
X864158Y6833616D01*
X858621Y6831533D01*
X854151Y6828180D01*
X850900Y6823709D01*
X846328Y6828231D01*
X842365Y6831177D01*
X838809Y6832853D01*
X835406Y6833362D01*
X831748Y6832752D01*
X828751Y6830974D01*
X826414Y6828129D01*
X824737Y6824218D01*
X821131Y6830517D01*
X817473Y6834682D01*
X813562Y6836968D01*
G37*
G36*
X840740Y6766814D02*
G01*
X833374Y6765340D01*
X828040Y6761327D01*
X824788Y6755434D01*
X823721Y6748272D01*
X824247Y6743700D01*
X831850Y6743700D01*
X832459Y6748119D01*
X834440Y6751675D01*
X837844Y6754012D01*
X842771Y6754875D01*
X846632Y6754368D01*
X850493Y6752336D01*
X854303Y6748018D01*
X858012Y6740652D01*
X859942Y6734962D01*
X862076Y6727698D01*
X839978Y6727698D01*
X836117Y6732828D01*
X833628Y6736740D01*
X832256Y6740144D01*
X831850Y6743700D01*
X824247Y6743700D01*
X824382Y6742531D01*
X826465Y6737553D01*
X829919Y6732727D01*
X834898Y6727444D01*
X830427Y6726021D01*
X826973Y6723430D01*
X824737Y6719671D01*
X823976Y6714998D01*
X824331Y6711543D01*
X825550Y6708444D01*
X827735Y6705650D01*
X831087Y6703059D01*
X833628Y6705600D01*
X831189Y6708190D01*
X830580Y6709613D01*
X830326Y6711188D01*
X830783Y6713372D01*
X832307Y6714947D01*
X835050Y6715963D01*
X839216Y6716268D01*
X869442Y6716268D01*
X875436Y6716623D01*
X880465Y6717588D01*
X884580Y6719265D01*
X887831Y6721652D01*
X890320Y6724650D01*
X891997Y6728358D01*
X893013Y6732778D01*
X893318Y6737858D01*
X892098Y6747865D01*
X888695Y6755892D01*
X883259Y6761632D01*
X876046Y6764781D01*
X873810Y6764274D01*
X872134Y6763054D01*
X871067Y6761225D01*
X870712Y6758686D01*
X871118Y6756247D01*
X872388Y6754266D01*
X874471Y6752742D01*
X877316Y6751574D01*
X886714Y6749034D01*
X887730Y6744817D01*
X887984Y6741159D01*
X887221Y6735114D01*
X884478Y6730898D01*
X879195Y6728459D01*
X870712Y6727698D01*
X866394Y6727698D01*
X864209Y6736181D01*
X861821Y6743700D01*
X857046Y6755028D01*
X852017Y6762089D01*
X846683Y6765798D01*
G37*
G36*
X881380Y6697980D02*
G01*
X880364Y6687058D01*
X861821Y6686550D01*
X831342Y6686803D01*
X829818Y6697218D01*
X825500Y6697218D01*
X825500Y6665214D01*
X829818Y6665214D01*
X831342Y6674866D01*
X875284Y6675120D01*
X879500Y6669836D01*
X882345Y6664959D01*
X883919Y6660286D01*
X884428Y6655562D01*
X883615Y6650329D01*
X880821Y6646824D01*
X875639Y6644792D01*
X867664Y6644131D01*
X831342Y6644386D01*
X829818Y6654546D01*
X825500Y6654546D01*
X825500Y6622542D01*
X829818Y6622542D01*
X831342Y6632448D01*
X868171Y6632702D01*
X874369Y6632956D01*
X879602Y6633819D01*
X883919Y6635191D01*
X887425Y6637121D01*
X890066Y6639610D01*
X891895Y6642658D01*
X892962Y6646265D01*
X893318Y6650481D01*
X892403Y6657035D01*
X889812Y6663486D01*
X885698Y6669684D01*
X880364Y6675374D01*
X891794Y6676644D01*
X893064Y6678422D01*
X885444Y6697980D01*
G37*
G36*
X803402Y6617970D02*
G01*
X803402Y6610350D01*
X924306Y6573266D01*
X924306Y6580631D01*
G37*
G36*
X798322Y6584188D02*
G01*
X795782Y6583324D01*
X793394Y6580987D01*
X791667Y6577075D01*
X790956Y6571488D01*
X791413Y6566103D01*
X792886Y6561632D01*
X795324Y6557721D01*
X798830Y6554216D01*
X801878Y6551828D01*
X805230Y6549948D01*
X809091Y6548526D01*
X813460Y6547510D01*
X818591Y6546799D01*
X824585Y6546342D01*
X839724Y6546088D01*
X873506Y6546088D01*
X891794Y6545834D01*
X893064Y6547612D01*
X885698Y6568440D01*
X881380Y6568440D01*
X880364Y6557518D01*
X861821Y6557009D01*
X832053Y6557060D01*
X819658Y6557365D01*
X810158Y6558076D01*
X803351Y6559296D01*
X800862Y6560058D01*
X798677Y6561328D01*
X797052Y6562598D01*
X799846Y6565900D01*
X801674Y6568490D01*
X802944Y6570980D01*
X803656Y6573469D01*
X803910Y6576059D01*
X803554Y6578853D01*
X802436Y6581190D01*
X800709Y6582968D01*
G37*
G36*
X917956Y6560566D02*
G01*
X914450Y6559854D01*
X911707Y6557924D01*
X909980Y6555079D01*
X909319Y6551676D01*
X909980Y6548120D01*
X911707Y6545224D01*
X914450Y6543243D01*
X917956Y6542531D01*
X921410Y6543243D01*
X924052Y6545173D01*
X925728Y6548120D01*
X926337Y6551676D01*
X925728Y6555079D01*
X924052Y6557924D01*
X921410Y6559854D01*
G37*
G36*
X886714Y6533896D02*
G01*
X885444Y6526022D01*
X824737Y6503670D01*
X824737Y6498590D01*
X875537Y6480048D01*
X867308Y6477457D01*
X843229Y6468821D01*
X824737Y6461760D01*
X824737Y6456680D01*
X885190Y6436360D01*
X886714Y6428486D01*
X891286Y6428486D01*
X891286Y6453886D01*
X886714Y6453886D01*
X884936Y6442964D01*
X840486Y6456426D01*
X884936Y6473190D01*
X886714Y6462522D01*
X891286Y6462522D01*
X891286Y6492748D01*
X886714Y6492748D01*
X885190Y6482080D01*
X839978Y6498336D01*
X885444Y6513322D01*
X886714Y6502654D01*
X891286Y6502654D01*
X891286Y6533896D01*
G37*
G36*
X844296Y6421882D02*
G01*
X829056Y6421628D01*
X826719Y6416598D01*
X825042Y6411620D01*
X824077Y6406388D01*
X823721Y6400800D01*
X824128Y6394551D01*
X825296Y6389116D01*
X827176Y6384442D01*
X829614Y6380683D01*
X832561Y6377686D01*
X835914Y6375603D01*
X839622Y6374282D01*
X843534Y6373876D01*
X849630Y6374942D01*
X855014Y6378244D01*
X859637Y6384188D01*
X863600Y6392926D01*
X867816Y6403644D01*
X870407Y6407708D01*
X873556Y6409994D01*
X877569Y6410706D01*
X881837Y6409791D01*
X885037Y6407200D01*
X887018Y6402882D01*
X887730Y6396990D01*
X887171Y6392011D01*
X886460Y6389471D01*
X885444Y6386830D01*
X873506Y6384290D01*
X873506Y6378194D01*
X887730Y6377686D01*
X890117Y6382258D01*
X891844Y6386880D01*
X892962Y6391706D01*
X893318Y6396990D01*
X892911Y6402578D01*
X891743Y6407454D01*
X889914Y6411620D01*
X887476Y6415074D01*
X884580Y6417818D01*
X881329Y6419799D01*
X877773Y6420967D01*
X874014Y6421374D01*
X867562Y6420154D01*
X862380Y6416700D01*
X858316Y6411315D01*
X854964Y6404356D01*
X852932Y6397752D01*
X850392Y6391859D01*
X847648Y6387846D01*
X844346Y6385560D01*
X840232Y6384798D01*
X835710Y6385763D01*
X832154Y6388709D01*
X829868Y6393688D01*
X829056Y6400800D01*
X829208Y6404051D01*
X829614Y6406997D01*
X830326Y6409690D01*
X831342Y6412230D01*
X844296Y6415278D01*
G37*
G36*
X858012Y6362192D02*
G01*
X850341Y6361633D01*
X843534Y6359906D01*
X837692Y6357213D01*
X832764Y6353505D01*
X828903Y6348984D01*
X826058Y6343650D01*
X824331Y6337604D01*
X823721Y6330950D01*
X824839Y6322263D01*
X827989Y6314998D01*
X832916Y6309055D01*
X839469Y6304534D01*
X841502Y6307328D01*
X837387Y6311239D01*
X834237Y6315557D01*
X832307Y6320688D01*
X831596Y6326886D01*
X832002Y6331712D01*
X833323Y6336131D01*
X835456Y6340043D01*
X838453Y6343396D01*
X842314Y6346139D01*
X847039Y6348171D01*
X852576Y6349492D01*
X859028Y6350000D01*
X859028Y6323076D01*
X864108Y6323076D01*
X864362Y6350000D01*
X875030Y6347612D01*
X882345Y6343142D01*
X886612Y6337350D01*
X887984Y6330950D01*
X886663Y6324803D01*
X883107Y6319977D01*
X877925Y6316827D01*
X871728Y6315710D01*
X868629Y6316014D01*
X866190Y6317081D01*
X864666Y6319367D01*
X864108Y6323076D01*
X859028Y6323076D01*
X859028Y6305296D01*
X862380Y6304584D01*
X866902Y6304280D01*
X872693Y6304788D01*
X877874Y6306261D01*
X882396Y6308598D01*
X886206Y6311747D01*
X889253Y6315557D01*
X891489Y6320028D01*
X892860Y6325006D01*
X893318Y6330442D01*
X892708Y6336690D01*
X890828Y6342583D01*
X887831Y6347968D01*
X883767Y6352692D01*
X878687Y6356654D01*
X872642Y6359601D01*
X865733Y6361531D01*
G37*
G36*
X844296Y6291072D02*
G01*
X829056Y6290818D01*
X826719Y6285788D01*
X825042Y6280759D01*
X824077Y6275476D01*
X823721Y6269736D01*
X824128Y6263538D01*
X825296Y6258153D01*
X827176Y6253530D01*
X829614Y6249720D01*
X832561Y6246723D01*
X835914Y6244539D01*
X839622Y6243269D01*
X843534Y6242812D01*
X849630Y6243878D01*
X855014Y6247180D01*
X859637Y6253124D01*
X863600Y6261862D01*
X867816Y6272682D01*
X870407Y6276695D01*
X873556Y6278930D01*
X877569Y6279642D01*
X881837Y6278778D01*
X885037Y6276238D01*
X887018Y6272022D01*
X887730Y6266180D01*
X887577Y6263538D01*
X887171Y6260998D01*
X886460Y6258509D01*
X885444Y6256020D01*
X873506Y6253480D01*
X873506Y6247130D01*
X887730Y6246622D01*
X890117Y6251194D01*
X891844Y6255816D01*
X892962Y6260744D01*
X893318Y6266180D01*
X892911Y6271666D01*
X891743Y6276492D01*
X889914Y6280607D01*
X887476Y6284061D01*
X884580Y6286754D01*
X881329Y6288735D01*
X877773Y6289903D01*
X874014Y6290310D01*
X867562Y6289090D01*
X862380Y6285687D01*
X858316Y6280353D01*
X854964Y6273292D01*
X852932Y6266942D01*
X850392Y6261049D01*
X847648Y6257036D01*
X844346Y6254750D01*
X840232Y6253988D01*
X835710Y6254953D01*
X832154Y6257899D01*
X829868Y6262878D01*
X829056Y6269990D01*
X829208Y6273139D01*
X829614Y6276086D01*
X830326Y6278829D01*
X831342Y6281420D01*
X844296Y6284468D01*
G37*
G36*
X792226Y6233922D02*
G01*
X792226Y6198362D01*
X796544Y6198362D01*
X798322Y6211062D01*
X833119Y6211316D01*
X828548Y6206642D01*
X825652Y6201867D01*
X824179Y6197041D01*
X824013Y6195314D01*
X830834Y6195314D01*
X831189Y6199225D01*
X832358Y6203086D01*
X834491Y6206896D01*
X837692Y6210808D01*
X878586Y6210808D01*
X882446Y6205626D01*
X884783Y6201156D01*
X885901Y6197244D01*
X886206Y6193790D01*
X885748Y6190030D01*
X884428Y6186627D01*
X882192Y6183579D01*
X879043Y6180988D01*
X875080Y6178905D01*
X870254Y6177330D01*
X864565Y6176365D01*
X858012Y6176010D01*
X851306Y6176416D01*
X845616Y6177534D01*
X840943Y6179312D01*
X837184Y6181648D01*
X834339Y6184493D01*
X832358Y6187795D01*
X831189Y6191402D01*
X830834Y6195314D01*
X824013Y6195314D01*
X823721Y6192266D01*
X824331Y6186373D01*
X826211Y6180988D01*
X829208Y6176111D01*
X833272Y6171946D01*
X838352Y6168542D01*
X844397Y6166002D01*
X851306Y6164376D01*
X859028Y6163818D01*
X866648Y6164326D01*
X873404Y6165850D01*
X879246Y6168288D01*
X884174Y6171488D01*
X888085Y6175400D01*
X890981Y6179870D01*
X892708Y6184849D01*
X893318Y6190234D01*
X892708Y6195771D01*
X890879Y6201206D01*
X887628Y6206490D01*
X882903Y6211570D01*
X891794Y6212332D01*
X893064Y6214364D01*
X885444Y6233922D01*
X881380Y6233922D01*
X880364Y6222746D01*
X861821Y6222238D01*
X798322Y6222492D01*
X796544Y6233922D01*
G37*
G36*
X4729327Y4112768D02*
G01*
X4729327Y4069587D01*
X4688433Y4069587D01*
X4688433Y4060190D01*
X4729327Y4060190D01*
X4729327Y4015994D01*
X4739487Y4015994D01*
X4739487Y4060190D01*
X4780127Y4060190D01*
X4780127Y4069587D01*
X4739487Y4069587D01*
X4739487Y4112768D01*
G37*
D10*
X2634488Y4787900D02*
G01*
X2701290Y4787900D01*
X2666238Y4787900D02*
G01*
X2659888Y4794250D01*
X2656840Y4800600D01*
X2656840Y4810252D01*
X2659888Y4816602D01*
X2666238Y4822952D01*
X2675890Y4826000D01*
X2682240Y4826000D01*
X2691638Y4822952D01*
X2697988Y4816602D01*
X2701290Y4810252D01*
X2701290Y4800600D01*
X2697988Y4794250D01*
X2691638Y4787900D01*
X2656840Y4850384D02*
G01*
X2701290Y4869434D01*
X2656840Y4888484D02*
G01*
X2701290Y4869434D01*
X2713990Y4863084D01*
X2720340Y4856734D01*
X2723641Y4850384D01*
X2723641Y4847081D01*
X2656840Y4909565D02*
G01*
X2723641Y4909565D01*
X2666238Y4909565D02*
G01*
X2659888Y4915915D01*
X2656840Y4922265D01*
X2656840Y4931663D01*
X2659888Y4938013D01*
X2666238Y4944363D01*
X2675890Y4947665D01*
X2682240Y4947665D01*
X2691638Y4944363D01*
X2697988Y4938013D01*
X2701290Y4931663D01*
X2701290Y4922265D01*
X2697988Y4915915D01*
X2691638Y4909565D01*
X2656840Y5006847D02*
G01*
X2701290Y5006847D01*
X2666238Y5006847D02*
G01*
X2659888Y5000497D01*
X2656840Y4994147D01*
X2656840Y4984495D01*
X2659888Y4978145D01*
X2666238Y4971795D01*
X2675890Y4968747D01*
X2682240Y4968747D01*
X2691638Y4971795D01*
X2697988Y4978145D01*
X2701290Y4984495D01*
X2701290Y4994147D01*
X2697988Y5000497D01*
X2691638Y5006847D01*
X2666238Y5062728D02*
G01*
X2659888Y5059679D01*
X2656840Y5050028D01*
X2656840Y5040629D01*
X2659888Y5030978D01*
X2666238Y5027929D01*
X2672588Y5030978D01*
X2675890Y5037328D01*
X2678938Y5053329D01*
X2682240Y5059679D01*
X2688590Y5062728D01*
X2691638Y5062728D01*
X2697988Y5059679D01*
X2701290Y5050028D01*
X2701290Y5040629D01*
X2697988Y5030978D01*
X2691638Y5027929D01*
X2666238Y5118862D02*
G01*
X2659888Y5115560D01*
X2656840Y5106162D01*
X2656840Y5096510D01*
X2659888Y5087112D01*
X2666238Y5083810D01*
X2672588Y5087112D01*
X2675890Y5093462D01*
X2678938Y5109210D01*
X2682240Y5115560D01*
X2688590Y5118862D01*
X2691638Y5118862D01*
X2697988Y5115560D01*
X2701290Y5106162D01*
X2701290Y5096510D01*
X2697988Y5087112D01*
X2691638Y5083810D01*
X2634488Y5188712D02*
G01*
X2701290Y5188712D01*
X2650490Y5257545D02*
G01*
X2643886Y5254244D01*
X2637536Y5247894D01*
X2634488Y5241544D01*
X2634488Y5228844D01*
X2637536Y5222494D01*
X2643886Y5216144D01*
X2650490Y5213095D01*
X2659888Y5209794D01*
X2675890Y5209794D01*
X2685288Y5213095D01*
X2691638Y5216144D01*
X2697988Y5222494D01*
X2701290Y5228844D01*
X2701290Y5241544D01*
X2697988Y5247894D01*
X2691638Y5254244D01*
X2685288Y5257545D01*
X2634488Y5372100D02*
G01*
X2701290Y5340350D01*
X2634488Y5327650D02*
G01*
X2634488Y5372100D01*
X2634488Y5424931D02*
G01*
X2678938Y5393181D01*
X2678938Y5440934D01*
X2634488Y5424931D02*
G01*
X2701290Y5424931D01*
X2634488Y5461762D02*
G01*
X2701290Y5461762D01*
X2634488Y5506465D02*
G01*
X2701290Y5506465D01*
X2666238Y5461762D02*
G01*
X2666238Y5506465D01*
X2650490Y5575045D02*
G01*
X2643886Y5571997D01*
X2637536Y5565647D01*
X2634488Y5559297D01*
X2634488Y5546344D01*
X2637536Y5539994D01*
X2643886Y5533644D01*
X2650490Y5530595D01*
X2659888Y5527294D01*
X2675890Y5527294D01*
X2685288Y5530595D01*
X2691638Y5533644D01*
X2697988Y5539994D01*
X2701290Y5546344D01*
X2701290Y5559297D01*
X2697988Y5565647D01*
X2691638Y5571997D01*
X2685288Y5575045D01*
X2650490Y5599176D02*
G01*
X2647188Y5599176D01*
X2640838Y5602478D01*
X2637536Y5605526D01*
X2634488Y5611876D01*
X2634488Y5624829D01*
X2637536Y5631179D01*
X2640838Y5634228D01*
X2647188Y5637529D01*
X2653538Y5637529D01*
X2659888Y5634228D01*
X2669540Y5627878D01*
X2701290Y5596128D01*
X2701290Y5640578D01*
X2634488Y5693410D02*
G01*
X2678938Y5661660D01*
X2678938Y5709412D01*
X2634488Y5693410D02*
G01*
X2701290Y5693410D01*
X2634488Y5768594D02*
G01*
X2634488Y5736589D01*
X2663190Y5733542D01*
X2659888Y5736589D01*
X2656840Y5746242D01*
X2656840Y5755894D01*
X2659888Y5765292D01*
X2666238Y5771642D01*
X2675890Y5774944D01*
X2682240Y5774944D01*
X2691638Y5771642D01*
X2697988Y5765292D01*
X2701290Y5755894D01*
X2701290Y5746242D01*
X2697988Y5736589D01*
X2694940Y5733542D01*
X2688590Y5730239D01*
X896112Y4648200D02*
G01*
X829310Y4648200D01*
X896112Y4648200D02*
G01*
X896112Y4619497D01*
X893063Y4610100D01*
X889762Y4606797D01*
X883412Y4603750D01*
X877062Y4603750D01*
X870712Y4606797D01*
X867410Y4610100D01*
X864362Y4619497D01*
X864362Y4648200D02*
G01*
X864362Y4619497D01*
X861060Y4610100D01*
X858012Y4606797D01*
X851662Y4603750D01*
X842010Y4603750D01*
X835660Y4606797D01*
X832612Y4610100D01*
X829310Y4619497D01*
X829310Y4648200D01*
X896112Y4563618D02*
G01*
X893063Y4569968D01*
X886713Y4576318D01*
X880110Y4579365D01*
X870712Y4582668D01*
X854710Y4582668D01*
X845312Y4579365D01*
X838962Y4576318D01*
X832612Y4569968D01*
X829310Y4563618D01*
X829310Y4550918D01*
X832612Y4544568D01*
X838962Y4538218D01*
X845312Y4534915D01*
X854710Y4531868D01*
X870712Y4531868D01*
X880110Y4534915D01*
X886713Y4538218D01*
X893063Y4544568D01*
X896112Y4550918D01*
X896112Y4563618D01*
X896112Y4485386D02*
G01*
X829310Y4510786D01*
X896112Y4485386D02*
G01*
X829310Y4459731D01*
X851662Y4501134D02*
G01*
X851662Y4469384D01*
X896112Y4438904D02*
G01*
X829310Y4438904D01*
X896112Y4438904D02*
G01*
X896112Y4410202D01*
X893063Y4400550D01*
X889762Y4397502D01*
X883412Y4394200D01*
X877062Y4394200D01*
X870712Y4397502D01*
X867410Y4400550D01*
X864362Y4410202D01*
X864362Y4438904D01*
X864362Y4416552D02*
G01*
X829310Y4394200D01*
X896112Y4373371D02*
G01*
X829310Y4373371D01*
X896112Y4373371D02*
G01*
X896112Y4351020D01*
X893063Y4341368D01*
X886713Y4335018D01*
X880110Y4331970D01*
X870712Y4328668D01*
X854710Y4328668D01*
X845312Y4331970D01*
X838962Y4335018D01*
X832612Y4341368D01*
X829310Y4351020D01*
X829310Y4373371D01*
X896112Y4258818D02*
G01*
X829310Y4233418D01*
X896112Y4207763D02*
G01*
X829310Y4233418D01*
X845312Y4183634D02*
G01*
X842010Y4186936D01*
X838962Y4183634D01*
X842010Y4180586D01*
X845312Y4183634D01*
X880110Y4156202D02*
G01*
X883412Y4156202D01*
X889762Y4153154D01*
X893063Y4149852D01*
X896112Y4143502D01*
X896112Y4130802D01*
X893063Y4124452D01*
X889762Y4121404D01*
X883412Y4118102D01*
X877062Y4118102D01*
X870712Y4121404D01*
X861060Y4127754D01*
X829310Y4159504D01*
X829310Y4115054D01*
X845312Y4090670D02*
G01*
X842010Y4093971D01*
X838962Y4090670D01*
X842010Y4087621D01*
X845312Y4090670D01*
X896112Y4060189D02*
G01*
X896112Y4025137D01*
X870712Y4044187D01*
X870712Y4034789D01*
X867410Y4028439D01*
X864362Y4025137D01*
X854710Y4022089D01*
X848360Y4022089D01*
X838962Y4025137D01*
X832612Y4031487D01*
X829310Y4041139D01*
X829310Y4050537D01*
X832612Y4060189D01*
X835660Y4063492D01*
X842010Y4066539D01*
X896112Y3994657D02*
G01*
X896112Y3959605D01*
X870712Y3978655D01*
X870712Y3969257D01*
X867410Y3962907D01*
X864362Y3959605D01*
X854710Y3956557D01*
X848360Y3956557D01*
X838962Y3959605D01*
X832612Y3965955D01*
X829310Y3975607D01*
X829310Y3985005D01*
X832612Y3994657D01*
X835660Y3997960D01*
X842010Y4001007D01*
X4493768Y9605010D02*
G01*
X4493768Y9482328D01*
X4432300Y9543795D02*
G01*
X4554981Y9543795D01*
X5124958Y9543795D02*
G01*
X5247640Y9543795D01*
D11*
X4520945Y4445000D02*
G01*
X4473193Y4445000D01*
X4520945Y4445000D02*
G01*
X4520945Y4424426D01*
X4518659Y4417821D01*
X4516374Y4415536D01*
X4511802Y4413250D01*
X4507229Y4413250D01*
X4502658Y4415536D01*
X4500372Y4417821D01*
X4498086Y4424426D01*
X4498086Y4445000D01*
X4498086Y4428997D02*
G01*
X4473193Y4413250D01*
X4520945Y4398263D02*
G01*
X4473193Y4366260D01*
X4520945Y4366260D02*
G01*
X4473193Y4398263D01*
X4520945Y4351273D02*
G01*
X4473193Y4351273D01*
X4520945Y4351273D02*
G01*
X4520945Y4330954D01*
X4518659Y4324095D01*
X4516374Y4321810D01*
X4511802Y4319523D01*
X4507229Y4319523D01*
X4502658Y4321810D01*
X4500372Y4324095D01*
X4498086Y4330954D01*
X4498086Y4351273D02*
G01*
X4498086Y4330954D01*
X4495800Y4324095D01*
X4493513Y4321810D01*
X4488941Y4319523D01*
X4482338Y4319523D01*
X4477765Y4321810D01*
X4475479Y4324095D01*
X4473193Y4330954D01*
X4473193Y4351273D01*
X4520945Y4304537D02*
G01*
X4486656Y4304537D01*
X4480052Y4302252D01*
X4475479Y4297679D01*
X4473193Y4290821D01*
X4473193Y4286250D01*
X4475479Y4279645D01*
X4480052Y4275073D01*
X4486656Y4272787D01*
X4520945Y4272787D01*
X4520945Y4225797D02*
G01*
X4473193Y4257802D01*
X4520945Y4257802D02*
G01*
X4520945Y4225797D01*
X4473193Y4257802D02*
G01*
X4473193Y4225797D01*
X4520945Y4179062D02*
G01*
X4473193Y4210812D01*
X4520945Y4210812D02*
G01*
X4520945Y4179062D01*
X4473193Y4210812D02*
G01*
X4473193Y4179062D01*
X2505709Y7860284D02*
G01*
X2501900Y7867650D01*
X2494788Y7875015D01*
X2487422Y7878571D01*
X2472943Y7878571D01*
X2465577Y7875015D01*
X2458465Y7867650D01*
X2454656Y7860284D01*
X2451100Y7849362D01*
X2451100Y7831328D01*
X2454656Y7820405D01*
X2458465Y7813039D01*
X2465577Y7805673D01*
X2472943Y7802118D01*
X2487422Y7802118D01*
X2494788Y7805673D01*
X2501900Y7813039D01*
X2505709Y7820405D01*
X2529586Y7878571D02*
G01*
X2529586Y7802118D01*
X2529586Y7878571D02*
G01*
X2562352Y7878571D01*
X2573274Y7875015D01*
X2576829Y7871205D01*
X2580640Y7864094D01*
X2580640Y7856728D01*
X2576829Y7849362D01*
X2573274Y7845805D01*
X2562352Y7842250D01*
X2529586Y7842250D01*
X2554986Y7842250D02*
G01*
X2580640Y7802118D01*
X2604515Y7864094D02*
G01*
X2611881Y7867650D01*
X2622804Y7878571D01*
X2622804Y7802118D01*
X2668524Y7878571D02*
G01*
X2657602Y7875015D01*
X2650490Y7864094D01*
X2646679Y7845805D01*
X2646679Y7834884D01*
X2650490Y7816595D01*
X2657602Y7805673D01*
X2668524Y7802118D01*
X2675890Y7802118D01*
X2686811Y7805673D01*
X2693924Y7816595D01*
X2697734Y7834884D01*
X2697734Y7845805D01*
X2693924Y7864094D01*
X2686811Y7875015D01*
X2675890Y7878571D01*
X2668524Y7878571D01*
X2743454Y7878571D02*
G01*
X2732531Y7875015D01*
X2725165Y7864094D01*
X2721609Y7845805D01*
X2721609Y7834884D01*
X2725165Y7816595D01*
X2732531Y7805673D01*
X2743454Y7802118D01*
X2750820Y7802118D01*
X2761741Y7805673D01*
X2768854Y7816595D01*
X2772663Y7834884D01*
X2772663Y7845805D01*
X2768854Y7864094D01*
X2761741Y7875015D01*
X2750820Y7878571D01*
X2743454Y7878571D01*
X2796540Y7878571D02*
G01*
X2796540Y7823962D01*
X2800095Y7813039D01*
X2807461Y7805673D01*
X2818384Y7802118D01*
X2825750Y7802118D01*
X2836672Y7805673D01*
X2843784Y7813039D01*
X2847340Y7823962D01*
X2847340Y7878571D01*
X2871470Y7878571D02*
G01*
X2871470Y7802118D01*
X2871470Y7878571D02*
G01*
X2918713Y7878571D01*
X2871470Y7842250D02*
G01*
X2900679Y7842250D01*
X4711700Y8274812D02*
G01*
X4718050Y8278113D01*
X4727702Y8287512D01*
X4727702Y8220710D01*
X4767579Y8287512D02*
G01*
X4758181Y8284463D01*
X4751831Y8274812D01*
X4748529Y8258810D01*
X4748529Y8249412D01*
X4751831Y8233410D01*
X4758181Y8224012D01*
X4767579Y8220710D01*
X4774184Y8220710D01*
X4783581Y8224012D01*
X4789931Y8233410D01*
X4793234Y8249412D01*
X4793234Y8258810D01*
X4789931Y8274812D01*
X4783581Y8284463D01*
X4774184Y8287512D01*
X4767579Y8287512D01*
X4833365Y8287512D02*
G01*
X4823713Y8284463D01*
X4817363Y8274812D01*
X4814061Y8258810D01*
X4814061Y8249412D01*
X4817363Y8233410D01*
X4823713Y8224012D01*
X4833365Y8220710D01*
X4839715Y8220710D01*
X4849113Y8224012D01*
X4855463Y8233410D01*
X4858765Y8249412D01*
X4858765Y8258810D01*
X4855463Y8274812D01*
X4849113Y8284463D01*
X4839715Y8287512D01*
X4833365Y8287512D01*
X4898897Y8287512D02*
G01*
X4889245Y8284463D01*
X4882895Y8274812D01*
X4879593Y8258810D01*
X4879593Y8249412D01*
X4882895Y8233410D01*
X4889245Y8224012D01*
X4898897Y8220710D01*
X4905247Y8220710D01*
X4914645Y8224012D01*
X4920995Y8233410D01*
X4924297Y8249412D01*
X4924297Y8258810D01*
X4920995Y8274812D01*
X4914645Y8284463D01*
X4905247Y8287512D01*
X4898897Y8287512D01*
X4945125Y8287512D02*
G01*
X4945125Y8239760D01*
X4948427Y8230362D01*
X4954777Y8224012D01*
X4964429Y8220710D01*
X4970779Y8220710D01*
X4980177Y8224012D01*
X4986527Y8230362D01*
X4989829Y8239760D01*
X4989829Y8287512D01*
X5010911Y8287512D02*
G01*
X5010911Y8220710D01*
X5010911Y8287512D02*
G01*
X5052059Y8287512D01*
X5010911Y8255762D02*
G01*
X5036311Y8255762D01*
D10*
X5194300Y7818120D02*
G01*
X5071618Y7818120D01*
X4624831Y7746997D02*
G01*
X4624831Y7869933D01*
X4686300Y7808465D02*
G01*
X4563618Y7808465D01*
D11*
X2364993Y7379715D02*
G01*
X2313177Y7270750D01*
X2292350Y7379715D02*
G01*
X2364993Y7379715D01*
X2451354Y7379715D02*
G01*
X2399284Y7307071D01*
X2477261Y7307071D01*
X2451354Y7379715D02*
G01*
X2451354Y7270750D01*
X2511552Y7379715D02*
G01*
X2511552Y7270750D01*
X2584450Y7379715D02*
G01*
X2584450Y7270750D01*
X2511552Y7327900D02*
G01*
X2584450Y7327900D01*
X2696463Y7353808D02*
G01*
X2691384Y7364221D01*
X2680970Y7374636D01*
X2670556Y7379715D01*
X2649727Y7379715D01*
X2639313Y7374636D01*
X2628900Y7364221D01*
X2623820Y7353808D01*
X2618740Y7338060D01*
X2618740Y7312152D01*
X2623820Y7296658D01*
X2628900Y7286244D01*
X2639313Y7275829D01*
X2649727Y7270750D01*
X2670556Y7270750D01*
X2680970Y7275829D01*
X2691384Y7286244D01*
X2696463Y7296658D01*
X2736088Y7353808D02*
G01*
X2736088Y7358887D01*
X2741168Y7369302D01*
X2746502Y7374636D01*
X2756915Y7379715D01*
X2777490Y7379715D01*
X2787904Y7374636D01*
X2793238Y7369302D01*
X2798318Y7358887D01*
X2798318Y7348473D01*
X2793238Y7338060D01*
X2782824Y7322565D01*
X2730754Y7270750D01*
X2803652Y7270750D01*
X2889758Y7379715D02*
G01*
X2837941Y7307071D01*
X2915920Y7307071D01*
X2889758Y7379715D02*
G01*
X2889758Y7270750D01*
X3012440Y7379715D02*
G01*
X2960370Y7379715D01*
X2955290Y7332979D01*
X2960370Y7338060D01*
X2976118Y7343394D01*
X2991611Y7343394D01*
X3007359Y7338060D01*
X3017520Y7327900D01*
X3022854Y7312152D01*
X3022854Y7301737D01*
X3017520Y7286244D01*
X3007359Y7275829D01*
X2991611Y7270750D01*
X2976118Y7270750D01*
X2960370Y7275829D01*
X2955290Y7280910D01*
X2950209Y7291323D01*
X2189988Y5422645D02*
G01*
X2171700Y5374894D01*
X2189988Y5422645D02*
G01*
X2208022Y5374894D01*
X2178558Y5390642D02*
G01*
X2201163Y5390642D01*
X2225293Y5411215D02*
G01*
X2225293Y5413502D01*
X2227579Y5418073D01*
X2229865Y5420360D01*
X2234438Y5422645D01*
X2243581Y5422645D01*
X2248154Y5420360D01*
X2250440Y5418073D01*
X2252725Y5413502D01*
X2252725Y5408929D01*
X2250440Y5404357D01*
X2245868Y5397500D01*
X2223008Y5374894D01*
X2254758Y5374894D01*
X3129788Y5702045D02*
G01*
X3111500Y5654294D01*
X3129788Y5702045D02*
G01*
X3147822Y5654294D01*
X3118358Y5670042D02*
G01*
X3140963Y5670042D01*
X3167379Y5702045D02*
G01*
X3192525Y5702045D01*
X3178809Y5683757D01*
X3185668Y5683757D01*
X3190240Y5681471D01*
X3192525Y5679186D01*
X3194558Y5672328D01*
X3194558Y5667755D01*
X3192525Y5661152D01*
X3187954Y5656579D01*
X3181095Y5654294D01*
X3174238Y5654294D01*
X3167379Y5656579D01*
X3165093Y5658865D01*
X3162808Y5663437D01*
X3078988Y5409945D02*
G01*
X3060700Y5362194D01*
X3078988Y5409945D02*
G01*
X3097022Y5362194D01*
X3067558Y5377942D02*
G01*
X3090163Y5377942D01*
X3134868Y5409945D02*
G01*
X3112008Y5377942D01*
X3146043Y5377942D01*
X3134868Y5409945D02*
G01*
X3134868Y5362194D01*
X2177288Y5130545D02*
G01*
X2159000Y5082794D01*
X2177288Y5130545D02*
G01*
X2195322Y5082794D01*
X2165858Y5098542D02*
G01*
X2188463Y5098542D01*
X2237740Y5130545D02*
G01*
X2214879Y5130545D01*
X2212593Y5109971D01*
X2214879Y5112257D01*
X2221738Y5114544D01*
X2228595Y5114544D01*
X2235454Y5112257D01*
X2240025Y5107686D01*
X2242058Y5100828D01*
X2242058Y5096255D01*
X2240025Y5089652D01*
X2235454Y5085079D01*
X2228595Y5082794D01*
X2221738Y5082794D01*
X2214879Y5085079D01*
X2212593Y5087365D01*
X2210308Y5091937D01*
X3091688Y5130545D02*
G01*
X3073400Y5082794D01*
X3091688Y5130545D02*
G01*
X3109722Y5082794D01*
X3080258Y5098542D02*
G01*
X3102863Y5098542D01*
X3152140Y5123687D02*
G01*
X3149854Y5128260D01*
X3142995Y5130545D01*
X3138424Y5130545D01*
X3131565Y5128260D01*
X3126993Y5121402D01*
X3124708Y5109971D01*
X3124708Y5098542D01*
X3126993Y5089652D01*
X3131565Y5085079D01*
X3138424Y5082794D01*
X3140709Y5082794D01*
X3147568Y5085079D01*
X3152140Y5089652D01*
X3154425Y5096255D01*
X3154425Y5098542D01*
X3152140Y5105400D01*
X3147568Y5109971D01*
X3140709Y5112257D01*
X3138424Y5112257D01*
X3131565Y5109971D01*
X3126993Y5105400D01*
X3124708Y5098542D01*
X2202688Y5702045D02*
G01*
X2184400Y5654294D01*
X2202688Y5702045D02*
G01*
X2220722Y5654294D01*
X2191258Y5670042D02*
G01*
X2213863Y5670042D01*
X2235708Y5692902D02*
G01*
X2240279Y5695187D01*
X2247138Y5702045D01*
X2247138Y5654294D01*
X4316984Y6299200D02*
G01*
X4425950Y6299200D01*
X4316984Y6371844D02*
G01*
X4425950Y6371844D01*
X4368800Y6299200D02*
G01*
X4368800Y6371844D01*
X4316984Y6406134D02*
G01*
X4394961Y6406134D01*
X4410456Y6411468D01*
X4420870Y6421881D01*
X4425950Y6437376D01*
X4425950Y6447789D01*
X4420870Y6463284D01*
X4410456Y6473697D01*
X4394961Y6479031D01*
X4316984Y6479031D01*
X4316984Y6513321D02*
G01*
X4425950Y6513321D01*
X4316984Y6513321D02*
G01*
X4316984Y6560058D01*
X4322063Y6575552D01*
X4327397Y6580886D01*
X4337811Y6585965D01*
X4348225Y6585965D01*
X4358640Y6580886D01*
X4363720Y6575552D01*
X4368800Y6560058D01*
X4368800Y6513321D02*
G01*
X4368800Y6560058D01*
X4374134Y6575552D01*
X4379213Y6580886D01*
X4389627Y6585965D01*
X4405375Y6585965D01*
X4415790Y6580886D01*
X4420870Y6575552D01*
X4425950Y6560058D01*
X4425950Y6513321D01*
X4337811Y6620255D02*
G01*
X4332477Y6630670D01*
X4316984Y6646163D01*
X4425950Y6646163D01*
X4342891Y6685787D02*
G01*
X4337811Y6685787D01*
X4327397Y6690868D01*
X4322063Y6696202D01*
X4316984Y6706615D01*
X4316984Y6727189D01*
X4322063Y6737604D01*
X4327397Y6742937D01*
X4337811Y6748018D01*
X4348225Y6748018D01*
X4358640Y6742937D01*
X4374134Y6732523D01*
X4425950Y6680454D01*
X4425950Y6753352D01*
D12*
X3544570Y8406384D02*
G01*
X3581400Y8503412D01*
X3544570Y8406384D02*
G01*
X3507486Y8503412D01*
X3567429Y8471154D02*
G01*
X3521456Y8471154D01*
X3477006Y8438895D02*
G01*
X3477006Y8503412D01*
X3477006Y8457184D02*
G01*
X3463290Y8443468D01*
X3453891Y8438895D01*
X3440175Y8438895D01*
X3430777Y8443468D01*
X3426206Y8457184D01*
X3426206Y8503412D01*
X3426206Y8457184D02*
G01*
X3412490Y8443468D01*
X3403091Y8438895D01*
X3389375Y8438895D01*
X3379977Y8443468D01*
X3375406Y8457184D01*
X3375406Y8503412D01*
X3344925Y8406384D02*
G01*
X3340354Y8411210D01*
X3335781Y8406384D01*
X3340354Y8401812D01*
X3344925Y8406384D01*
X3340354Y8438895D02*
G01*
X3340354Y8503412D01*
X3249929Y8452612D02*
G01*
X3259074Y8443468D01*
X3268218Y8438895D01*
X3282188Y8438895D01*
X3291331Y8443468D01*
X3300729Y8452612D01*
X3305302Y8466581D01*
X3305302Y8475726D01*
X3300729Y8489695D01*
X3291331Y8498839D01*
X3282188Y8503412D01*
X3268218Y8503412D01*
X3259074Y8498839D01*
X3249929Y8489695D01*
X3163824Y8438895D02*
G01*
X3163824Y8503412D01*
X3163824Y8452612D02*
G01*
X3173222Y8443468D01*
X3182365Y8438895D01*
X3196336Y8438895D01*
X3205479Y8443468D01*
X3214624Y8452612D01*
X3219450Y8466581D01*
X3219450Y8475726D01*
X3214624Y8489695D01*
X3205479Y8498839D01*
X3196336Y8503412D01*
X3182365Y8503412D01*
X3173222Y8498839D01*
X3163824Y8489695D01*
X3062224Y8406384D02*
G01*
X3062224Y8503412D01*
X3062224Y8406384D02*
G01*
X2997708Y8503412D01*
X2997708Y8406384D02*
G01*
X2997708Y8503412D01*
X2944113Y8438895D02*
G01*
X2953258Y8443468D01*
X2962656Y8452612D01*
X2967227Y8466581D01*
X2967227Y8475726D01*
X2962656Y8489695D01*
X2953258Y8498839D01*
X2944113Y8503412D01*
X2930143Y8503412D01*
X2921000Y8498839D01*
X2911856Y8489695D01*
X2907029Y8475726D01*
X2907029Y8466581D01*
X2911856Y8452612D01*
X2921000Y8443468D01*
X2930143Y8438895D01*
X2944113Y8438895D01*
X2821177Y8406384D02*
G01*
X2821177Y8503412D01*
X2821177Y8452612D02*
G01*
X2830575Y8443468D01*
X2839720Y8438895D01*
X2853690Y8438895D01*
X2862834Y8443468D01*
X2871977Y8452612D01*
X2876550Y8466581D01*
X2876550Y8475726D01*
X2871977Y8489695D01*
X2862834Y8498839D01*
X2853690Y8503412D01*
X2839720Y8503412D01*
X2830575Y8498839D01*
X2821177Y8489695D01*
X2790697Y8466581D02*
G01*
X2735325Y8466581D01*
X2735325Y8457184D01*
X2739897Y8448039D01*
X2744470Y8443468D01*
X2753868Y8438895D01*
X2767584Y8438895D01*
X2776981Y8443468D01*
X2786125Y8452612D01*
X2790697Y8466581D01*
X2790697Y8475726D01*
X2786125Y8489695D01*
X2776981Y8498839D01*
X2767584Y8503412D01*
X2753868Y8503412D01*
X2744470Y8498839D01*
X2735325Y8489695D01*
X2704845Y8406384D02*
G01*
X2704845Y8503412D01*
X2704845Y8406384D02*
G01*
X2668015Y8503412D01*
X2630931Y8406384D02*
G01*
X2668015Y8503412D01*
X2630931Y8406384D02*
G01*
X2630931Y8503412D01*
X2531109Y8429497D02*
G01*
X2535936Y8420354D01*
X2545079Y8411210D01*
X2554224Y8406384D01*
X2572765Y8406384D01*
X2581909Y8411210D01*
X2591308Y8420354D01*
X2595879Y8429497D01*
X2600452Y8443468D01*
X2600452Y8466581D01*
X2595879Y8480297D01*
X2591308Y8489695D01*
X2581909Y8498839D01*
X2572765Y8503412D01*
X2554224Y8503412D01*
X2545079Y8498839D01*
X2535936Y8489695D01*
X2531109Y8480297D01*
X2500629Y8406384D02*
G01*
X2500629Y8475726D01*
X2496058Y8489695D01*
X2486913Y8498839D01*
X2472943Y8503412D01*
X2463800Y8503412D01*
X2449829Y8498839D01*
X2440686Y8489695D01*
X2436113Y8475726D01*
X2436113Y8406384D01*
X3581400Y8609584D02*
G01*
X3581400Y8706612D01*
X3581400Y8706612D02*
G01*
X3526027Y8706612D01*
X3472434Y8642095D02*
G01*
X3481577Y8646668D01*
X3490975Y8655812D01*
X3495547Y8669781D01*
X3495547Y8678926D01*
X3490975Y8692895D01*
X3481577Y8702039D01*
X3472434Y8706612D01*
X3458463Y8706612D01*
X3449320Y8702039D01*
X3440175Y8692895D01*
X3435350Y8678926D01*
X3435350Y8669781D01*
X3440175Y8655812D01*
X3449320Y8646668D01*
X3458463Y8642095D01*
X3472434Y8642095D01*
X3404870Y8609584D02*
G01*
X3404870Y8706612D01*
X3374390Y8609584D02*
G01*
X3369818Y8614410D01*
X3365245Y8609584D01*
X3369818Y8605012D01*
X3374390Y8609584D01*
X3369818Y8642095D02*
G01*
X3369818Y8706612D01*
X3334765Y8642095D02*
G01*
X3334765Y8706612D01*
X3334765Y8660384D02*
G01*
X3321050Y8646668D01*
X3311652Y8642095D01*
X3297936Y8642095D01*
X3288538Y8646668D01*
X3283965Y8660384D01*
X3283965Y8706612D01*
X3182365Y8609584D02*
G01*
X3182365Y8706612D01*
X3182365Y8609584D02*
G01*
X3117850Y8706612D01*
X3117850Y8609584D02*
G01*
X3117850Y8706612D01*
X3064256Y8642095D02*
G01*
X3073400Y8646668D01*
X3082543Y8655812D01*
X3087370Y8669781D01*
X3087370Y8678926D01*
X3082543Y8692895D01*
X3073400Y8702039D01*
X3064256Y8706612D01*
X3050286Y8706612D01*
X3041141Y8702039D01*
X3031743Y8692895D01*
X3027172Y8678926D01*
X3027172Y8669781D01*
X3031743Y8655812D01*
X3041141Y8646668D01*
X3050286Y8642095D01*
X3064256Y8642095D01*
X2941320Y8609584D02*
G01*
X2941320Y8706612D01*
X2941320Y8655812D02*
G01*
X2950463Y8646668D01*
X2959861Y8642095D01*
X2973577Y8642095D01*
X2982975Y8646668D01*
X2992120Y8655812D01*
X2996691Y8669781D01*
X2996691Y8678926D01*
X2992120Y8692895D01*
X2982975Y8702039D01*
X2973577Y8706612D01*
X2959861Y8706612D01*
X2950463Y8702039D01*
X2941320Y8692895D01*
X2910840Y8669781D02*
G01*
X2855468Y8669781D01*
X2855468Y8660384D01*
X2860040Y8651239D01*
X2864611Y8646668D01*
X2874009Y8642095D01*
X2887725Y8642095D01*
X2896870Y8646668D01*
X2906268Y8655812D01*
X2910840Y8669781D01*
X2910840Y8678926D01*
X2906268Y8692895D01*
X2896870Y8702039D01*
X2887725Y8706612D01*
X2874009Y8706612D01*
X2864611Y8702039D01*
X2855468Y8692895D01*
X2824988Y8609584D02*
G01*
X2824988Y8706612D01*
X2824988Y8609584D02*
G01*
X2787904Y8706612D01*
X2751074Y8609584D02*
G01*
X2787904Y8706612D01*
X2751074Y8609584D02*
G01*
X2751074Y8706612D01*
X2651252Y8632697D02*
G01*
X2655824Y8623554D01*
X2665222Y8614410D01*
X2674365Y8609584D01*
X2692908Y8609584D01*
X2702052Y8614410D01*
X2711450Y8623554D01*
X2716022Y8632697D01*
X2720593Y8646668D01*
X2720593Y8669781D01*
X2716022Y8683497D01*
X2711450Y8692895D01*
X2702052Y8702039D01*
X2692908Y8706612D01*
X2674365Y8706612D01*
X2665222Y8702039D01*
X2655824Y8692895D01*
X2651252Y8683497D01*
X2620772Y8609584D02*
G01*
X2620772Y8678926D01*
X2616200Y8692895D01*
X2607056Y8702039D01*
X2593086Y8706612D01*
X2583941Y8706612D01*
X2569972Y8702039D01*
X2560827Y8692895D01*
X2556256Y8678926D01*
X2556256Y8609584D01*
X2454656Y8609584D02*
G01*
X2417572Y8706612D01*
X2380741Y8609584D02*
G01*
X2417572Y8706612D01*
X2340863Y8609584D02*
G01*
X2290063Y8609584D01*
X2317750Y8646668D01*
X2304034Y8646668D01*
X2294890Y8651239D01*
X2290063Y8655812D01*
X2285491Y8669781D01*
X2285491Y8678926D01*
X2290063Y8692895D01*
X2299461Y8702039D01*
X2313177Y8706612D01*
X2327147Y8706612D01*
X2340863Y8702039D01*
X2345690Y8697468D01*
X2350261Y8688070D01*
D10*
X3715511Y4715510D02*
G01*
X3687825Y4642612D01*
X3715511Y4715510D02*
G01*
X3743197Y4642612D01*
X3698240Y4666742D02*
G01*
X3732784Y4666742D01*
X3786886Y4715510D02*
G01*
X3776472Y4711700D01*
X3769613Y4701539D01*
X3766058Y4684268D01*
X3766058Y4673600D01*
X3769613Y4656581D01*
X3776472Y4646168D01*
X3786886Y4642612D01*
X3793743Y4642612D01*
X3804158Y4646168D01*
X3811015Y4656581D01*
X3814572Y4673600D01*
X3814572Y4684268D01*
X3811015Y4701539D01*
X3804158Y4711700D01*
X3793743Y4715510D01*
X3786886Y4715510D01*
X3649725Y4969510D02*
G01*
X3649725Y4896612D01*
X3649725Y4969510D02*
G01*
X3680968Y4969510D01*
X3691381Y4965700D01*
X3694684Y4962144D01*
X3698240Y4955539D01*
X3698240Y4948681D01*
X3694684Y4941823D01*
X3691381Y4938268D01*
X3680968Y4934712D01*
X3649725Y4934712D01*
X3673856Y4934712D02*
G01*
X3698240Y4896612D01*
X3769613Y4958842D02*
G01*
X3762756Y4965700D01*
X3752341Y4969510D01*
X3738372Y4969510D01*
X3727958Y4965700D01*
X3721100Y4958842D01*
X3721100Y4951984D01*
X3724656Y4945126D01*
X3727958Y4941823D01*
X3734815Y4938268D01*
X3755643Y4931410D01*
X3762756Y4927600D01*
X3766058Y4924044D01*
X3769613Y4917439D01*
X3769613Y4907026D01*
X3762756Y4900168D01*
X3752341Y4896612D01*
X3738372Y4896612D01*
X3727958Y4900168D01*
X3721100Y4907026D01*
X3792474Y4969510D02*
G01*
X3820159Y4896612D01*
X3847845Y4969510D02*
G01*
X3820159Y4896612D01*
X3649725Y5223510D02*
G01*
X3649725Y5150612D01*
X3649725Y5223510D02*
G01*
X3680968Y5223510D01*
X3691381Y5219700D01*
X3694684Y5216144D01*
X3698240Y5209539D01*
X3698240Y5202681D01*
X3694684Y5195823D01*
X3691381Y5192268D01*
X3680968Y5188712D01*
X3649725Y5188712D01*
X3673856Y5188712D02*
G01*
X3698240Y5150612D01*
X3769613Y5212842D02*
G01*
X3762756Y5219700D01*
X3752341Y5223510D01*
X3738372Y5223510D01*
X3727958Y5219700D01*
X3721100Y5212842D01*
X3721100Y5205984D01*
X3724656Y5199126D01*
X3727958Y5195823D01*
X3734815Y5192268D01*
X3755643Y5185410D01*
X3762756Y5181600D01*
X3766058Y5178044D01*
X3769613Y5171439D01*
X3769613Y5161026D01*
X3762756Y5154168D01*
X3752341Y5150612D01*
X3738372Y5150612D01*
X3727958Y5154168D01*
X3721100Y5161026D01*
X3792474Y5223510D02*
G01*
X3820159Y5150612D01*
X3847845Y5223510D02*
G01*
X3820159Y5150612D01*
X3705097Y5466842D02*
G01*
X3698240Y5473700D01*
X3687825Y5477510D01*
X3673856Y5477510D01*
X3663441Y5473700D01*
X3656584Y5466842D01*
X3656584Y5459984D01*
X3660140Y5453126D01*
X3663441Y5449823D01*
X3670554Y5446268D01*
X3691127Y5439410D01*
X3698240Y5435600D01*
X3701541Y5432044D01*
X3705097Y5425439D01*
X3705097Y5415026D01*
X3698240Y5408168D01*
X3687825Y5404612D01*
X3673856Y5404612D01*
X3663441Y5408168D01*
X3656584Y5415026D01*
X3727958Y5477510D02*
G01*
X3727958Y5404612D01*
X3727958Y5477510D02*
G01*
X3752088Y5477510D01*
X3762502Y5473700D01*
X3769613Y5466842D01*
X3772915Y5459984D01*
X3776472Y5449823D01*
X3776472Y5432044D01*
X3772915Y5421884D01*
X3769613Y5415026D01*
X3762502Y5408168D01*
X3752088Y5404612D01*
X3727958Y5404612D01*
X3806190Y5477510D02*
G01*
X3844290Y5477510D01*
X3823461Y5449823D01*
X3833875Y5449823D01*
X3840734Y5446268D01*
X3844290Y5442712D01*
X3847845Y5432044D01*
X3847845Y5425439D01*
X3844290Y5415026D01*
X3837431Y5408168D01*
X3827018Y5404612D01*
X3816604Y5404612D01*
X3806190Y5408168D01*
X3802634Y5411723D01*
X3799331Y5418581D01*
X3701795Y5721095D02*
G01*
X3694938Y5727700D01*
X3684524Y5731510D01*
X3670554Y5731510D01*
X3660140Y5727700D01*
X3653281Y5721095D01*
X3653281Y5713984D01*
X3656838Y5707126D01*
X3660140Y5703823D01*
X3667252Y5700268D01*
X3687825Y5693410D01*
X3694938Y5689600D01*
X3698240Y5686297D01*
X3701795Y5679439D01*
X3701795Y5669026D01*
X3694938Y5662168D01*
X3684524Y5658612D01*
X3670554Y5658612D01*
X3660140Y5662168D01*
X3653281Y5669026D01*
X3724656Y5731510D02*
G01*
X3724656Y5658612D01*
X3724656Y5731510D02*
G01*
X3748786Y5731510D01*
X3759200Y5727700D01*
X3766311Y5721095D01*
X3769613Y5713984D01*
X3773170Y5703823D01*
X3773170Y5686297D01*
X3769613Y5675884D01*
X3766311Y5669026D01*
X3759200Y5662168D01*
X3748786Y5658612D01*
X3724656Y5658612D01*
X3799331Y5713984D02*
G01*
X3799331Y5717539D01*
X3802888Y5724397D01*
X3806443Y5727700D01*
X3813302Y5731510D01*
X3827272Y5731510D01*
X3834129Y5727700D01*
X3837431Y5724397D01*
X3840988Y5717539D01*
X3840988Y5710681D01*
X3837431Y5703823D01*
X3830574Y5693410D01*
X3796029Y5658612D01*
X3844543Y5658612D01*
X3736340Y5975095D02*
G01*
X3729481Y5981700D01*
X3719068Y5985510D01*
X3705097Y5985510D01*
X3694684Y5981700D01*
X3687825Y5975095D01*
X3687825Y5967984D01*
X3691381Y5961126D01*
X3694684Y5957823D01*
X3701795Y5954268D01*
X3722370Y5947410D01*
X3729481Y5943600D01*
X3732784Y5940297D01*
X3736340Y5933439D01*
X3736340Y5923026D01*
X3729481Y5916168D01*
X3719068Y5912612D01*
X3705097Y5912612D01*
X3694684Y5916168D01*
X3687825Y5923026D01*
X3759200Y5985510D02*
G01*
X3759200Y5912612D01*
X3759200Y5985510D02*
G01*
X3783329Y5985510D01*
X3793743Y5981700D01*
X3800856Y5975095D01*
X3804158Y5967984D01*
X3807713Y5957823D01*
X3807713Y5940297D01*
X3804158Y5929884D01*
X3800856Y5923026D01*
X3793743Y5916168D01*
X3783329Y5912612D01*
X3759200Y5912612D01*
X3830574Y5971539D02*
G01*
X3837431Y5975095D01*
X3847845Y5985510D01*
X3847845Y5912612D01*
X3698240Y6221984D02*
G01*
X3694684Y6229095D01*
X3687825Y6235700D01*
X3680713Y6239510D01*
X3666997Y6239510D01*
X3660140Y6235700D01*
X3653027Y6229095D01*
X3649725Y6221984D01*
X3646170Y6211823D01*
X3646170Y6194297D01*
X3649725Y6183884D01*
X3653027Y6177026D01*
X3660140Y6170168D01*
X3666997Y6166612D01*
X3680713Y6166612D01*
X3687825Y6170168D01*
X3694684Y6177026D01*
X3698240Y6183884D01*
X3721100Y6239510D02*
G01*
X3721100Y6166612D01*
X3721100Y6239510D02*
G01*
X3748786Y6166612D01*
X3776472Y6239510D02*
G01*
X3748786Y6166612D01*
X3776472Y6239510D02*
G01*
X3776472Y6166612D01*
X3799331Y6239510D02*
G01*
X3799331Y6166612D01*
X3799331Y6239510D02*
G01*
X3823461Y6239510D01*
X3833875Y6235700D01*
X3840734Y6229095D01*
X3844290Y6221984D01*
X3847845Y6211823D01*
X3847845Y6194297D01*
X3844290Y6183884D01*
X3840734Y6177026D01*
X3833875Y6170168D01*
X3823461Y6166612D01*
X3799331Y6166612D01*
X3705097Y6483095D02*
G01*
X3698240Y6489700D01*
X3687825Y6493510D01*
X3673856Y6493510D01*
X3663441Y6489700D01*
X3656584Y6483095D01*
X3656584Y6475984D01*
X3660140Y6469126D01*
X3663441Y6465823D01*
X3670554Y6462268D01*
X3691127Y6455410D01*
X3698240Y6451600D01*
X3701541Y6448297D01*
X3705097Y6441439D01*
X3705097Y6431026D01*
X3698240Y6424168D01*
X3687825Y6420612D01*
X3673856Y6420612D01*
X3663441Y6424168D01*
X3656584Y6431026D01*
X3727958Y6493510D02*
G01*
X3727958Y6420612D01*
X3727958Y6493510D02*
G01*
X3752088Y6493510D01*
X3762502Y6489700D01*
X3769613Y6483095D01*
X3772915Y6475984D01*
X3776472Y6465823D01*
X3776472Y6448297D01*
X3772915Y6437884D01*
X3769613Y6431026D01*
X3762502Y6424168D01*
X3752088Y6420612D01*
X3727958Y6420612D01*
X3820159Y6493510D02*
G01*
X3809745Y6489700D01*
X3802634Y6479539D01*
X3799331Y6462268D01*
X3799331Y6451600D01*
X3802634Y6434581D01*
X3809745Y6424168D01*
X3820159Y6420612D01*
X3827018Y6420612D01*
X3837431Y6424168D01*
X3844290Y6434581D01*
X3847845Y6451600D01*
X3847845Y6462268D01*
X3844290Y6479539D01*
X3837431Y6489700D01*
X3827018Y6493510D01*
X3820159Y6493510D01*
X3712209Y6729984D02*
G01*
X3708654Y6737095D01*
X3701795Y6743700D01*
X3694684Y6747510D01*
X3680968Y6747510D01*
X3674109Y6743700D01*
X3666997Y6737095D01*
X3663695Y6729984D01*
X3660140Y6719823D01*
X3660140Y6702297D01*
X3663695Y6691884D01*
X3666997Y6685026D01*
X3674109Y6678168D01*
X3680968Y6674612D01*
X3694684Y6674612D01*
X3701795Y6678168D01*
X3708654Y6685026D01*
X3712209Y6691884D01*
X3735070Y6747510D02*
G01*
X3735070Y6674612D01*
X3735070Y6674612D02*
G01*
X3776472Y6674612D01*
X3799331Y6747510D02*
G01*
X3799331Y6674612D01*
X3847845Y6747510D02*
G01*
X3799331Y6698995D01*
X3816604Y6716268D02*
G01*
X3847845Y6674612D01*
X3731513Y7509510D02*
G01*
X3731513Y7436612D01*
X3731513Y7509510D02*
G01*
X3776472Y7509510D01*
X3731513Y7474712D02*
G01*
X3759200Y7474712D01*
X3731513Y7436612D02*
G01*
X3776472Y7436612D01*
X3799331Y7509510D02*
G01*
X3799331Y7436612D01*
X3799331Y7509510D02*
G01*
X3847845Y7436612D01*
X3847845Y7509510D02*
G01*
X3847845Y7436612D01*
X3656584Y7763510D02*
G01*
X3656584Y7690612D01*
X3656584Y7763510D02*
G01*
X3687825Y7763510D01*
X3698240Y7759700D01*
X3701541Y7756397D01*
X3705097Y7749539D01*
X3705097Y7742681D01*
X3701541Y7735823D01*
X3698240Y7732268D01*
X3687825Y7728712D01*
X3656584Y7728712D01*
X3680713Y7728712D02*
G01*
X3705097Y7690612D01*
X3776472Y7753095D02*
G01*
X3769613Y7759700D01*
X3759200Y7763510D01*
X3745229Y7763510D01*
X3734815Y7759700D01*
X3727958Y7753095D01*
X3727958Y7745984D01*
X3731513Y7739126D01*
X3734815Y7735823D01*
X3741674Y7732268D01*
X3762502Y7725410D01*
X3769613Y7721600D01*
X3772915Y7718297D01*
X3776472Y7711439D01*
X3776472Y7701026D01*
X3769613Y7694168D01*
X3759200Y7690612D01*
X3745229Y7690612D01*
X3734815Y7694168D01*
X3727958Y7701026D01*
X3823461Y7763510D02*
G01*
X3823461Y7690612D01*
X3799331Y7763510D02*
G01*
X3847845Y7763510D01*
X3656584Y7255510D02*
G01*
X3694684Y7255510D01*
X3673856Y7227823D01*
X3684270Y7227823D01*
X3691381Y7224268D01*
X3694684Y7220712D01*
X3698240Y7210297D01*
X3698240Y7203439D01*
X3694684Y7193026D01*
X3687825Y7186168D01*
X3677411Y7182612D01*
X3666997Y7182612D01*
X3656584Y7186168D01*
X3653281Y7189723D01*
X3649725Y7196581D01*
X3721100Y7255510D02*
G01*
X3748786Y7182612D01*
X3776472Y7255510D02*
G01*
X3748786Y7182612D01*
X3806190Y7255510D02*
G01*
X3844290Y7255510D01*
X3823715Y7227823D01*
X3833875Y7227823D01*
X3840988Y7224268D01*
X3844290Y7220712D01*
X3847845Y7210297D01*
X3847845Y7203439D01*
X3844290Y7193026D01*
X3837431Y7186168D01*
X3827018Y7182612D01*
X3816604Y7182612D01*
X3806190Y7186168D01*
X3802888Y7189723D01*
X3799331Y7196581D01*
X3705352Y6983984D02*
G01*
X3701795Y6991095D01*
X3694938Y6997700D01*
X3687825Y7001510D01*
X3674109Y7001510D01*
X3667252Y6997700D01*
X3660140Y6991095D01*
X3656838Y6983984D01*
X3653281Y6973823D01*
X3653281Y6956297D01*
X3656838Y6945884D01*
X3660140Y6939026D01*
X3667252Y6932168D01*
X3674109Y6928612D01*
X3687825Y6928612D01*
X3694938Y6932168D01*
X3701795Y6939026D01*
X3705352Y6945884D01*
X3705352Y6956297D01*
X3687825Y6956297D02*
G01*
X3705352Y6956297D01*
X3728211Y7001510D02*
G01*
X3728211Y6928612D01*
X3728211Y7001510D02*
G01*
X3776472Y6928612D01*
X3776472Y7001510D02*
G01*
X3776472Y6928612D01*
X3799331Y7001510D02*
G01*
X3799331Y6928612D01*
X3799331Y7001510D02*
G01*
X3823715Y7001510D01*
X3834129Y6997700D01*
X3840988Y6991095D01*
X3844543Y6983984D01*
X3847845Y6973823D01*
X3847845Y6956297D01*
X3844543Y6945884D01*
X3840988Y6939026D01*
X3834129Y6932168D01*
X3823715Y6928612D01*
X3799331Y6928612D01*
X3705352Y7999984D02*
G01*
X3701795Y8007095D01*
X3694938Y8013700D01*
X3687825Y8017510D01*
X3674109Y8017510D01*
X3667252Y8013700D01*
X3660140Y8007095D01*
X3656838Y7999984D01*
X3653281Y7989823D01*
X3653281Y7972297D01*
X3656838Y7961884D01*
X3660140Y7955026D01*
X3667252Y7948168D01*
X3674109Y7944612D01*
X3687825Y7944612D01*
X3694938Y7948168D01*
X3701795Y7955026D01*
X3705352Y7961884D01*
X3705352Y7972297D01*
X3687825Y7972297D02*
G01*
X3705352Y7972297D01*
X3728211Y8017510D02*
G01*
X3728211Y7944612D01*
X3728211Y8017510D02*
G01*
X3776472Y7944612D01*
X3776472Y8017510D02*
G01*
X3776472Y7944612D01*
X3799331Y8017510D02*
G01*
X3799331Y7944612D01*
X3799331Y8017510D02*
G01*
X3823715Y8017510D01*
X3834129Y8013700D01*
X3840988Y8007095D01*
X3844543Y7999984D01*
X3847845Y7989823D01*
X3847845Y7972297D01*
X3844543Y7961884D01*
X3840988Y7955026D01*
X3834129Y7948168D01*
X3823715Y7944612D01*
X3799331Y7944612D01*
X3762756Y8271510D02*
G01*
X3727958Y8271510D01*
X3724656Y8240268D01*
X3727958Y8243823D01*
X3738372Y8247126D01*
X3748786Y8247126D01*
X3759200Y8243823D01*
X3766058Y8236712D01*
X3769613Y8226297D01*
X3769613Y8219439D01*
X3766058Y8209026D01*
X3759200Y8202168D01*
X3748786Y8198612D01*
X3738372Y8198612D01*
X3727958Y8202168D01*
X3724656Y8205723D01*
X3721100Y8212581D01*
X3792474Y8271510D02*
G01*
X3820159Y8198612D01*
X3847845Y8271510D02*
G01*
X3820159Y8198612D01*
X1297686Y4745989D02*
G01*
X1297686Y4672837D01*
X1297686Y4745989D02*
G01*
X1321815Y4745989D01*
X1332229Y4742434D01*
X1339342Y4735576D01*
X1342644Y4728463D01*
X1346200Y4718050D01*
X1346200Y4700778D01*
X1342644Y4690363D01*
X1339342Y4683252D01*
X1332229Y4676394D01*
X1321815Y4672837D01*
X1297686Y4672837D01*
X1389887Y4745989D02*
G01*
X1379473Y4742434D01*
X1372615Y4732020D01*
X1369060Y4714494D01*
X1369060Y4704334D01*
X1372615Y4687062D01*
X1379473Y4676394D01*
X1389887Y4672837D01*
X1396745Y4672837D01*
X1407160Y4676394D01*
X1414018Y4687062D01*
X1417573Y4704334D01*
X1417573Y4714494D01*
X1414018Y4732020D01*
X1407160Y4742434D01*
X1396745Y4745989D01*
X1389887Y4745989D01*
X1297686Y4999989D02*
G01*
X1297686Y4926837D01*
X1297686Y4999989D02*
G01*
X1321815Y4999989D01*
X1332229Y4996434D01*
X1339342Y4989576D01*
X1342644Y4982463D01*
X1346200Y4972050D01*
X1346200Y4954778D01*
X1342644Y4944363D01*
X1339342Y4937252D01*
X1332229Y4930394D01*
X1321815Y4926837D01*
X1297686Y4926837D01*
X1369060Y4986020D02*
G01*
X1375918Y4989576D01*
X1386331Y4999989D01*
X1386331Y4926837D01*
X1295400Y5254752D02*
G01*
X1295400Y5181854D01*
X1295400Y5254752D02*
G01*
X1319529Y5254752D01*
X1329944Y5251195D01*
X1337055Y5244337D01*
X1340357Y5237479D01*
X1343913Y5227320D01*
X1343913Y5209539D01*
X1340357Y5199379D01*
X1337055Y5192521D01*
X1329944Y5185663D01*
X1319529Y5181854D01*
X1295400Y5181854D01*
X1370329Y5237479D02*
G01*
X1370329Y5241036D01*
X1373631Y5247639D01*
X1377187Y5251195D01*
X1384045Y5254752D01*
X1398015Y5254752D01*
X1404873Y5251195D01*
X1408429Y5247639D01*
X1411731Y5241036D01*
X1411731Y5234178D01*
X1408429Y5227320D01*
X1401318Y5216652D01*
X1366773Y5181854D01*
X1415287Y5181854D01*
X1295400Y5503926D02*
G01*
X1295400Y5431028D01*
X1295400Y5503926D02*
G01*
X1319529Y5503926D01*
X1329944Y5500370D01*
X1337055Y5493512D01*
X1340357Y5486145D01*
X1343913Y5476239D01*
X1343913Y5458713D01*
X1340357Y5448045D01*
X1337055Y5441187D01*
X1329944Y5434584D01*
X1319529Y5431028D01*
X1295400Y5431028D01*
X1373631Y5503926D02*
G01*
X1411731Y5503926D01*
X1390904Y5476239D01*
X1401318Y5476239D01*
X1408429Y5472684D01*
X1411731Y5469128D01*
X1415287Y5458713D01*
X1415287Y5451602D01*
X1411731Y5441187D01*
X1404873Y5434584D01*
X1394460Y5431028D01*
X1384045Y5431028D01*
X1373631Y5434584D01*
X1370329Y5438139D01*
X1366773Y5444744D01*
X1295400Y5757926D02*
G01*
X1295400Y5685028D01*
X1295400Y5757926D02*
G01*
X1319529Y5757926D01*
X1329944Y5754370D01*
X1337055Y5747512D01*
X1340357Y5740400D01*
X1343913Y5730239D01*
X1343913Y5712713D01*
X1340357Y5702300D01*
X1337055Y5695187D01*
X1329944Y5688584D01*
X1319529Y5685028D01*
X1295400Y5685028D01*
X1401318Y5757926D02*
G01*
X1366773Y5709412D01*
X1418589Y5709412D01*
X1401318Y5757926D02*
G01*
X1401318Y5685028D01*
X1295400Y6524752D02*
G01*
X1295400Y6451854D01*
X1295400Y6524752D02*
G01*
X1319529Y6524752D01*
X1329944Y6521450D01*
X1337055Y6514337D01*
X1340357Y6507479D01*
X1343913Y6497320D01*
X1343913Y6479539D01*
X1340357Y6469379D01*
X1337055Y6462521D01*
X1329944Y6455663D01*
X1319529Y6451854D01*
X1295400Y6451854D01*
X1408429Y6524752D02*
G01*
X1373631Y6524752D01*
X1370329Y6493763D01*
X1373631Y6497320D01*
X1384045Y6500621D01*
X1394460Y6500621D01*
X1404873Y6497320D01*
X1411731Y6489954D01*
X1415287Y6479539D01*
X1415287Y6472936D01*
X1411731Y6462521D01*
X1404873Y6455663D01*
X1394460Y6451854D01*
X1384045Y6451854D01*
X1373631Y6455663D01*
X1370329Y6459220D01*
X1366773Y6466078D01*
X1295400Y6777736D02*
G01*
X1295400Y6704837D01*
X1295400Y6777736D02*
G01*
X1319529Y6777736D01*
X1329944Y6774179D01*
X1337055Y6767321D01*
X1340357Y6760463D01*
X1343913Y6750050D01*
X1343913Y6732523D01*
X1340357Y6722363D01*
X1337055Y6715252D01*
X1329944Y6708139D01*
X1319529Y6704837D01*
X1295400Y6704837D01*
X1408429Y6767321D02*
G01*
X1404873Y6774179D01*
X1394460Y6777736D01*
X1387602Y6777736D01*
X1377187Y6774179D01*
X1370329Y6764020D01*
X1366773Y6746239D01*
X1366773Y6729221D01*
X1370329Y6715252D01*
X1377187Y6708139D01*
X1387602Y6704837D01*
X1390904Y6704837D01*
X1401318Y6708139D01*
X1408429Y6715252D01*
X1411731Y6725920D01*
X1411731Y6729221D01*
X1408429Y6739636D01*
X1401318Y6746239D01*
X1390904Y6750050D01*
X1387602Y6750050D01*
X1377187Y6746239D01*
X1370329Y6739636D01*
X1366773Y6729221D01*
X1295400Y7027926D02*
G01*
X1295400Y6955028D01*
X1295400Y7027926D02*
G01*
X1319529Y7027926D01*
X1329944Y7024370D01*
X1337055Y7017512D01*
X1340357Y7010400D01*
X1343913Y7000239D01*
X1343913Y6982713D01*
X1340357Y6972300D01*
X1337055Y6965187D01*
X1329944Y6958584D01*
X1319529Y6955028D01*
X1295400Y6955028D01*
X1415287Y7027926D02*
G01*
X1380489Y6955028D01*
X1366773Y7027926D02*
G01*
X1415287Y7027926D01*
X1295400Y7286752D02*
G01*
X1295400Y7213854D01*
X1295400Y7286752D02*
G01*
X1319529Y7286752D01*
X1329944Y7283450D01*
X1337055Y7276337D01*
X1340357Y7269479D01*
X1343913Y7259320D01*
X1343913Y7241539D01*
X1340357Y7231379D01*
X1337055Y7224521D01*
X1329944Y7217663D01*
X1319529Y7213854D01*
X1295400Y7213854D01*
X1384045Y7286752D02*
G01*
X1373631Y7283450D01*
X1370329Y7276337D01*
X1370329Y7269479D01*
X1373631Y7262621D01*
X1380489Y7259320D01*
X1394460Y7255763D01*
X1404873Y7251954D01*
X1411731Y7245350D01*
X1415287Y7238237D01*
X1415287Y7228078D01*
X1411731Y7221220D01*
X1408429Y7217663D01*
X1398015Y7213854D01*
X1384045Y7213854D01*
X1373631Y7217663D01*
X1370329Y7221220D01*
X1366773Y7228078D01*
X1366773Y7238237D01*
X1370329Y7245350D01*
X1377187Y7251954D01*
X1387602Y7255763D01*
X1401318Y7259320D01*
X1408429Y7262621D01*
X1411731Y7269479D01*
X1411731Y7276337D01*
X1408429Y7283450D01*
X1398015Y7286752D01*
X1384045Y7286752D01*
X1295400Y7533131D02*
G01*
X1295400Y7460234D01*
X1295400Y7533131D02*
G01*
X1326642Y7533131D01*
X1337055Y7529576D01*
X1340357Y7526020D01*
X1343913Y7519162D01*
X1343913Y7512050D01*
X1340357Y7505445D01*
X1337055Y7501889D01*
X1326642Y7498334D01*
X1295400Y7498334D01*
X1319529Y7498334D02*
G01*
X1343913Y7460234D01*
X1366773Y7533131D02*
G01*
X1415287Y7460234D01*
X1415287Y7533131D02*
G01*
X1366773Y7460234D01*
X1319529Y7797800D02*
G01*
X1319529Y7724902D01*
X1295400Y7797800D02*
G01*
X1343913Y7797800D01*
X1366773Y7797800D02*
G01*
X1415287Y7724902D01*
X1415287Y7797800D02*
G01*
X1366773Y7724902D01*
X1302512Y6018276D02*
G01*
X1340612Y6018276D01*
X1319529Y5990589D01*
X1329944Y5990589D01*
X1337055Y5987034D01*
X1340612Y5983478D01*
X1343913Y5973063D01*
X1343913Y5965952D01*
X1340612Y5955537D01*
X1333500Y5948934D01*
X1323086Y5945378D01*
X1312671Y5945378D01*
X1302512Y5948934D01*
X1298955Y5952489D01*
X1295400Y5959347D01*
X1366773Y6018276D02*
G01*
X1394460Y5945378D01*
X1422145Y6018276D02*
G01*
X1394460Y5945378D01*
X1451863Y6018276D02*
G01*
X1489963Y6018276D01*
X1469389Y5990589D01*
X1479550Y5990589D01*
X1486662Y5987034D01*
X1489963Y5983478D01*
X1493520Y5973063D01*
X1493520Y5965952D01*
X1489963Y5955537D01*
X1483105Y5948934D01*
X1472692Y5945378D01*
X1462278Y5945378D01*
X1451863Y5948934D01*
X1448562Y5952489D01*
X1445005Y5959347D01*
X1302257Y8296910D02*
G01*
X1340357Y8296910D01*
X1319529Y8269223D01*
X1329944Y8269223D01*
X1337055Y8265668D01*
X1340357Y8262112D01*
X1343913Y8251697D01*
X1343913Y8244839D01*
X1340357Y8234426D01*
X1333500Y8227568D01*
X1323086Y8224012D01*
X1312671Y8224012D01*
X1302257Y8227568D01*
X1298955Y8231123D01*
X1295400Y8237981D01*
X1366773Y8296910D02*
G01*
X1394460Y8224012D01*
X1422145Y8296910D02*
G01*
X1394460Y8224012D01*
X1451863Y8296910D02*
G01*
X1489963Y8296910D01*
X1469389Y8269223D01*
X1479550Y8269223D01*
X1486662Y8265668D01*
X1489963Y8262112D01*
X1493520Y8251697D01*
X1493520Y8244839D01*
X1489963Y8234426D01*
X1483105Y8227568D01*
X1472692Y8224012D01*
X1462278Y8224012D01*
X1451863Y8227568D01*
X1448562Y8231123D01*
X1445005Y8237981D01*
X1347470Y6245352D02*
G01*
X1343913Y6252463D01*
X1337055Y6259068D01*
X1329944Y6262370D01*
X1316228Y6262370D01*
X1309370Y6259068D01*
X1302512Y6252463D01*
X1298955Y6245352D01*
X1295400Y6234937D01*
X1295400Y6217665D01*
X1298955Y6207252D01*
X1302512Y6200139D01*
X1309370Y6193536D01*
X1316228Y6189471D01*
X1329944Y6189471D01*
X1337055Y6193536D01*
X1343913Y6200139D01*
X1347470Y6207252D01*
X1347470Y6217665D01*
X1329944Y6217665D02*
G01*
X1347470Y6217665D01*
X1370329Y6262370D02*
G01*
X1370329Y6189471D01*
X1370329Y6262370D02*
G01*
X1418589Y6189471D01*
X1418589Y6262370D02*
G01*
X1418589Y6189471D01*
X1441450Y6262370D02*
G01*
X1441450Y6189471D01*
X1441450Y6262370D02*
G01*
X1465834Y6262370D01*
X1476247Y6259068D01*
X1483105Y6252463D01*
X1486662Y6245352D01*
X1489963Y6234937D01*
X1489963Y6217665D01*
X1486662Y6207252D01*
X1483105Y6200139D01*
X1476247Y6193536D01*
X1465834Y6189471D01*
X1441450Y6189471D01*
X1347470Y8020050D02*
G01*
X1343913Y8027415D01*
X1337055Y8034273D01*
X1329944Y8037829D01*
X1316228Y8037829D01*
X1309370Y8034273D01*
X1302257Y8027415D01*
X1298955Y8020050D01*
X1295400Y8009889D01*
X1295400Y7992618D01*
X1298955Y7981950D01*
X1302257Y7975345D01*
X1309370Y7968487D01*
X1316228Y7964931D01*
X1329944Y7964931D01*
X1337055Y7968487D01*
X1343913Y7975345D01*
X1347470Y7981950D01*
X1347470Y7992618D01*
X1329944Y7992618D02*
G01*
X1347470Y7992618D01*
X1370329Y8037829D02*
G01*
X1370329Y7964931D01*
X1370329Y8037829D02*
G01*
X1418589Y7964931D01*
X1418589Y8037829D02*
G01*
X1418589Y7964931D01*
X1441450Y8037829D02*
G01*
X1441450Y7964931D01*
X1441450Y8037829D02*
G01*
X1465834Y8037829D01*
X1476247Y8034273D01*
X1483105Y8027415D01*
X1486662Y8020050D01*
X1489963Y8009889D01*
X1489963Y7992618D01*
X1486662Y7981950D01*
X1483105Y7975345D01*
X1476247Y7968487D01*
X1465834Y7964931D01*
X1441450Y7964931D01*
D11*
X4928870Y9485884D02*
G01*
X4980686Y9485884D01*
X4986020Y9532620D01*
X4980686Y9527539D01*
X4965191Y9522205D01*
X4949443Y9522205D01*
X4933950Y9527539D01*
X4923536Y9537700D01*
X4918456Y9553447D01*
X4918456Y9563862D01*
X4923536Y9579355D01*
X4933950Y9589770D01*
X4949443Y9594850D01*
X4965191Y9594850D01*
X4980686Y9589770D01*
X4986020Y9584689D01*
X4991100Y9574276D01*
X4884165Y9485884D02*
G01*
X4842509Y9594850D01*
X4800854Y9485884D02*
G01*
X4842509Y9594850D01*
G36*
X5232400Y8331200D02*
G01*
X5232400Y7658100D01*
X5270500Y7658100D01*
X5334000Y7759700D01*
X5372100Y7874000D01*
X5384800Y8001000D01*
X5359400Y8140700D01*
X5295900Y8255000D01*
G37*
D13*
X4102100Y4508500D02*
G01*
X4445000Y4508500D01*
X4445000Y3911600D01*
X4102100Y3911600D01*
X4102100Y4508500D01*
X2908300Y7467600D02*
G01*
X2400300Y7467600D01*
X2400300Y7721600D01*
X2908300Y7721600D01*
X2908300Y7467600D01*
D14*
X2603306Y7186096D02*
G01*
X2320005Y7186096D01*
X2997006Y7188395D02*
G01*
X2717606Y7188395D01*
X2320005Y5893399D02*
G01*
X2320005Y7186096D01*
X2997006Y7188395D02*
G01*
X2997006Y5893399D01*
X2997006Y5893399D02*
G01*
X2320005Y5893399D01*
D15*
X2299360Y5480989D02*
G01*
X2299360Y5314010D01*
X2504440Y5314010D01*
X2504440Y5480989D01*
X2299360Y5480989D01*
X2807360Y5760389D02*
G01*
X2807360Y5593410D01*
X3012440Y5593410D01*
X3012440Y5760389D01*
X2807360Y5760389D01*
X2820060Y5480989D02*
G01*
X2820060Y5314010D01*
X3025140Y5314010D01*
X3025140Y5480989D01*
X2820060Y5480989D01*
X2299360Y5188889D02*
G01*
X2299360Y5021910D01*
X2504440Y5021910D01*
X2504440Y5188889D01*
X2299360Y5188889D01*
X2820060Y5188889D02*
G01*
X2820060Y5021910D01*
X3025140Y5021910D01*
X3025140Y5188889D01*
X2820060Y5188889D01*
X2312060Y5760389D02*
G01*
X2312060Y5593410D01*
X2517140Y5593410D01*
X2517140Y5760389D01*
X2312060Y5760389D01*
D13*
X5359400Y4495800D02*
G01*
X4470400Y4495800D01*
X4470400Y4495800D02*
G01*
X4470400Y7289800D01*
X4470400Y7289800D02*
G01*
X5359400Y7289800D01*
X5359400Y7289800D02*
G01*
X5359400Y6113779D01*
X5359400Y5671820D02*
G01*
X5359400Y5118100D01*
X5359400Y5118100D02*
G01*
X5359400Y4889500D01*
X5359400Y4889500D02*
G01*
X5359400Y4495800D01*
X5245100Y4622800D02*
G01*
X4584700Y4622800D01*
X4584700Y4622800D02*
G01*
X4584700Y7162800D01*
X4584700Y7162800D02*
G01*
X5245100Y7162800D01*
X5245100Y7162800D02*
G01*
X5245100Y6113779D01*
X5245100Y6113779D02*
G01*
X5359400Y6113779D01*
X5359400Y6113779D02*
G01*
X5359400Y5671820D01*
X5359400Y5671820D02*
G01*
X5245100Y5671820D01*
X5245100Y5671820D02*
G01*
X5245100Y5003800D01*
X5245100Y5003800D02*
G01*
X5245100Y4622800D01*
X5359400Y4889500D02*
G01*
X5245100Y5003800D01*
X5245100Y5003800D02*
G01*
X5359400Y5118100D01*
X2951479Y9399778D02*
G01*
X2951479Y9118600D01*
X2209800Y9118600D01*
X2209800Y9399778D01*
X3975100Y8483600D02*
G01*
X3975100Y8712200D01*
X3632200Y8712200D01*
X2209800Y8686800D02*
G01*
X1143000Y8686800D01*
X1143000Y8356600D01*
X3975100Y8356600D02*
G01*
X3975100Y8521700D01*
X3632200Y8521700D01*
X2374900Y8496300D02*
G01*
X1663700Y8496300D01*
X1663700Y8356600D01*
X2205075Y9459762D02*
G01*
X2233018Y9416585D01*
X2186942Y9447999D02*
G01*
X2205075Y9459762D01*
X2212342Y9402284D02*
G01*
X2186942Y9445464D01*
X2956918Y9459762D02*
G01*
X2928975Y9414042D01*
X2976879Y9447999D02*
G01*
X2956918Y9459762D01*
X2948942Y9402284D02*
G01*
X2974342Y9445464D01*
X2271118Y9424200D02*
G01*
X2271118Y9444520D01*
X2271118Y9421662D02*
G01*
X2271118Y9424200D01*
X2890875Y9424200D02*
G01*
X2890875Y9444520D01*
X2890875Y9421662D02*
G01*
X2890875Y9424200D01*
X2875638Y9459762D02*
G01*
X2286353Y9459762D01*
X2875638Y9439442D02*
G01*
X2286353Y9439442D01*
X2235553Y9401342D02*
G01*
X2247900Y9402284D01*
X2209800Y9399742D02*
G01*
X2235553Y9401342D01*
X2926438Y9401342D02*
G01*
X2951479Y9402284D01*
X2910842Y9404822D02*
G01*
X2926438Y9401342D01*
X2209800Y9303222D02*
G01*
X2209800Y9394664D01*
X2951479Y9303222D02*
G01*
X2951479Y9394664D01*
X4102100Y9258300D02*
G01*
X4102100Y3696642D01*
X978700Y3694899D02*
G01*
X977900Y9258300D01*
X1079500Y9359900D02*
G01*
X4002100Y9362437D01*
X4002100Y3596642D02*
G01*
X1079500Y3594100D01*
X5234038Y9425180D02*
G01*
X5234038Y9205219D01*
X5042019Y9205219D01*
X5042019Y9425180D01*
X4734125Y9425101D02*
G01*
X4734125Y9205102D01*
X4542149Y9205102D01*
X4542149Y9425101D01*
X5387152Y8655100D02*
G01*
X4387151Y8655100D01*
X4387151Y8655100D02*
G01*
X4387151Y9425099D01*
X5387152Y8655100D02*
G01*
X5387152Y9425099D01*
X5387152Y9425099D02*
G01*
X4387151Y9425099D01*
X5387152Y8835044D02*
G01*
X4387151Y8835044D01*
X4379150Y8788400D02*
G01*
X4316351Y8788400D01*
X4316351Y8892461D01*
X4379150Y8892461D01*
D17*
G75*
G01*
X5389298Y3898880D02*
G03*
X5389298Y3898410I-449999J-235D01*
D14*
G75*
G01*
X2603307Y7186097D02*
G03*
X2717607Y7188383I57150J1143D01*
D13*
G75*
G01*
X2933700Y9402282D02*
G02*
X2889250Y9417776I-6997J51434D01*
G75*
G01*
X2889250Y9422348D02*
G03*
X2874010Y9436826I-15002J-531D01*
G75*
G01*
X2889250Y9442922D02*
G03*
X2874010Y9458416I-15004J485D01*
G75*
G01*
X2284476Y9458416D02*
G03*
X2269236Y9442922I-236J-15009D01*
G75*
G01*
X2284476Y9436826D02*
G03*
X2269236Y9422348I-238J-15009D01*
G75*
G01*
X2269236Y9417776D02*
G02*
X2230120Y9402282I-32959J26085D01*
G75*
G01*
X2927604Y9412442D02*
G03*
X2923540Y9402282I11596J-10531D01*
G75*
G01*
X2230374Y9412950D02*
G02*
X2232660Y9402282I-13209J-8409D01*
G75*
G01*
X1078700Y3594900D02*
G02*
X978700Y3694900I0J100000D01*
G75*
G01*
X977900Y9258300D02*
G02*
X1077900Y9358300I100000J0D01*
G75*
G01*
X4000500Y9359900D02*
G02*
X4100500Y9259900I0J-100000D01*
G75*
G01*
X4102097Y3696642D02*
G02*
X4002098Y3596643I-99999J0D01*
G75*
G01
X2405560Y7124700D02*
G03X2405560Y7124700I-17960J0D01*
D18*
G75*
G01
X5376799Y7988300D02*
G03X5376799Y7988300I-499999J0D01*
M02*
